<svg width="800" height="600" viewBox="0 0 800 600" fill="none" xmlns="http://www.w3.org/2000/svg">
  <rect width="800" height="600" rx="16" fill="#0D0D0D"/>
  <rect x="24" y="24" width="752" height="552" rx="12" fill="#1A1A1A"/>
  <!-- Top bar -->
  <rect x="24" y="24" width="752" height="48" rx="12" fill="#262626"/>
  <circle cx="56" cy="48" r="6" fill="#FF4444"/>
  <circle cx="76" cy="48" r="6" fill="#FFAA00"/>
  <circle cx="96" cy="48" r="6" fill="#44CC44"/>
  <rect x="340" y="38" width="120" height="20" rx="10" fill="#333333"/>
  <!-- Sidebar -->
  <rect x="24" y="72" width="180" height="504" rx="0" fill="#1A1A1A"/>
  <rect x="40" y="96" width="148" height="32" rx="8" fill="#FF7A00" fill-opacity="0.15"/>
  <rect x="56" y="106" width="80" height="12" rx="4" fill="#FF7A00"/>
  <rect x="40" y="144" width="148" height="32" rx="8" fill="transparent"/>
  <rect x="56" y="154" width="64" height="12" rx="4" fill="#4D4D4D"/>
  <rect x="40" y="184" width="148" height="32" rx="8" fill="transparent"/>
  <rect x="56" y="194" width="72" height="12" rx="4" fill="#4D4D4D"/>
  <rect x="40" y="224" width="148" height="32" rx="8" fill="transparent"/>
  <rect x="56" y="234" width="56" height="12" rx="4" fill="#4D4D4D"/>
  <!-- Main content area -->
  <rect x="220" y="88" width="540" height="160" rx="12" fill="#262626"/>
  <rect x="244" y="112" width="200" height="20" rx="6" fill="#F5F5F5" fill-opacity="0.9"/>
  <rect x="244" y="144" width="320" height="12" rx="4" fill="#808080"/>
  <rect x="244" y="168" width="280" height="12" rx="4" fill="#808080" fill-opacity="0.5"/>
  <rect x="244" y="200" width="120" height="32" rx="16" fill="#FF7A00"/>
  <rect x="260" y="210" width="88" height="12" rx="4" fill="white"/>
  <!-- Cards row -->
  <rect x="220" y="268" width="168" height="120" rx="12" fill="#262626"/>
  <rect x="236" y="284" width="40" height="40" rx="8" fill="#FF7A00" fill-opacity="0.15"/>
  <rect x="244" y="296" width="24" height="16" rx="4" fill="#FF7A00"/>
  <rect x="236" y="340" width="100" height="12" rx="4" fill="#F5F5F5" fill-opacity="0.7"/>
  <rect x="236" y="360" width="136" height="10" rx="4" fill="#808080" fill-opacity="0.4"/>
  <rect x="404" y="268" width="168" height="120" rx="12" fill="#262626"/>
  <rect x="420" y="284" width="40" height="40" rx="8" fill="#FF7A00" fill-opacity="0.15"/>
  <rect x="428" y="296" width="24" height="16" rx="4" fill="#FF7A00"/>
  <rect x="420" y="340" width="100" height="12" rx="4" fill="#F5F5F5" fill-opacity="0.7"/>
  <rect x="420" y="360" width="136" height="10" rx="4" fill="#808080" fill-opacity="0.4"/>
  <rect x="588" y="268" width="168" height="120" rx="12" fill="#262626"/>
  <rect x="604" y="284" width="40" height="40" rx="8" fill="#FF7A00" fill-opacity="0.15"/>
  <rect x="612" y="296" width="24" height="16" rx="4" fill="#FF7A00"/>
  <rect x="604" y="340" width="100" height="12" rx="4" fill="#F5F5F5" fill-opacity="0.7"/>
  <rect x="604" y="360" width="136" height="10" rx="4" fill="#808080" fill-opacity="0.4"/>
  <!-- Chart area -->
  <rect x="220" y="408" width="356" height="160" rx="12" fill="#262626"/>
  <rect x="244" y="428" width="120" height="14" rx="4" fill="#F5F5F5" fill-opacity="0.7"/>
  <polyline points="260,540 300,510 340,520 380,490 420,500 460,470 500,480 540,450" stroke="#FF7A00" stroke-width="2.5" fill="none" stroke-linecap="round" stroke-linejoin="round"/>
  <polyline points="260,540 300,525 340,530 380,515 420,520 460,508 500,512 540,500" stroke="#808080" stroke-width="1.5" fill="none" stroke-linecap="round" stroke-linejoin="round" opacity="0.4"/>
  <!-- Activity list -->
  <rect x="592" y="408" width="168" height="160" rx="12" fill="#262626"/>
  <rect x="608" y="428" width="80" height="12" rx="4" fill="#F5F5F5" fill-opacity="0.7"/>
  <rect x="608" y="456" width="136" height="10" rx="4" fill="#808080" fill-opacity="0.3"/>
  <rect x="608" y="476" width="136" height="10" rx="4" fill="#808080" fill-opacity="0.3"/>
  <rect x="608" y="496" width="136" height="10" rx="4" fill="#808080" fill-opacity="0.3"/>
  <rect x="608" y="516" width="136" height="10" rx="4" fill="#808080" fill-opacity="0.3"/>
  <rect x="608" y="536" width="100" height="10" rx="4" fill="#808080" fill-opacity="0.3"/>
</svg>
