<svg xmlns="http://www.w3.org/2000/svg" viewBox="0 0 388 184" fill="none">
  <defs>
    <linearGradient id="wg" x1="0%" y1="0%" x2="100%" y2="100%">
      <stop offset="0%" stop-color="#FF9933"/>
      <stop offset="100%" stop-color="#FF5500"/>
    </linearGradient>
  </defs>
  <!-- Icon mark -->
  <rect x="12" y="32" width="120" height="120" rx="28" fill="#1A1A1A"/>
  <g transform="translate(30, 52)">
    <rect x="0" y="0" width="12" height="80" rx="6" fill="url(#wg)"/>
    <rect x="12" y="30" width="12" height="50" rx="6" fill="url(#wg)" transform="rotate(-10, 18, 80)"/>
    <rect x="35" y="20" width="12" height="60" rx="6" fill="url(#wg)"/>
    <rect x="58" y="30" width="12" height="50" rx="6" fill="url(#wg)" transform="rotate(10, 64, 80)"/>
    <rect x="70" y="0" width="12" height="80" rx="6" fill="url(#wg)"/>
  </g>
  <!-- "wozif" wordmark as geometric paths -->
  <!-- w -->
  <path d="M148 58h11l13 48 12-38h9l12 38 13-48h11l-20 68h-9l-12-38-12 38h-9L148 58z" fill="#1A1A1A"/>
  <!-- o -->
  <path d="M240 78c0-14 10-22 22-22s22 10 22 22v20c0 14-10 22-22 22s-22-10-22-22V78zm10 0v20c0 8 5 13 12 13s12-5 12-13V78c0-8-5-13-12-13s-12 5-12 13z" fill="#1A1A1A"/>
  <!-- z -->
  <path d="M292 58h38v10l-26 48h26v10h-38v-10l26-48h-26V58z" fill="#1A1A1A"/>
  <!-- i (dot + stem) -->
  <circle cx="342" cy="44" r="6" fill="url(#wg)"/>
  <rect x="336" y="58" width="12" height="68" rx="2" fill="#1A1A1A"/>
  <!-- f -->
  <path d="M358 58h24v10h-14v18h12v10h-12v30h-10V58z" fill="#1A1A1A"/>
</svg>
