<?xml version="1.0" encoding="UTF-8"?>
<svg id="Calque_2" data-name="Calque 2" xmlns="http://www.w3.org/2000/svg" viewBox="0 0 44.4 44.4">
  <defs>
    <style>
      .cls-1 {
        fill: #f6f7f9;
      }

      .cls-1, .cls-2 {
        stroke-width: 0px;
      }

      .cls-2 {
        fill-rule: evenodd;
      }
    </style>
  </defs>
  <g id="Calque_1-2" data-name="Calque 1">
    <g>
      <path class="cls-1" d="m44.4,22.2c0,12.26-9.94,22.2-22.2,22.2S0,34.46,0,22.2,9.94,0,22.2,0s22.2,9.94,22.2,22.2Z"/>
      <path class="cls-2" d="m28.71,27.88l3.62-17.09h-6.85l-2.85,13.56c-.56,2.64-1.34,3.68-2.76,3.68s-2.11-1.1-1.84-2.79c.36-2.37,1.57-3.71,3.35-3.71h.33l1.1-5.22h-.27c-6.56,0-10.33,2.91-11.34,8.75-.42,2.46-.09,4.51.98,6.14,1.1,1.6,2.61,2.4,4.57,2.4,2.11,0,3.83-.77,5.19-2.34.03,1.51,1.01,2.02,3.29,2.02h5.19l2.94-5.4h-4.66Z"/>
    </g>
  </g>
</svg>