<?xml version="1.0" encoding="UTF-8"?>
<svg id="Calque_1" data-name="Calque 1" xmlns="http://www.w3.org/2000/svg" viewBox="0 0 54 54">
  <defs>
    <style>
      .cls-1, .cls-2 {
        fill: #fff;
      }

      .cls-3 {
        fill: #987cb3;
      }

      .cls-2 {
        fill-rule: evenodd;
      }
    </style>
  </defs>
  <path class="cls-2" d="m51,27c0,13.25-10.75,24-24,24S3,40.25,3,27,13.75,3,27,3s24,10.75,24,24Zm-24,22.05c12.18,0,22.05-9.87,22.05-22.05S39.18,4.95,27,4.95,4.95,14.82,4.95,27s9.87,22.05,22.05,22.05Z"/>
  <path class="cls-3" d="m49.05,27c0,12.18-9.87,22.05-22.05,22.05S4.95,39.18,4.95,27,14.82,4.95,27,4.95s22.05,9.87,22.05,22.05Z"/>
  <g>
    <path class="cls-1" d="m22.39,25.88c.57-.72,1.06-1.5,1.46-2.32.11-.22.1-.23-.15-.29-.56-.13-1.14-.18-1.71-.23-.45-.04-.9-.02-1.36-.03-.03-.05-.05-.05-.07,0-.29.03-.57.04-.86.05-.18,0-.15-.05-.12-.17.1-.42.09-.87.06-1.29-.02-.34-.02-.69-.08-1.04-.05-.31-.09-.62-.1-.93,0-.15-.06-.32-.09-.49-.06-.33-.1-.66-.16-.99-.03-.12-.12-.17-.2-.08-.29.32-.67.52-.96.83-.3.32-.63.6-.92.93-.36.41-.75.79-1.05,1.24-.07.1-.14.13-.23-.01-.18-.32-.44-.59-.67-.87-.45-.57-1.01-1.01-1.54-1.5-.24-.22-.48-.43-.72-.64-.05-.04-.13-.15-.17-.02-.03.11-.08.21-.09.33-.04.37-.09.75-.14,1.12-.09.61-.16,1.22-.17,1.84,0,.52,0,1.05,0,1.57,0,.13,0,.22-.19.19-.09-.02-.19-.05-.28-.04-.62.03-1.24-.08-1.87-.02-.64.07-1.28.14-1.91.25-.12.02-.14.06-.08.17.16.26.31.54.47.8.42.66.8,1.34,1.36,1.9.37.37.72.76,1.12,1.09.41.34.87.63,1.37.82.41.15.84.25,1.27.23.61-.03,1.18-.2,1.68-.56.14-.1.37-.13.41-.37-.11.02-.2.08-.29.13-.42.23-.87.4-1.35.37-.92-.05-1.73-.38-2.41-1.01-.82-.76-1.5-1.64-2.05-2.61-.04-.07-.12-.16.04-.17.44-.02.88-.11,1.33-.12.38,0,.75.07,1.13.08.32,0,.51.15.6.49.16.59.5,1.09.89,1.54.44.51,1.02.84,1.69.99.11.03.22.09.35.09-.03-.09-.1-.11-.16-.12-.45-.09-.76-.39-1.06-.7-.52-.51-.8-1.17-1.05-1.83-.02-.05-.07-.13,0-.18.06-.05.12,0,.18.03.7.34,1.23.86,1.66,1.5.15.22.28.45.45.71,0-.09,0-.14,0-.18-.11-.66-.22-1.32-.11-2,.06-.4.13-.8.31-1.17.03-.06.03-.14.11-.14.07,0,.09.09.12.14.07.16.14.32.2.48.16.38.18.79.22,1.19,0,0-.01.01-.01.01,0,.01,0,.02.01.03-.02.53-.1,1.06-.2,1.59.13-.15.23-.31.34-.47.44-.69.99-1.27,1.74-1.63.05-.02.11-.09.16-.05.06.04.03.12.01.18-.34,1.05-.88,1.94-1.91,2.44-.03.01-.08.01-.07.07.02,0,.04,0,.06,0,.03,0,.05,0,.08-.01.61-.12,1.11-.46,1.57-.85.2-.16.39-.35.51-.57.24-.44.44-.9.56-1.4.02-.1.09-.15.19-.17.14-.04.29,0,.42-.03.64-.14,1.28-.04,1.92,0,.13,0,.26.05.39.07.08.02.15.07.09.15-.06.08-.08.19-.14.27-.47.79-.99,1.55-1.67,2.17-.51.47-1.09.82-1.75,1.02-.74.22-1.48.2-2.17-.18-.06-.03-.13-.08-.21-.02.23.16.46.31.69.43.48.23.99.35,1.54.33.67-.03,1.28-.25,1.85-.59.76-.45,1.38-1.07,1.92-1.77Zm-7.01-3.42c-.25.59-.42,1.2-.44,1.85,0,.04.01.09-.03.1-.05.02-.08-.03-.11-.06-.41-.33-.81-.7-1.31-.89-.29-.11-.37-.29-.37-.57,0-.7-.02-1.41.04-2.11.03-.34.12-.68.2-1.06.42.33.77.67,1.08,1.05.28.34.55.69.83,1.02.18.21.21.41.1.66Zm3.43.58c-.01.17-.1.3-.27.37-.52.22-.97.55-1.38.95-.03.03-.05.06-.11.05-.05-.29-.05-.59-.13-.88-.1-.37-.24-.74-.39-1.09-.09-.22-.07-.38.07-.58.53-.72,1.12-1.38,1.81-1.95.04-.03.08-.11.14-.08.07.03.06.11.07.17.09.6.17,1.21.21,1.82.03.41,0,.82-.03,1.24Z"/>
    <path class="cls-1" d="m26.79,32.56c-.04-.29-.05-.58-.09-.86-.05-.37-.11-.74-.13-1.11-.03-.52-.12-1.03-.15-1.55-.03-.4-.1-.81-.12-1.22-.02-.23-.07-.31-.3-.32-.23,0-.47,0-.7,0-.17,0-.28.09-.32.25-.2.74-.4,1.48-.6,2.22-.16.6-.34,1.19-.47,1.79-.03.14-.05.29-.14.42-.07-.07-.08-.15-.1-.22-.24-.91-.48-1.83-.71-2.74-.13-.5-.26-1.01-.38-1.52-.02-.09-.04-.2-.17-.2-.3,0-.61,0-.91,0-.12,0-.21.07-.2.23.03.39-.07.78-.12,1.16-.06.43-.07.87-.14,1.31-.07.42-.06.85-.12,1.27-.11.65-.13,1.32-.22,1.97-.02.14-.06.27-.04.42.01.1.04.15.15.15.21,0,.43,0,.64,0,.16,0,.25-.12.23-.27,0-.03,0-.06,0-.09.04-.39.07-.77.1-1.16.05-.49.1-.97.14-1.46.02-.24.07-.48.08-.72,0-.23,0-.47.05-.7,0-.06-.02-.15.07-.15.07,0,.08.09.1.15.06.27.11.54.18.8.22.8.43,1.61.66,2.41.1.34.16.7.32,1.03.11.23.3.16.47.16.15,0,.26-.06.31-.23.25-.8.44-1.62.69-2.42.21-.68.35-1.37.52-2.06.02,0,.04,0,.05,0,.03.36.06.72.09,1.08.02.25,0,.51.05.75.11.6.11,1.2.19,1.8.04.27.06.55.08.82.02.18.11.27.29.26.19,0,.37,0,.56,0,.26,0,.29-.05.26-.31-.05-.38-.07-.76-.12-1.15Z"/>
    <path class="cls-1" d="m36.49,30.43c0-.28-.04-.56-.19-.81-.29-.49-.74-.72-1.29-.76-.4-.03-.79,0-1.19.03-.31.03-.59.11-.89.18-.2.05-.29.15-.28.38.02.7,0,1.41,0,2.11h0c0,.26,0,.53,0,.79,0,.47,0,.94,0,1.42,0,.25.02.26.27.26.22,0,.44,0,.66,0,.16,0,.21-.05.21-.21,0-1.14,0-2.29,0-3.43,0-.75,0-.73.75-.76.51-.02.79.3.8.8.01.82,0,1.64,0,2.46,0,.28,0,.56,0,.83,0,.21.09.29.3.3.12,0,.25,0,.37,0,.51,0,.5,0,.5-.49,0-1.03,0-2.07,0-3.1Z"/>
    <path class="cls-1" d="m45.82,28.9c-.21,0-.41,0-.62,0-.12,0-.2.04-.24.16-.07.2-.15.4-.2.6-.12.48-.24.95-.39,1.42-.15.5-.25,1.01-.39,1.55-.13-.25-.15-.5-.2-.73-.23-.96-.51-1.9-.7-2.87-.02-.1-.07-.13-.16-.13-.32,0-.63,0-.95-.01-.14,0-.16.06-.13.17.1.36.19.72.32,1.07.17.45.3.92.45,1.38.23.71.4,1.44.69,2.13.05.12.13.25.08.39-.09.25-.18.49-.28.73-.15.33-.25.68-.38,1.03-.06.17.02.23.17.24.17,0,.35,0,.52,0,.36,0,.4-.03.51-.37.19-.61.38-1.22.58-1.84.1-.32.2-.64.3-.96.21-.68.43-1.37.64-2.05.18-.56.37-1.11.55-1.67.06-.2.03-.24-.18-.25Z"/>
    <path class="cls-1" d="m31.61,30.43c-.15-.7-.51-1.25-1.2-1.48-.77-.26-1.51-.21-2.1.44-.22.24-.36.54-.47.85-.14.43-.2.88-.18,1.33.01.24.03.48.07.72.09.51.31.97.68,1.32.35.33.79.52,1.1.48.73-.02,1.21-.17,1.57-.59.26-.29.44-.64.53-1.01.08-.31.13-.64.11-.98-.02-.37-.05-.73-.12-1.09Zm-1.01,1.54c-.02.35-.11.67-.31.96-.27.4-.85.4-1.14.02-.19-.24-.24-.52-.28-.81-.04-.25-.06-.5-.05-.7,0-.48.02-.91.19-1.32.11-.26.26-.46.56-.49.37-.05.64.08.8.42.1.22.17.45.19.69.03.41.07.82.04,1.23Z"/>
    <path class="cls-1" d="m40.4,29.02c-.58-.25-1.18-.28-1.77-.05-.37.15-.64.41-.83.75-.34.58-.46,1.22-.4,1.88.04.44.05.9.27,1.31.23.42.52.78.98.95.46.17.92.3,1.42.23.36-.05.68-.18,1.01-.3.1-.03.16-.1.14-.22-.03-.16-.1-.31-.17-.46-.05-.1-.12-.11-.22-.07-.29.11-.59.2-.98.19-.13,0-.32,0-.51-.06-.52-.19-.73-.61-.84-1.12-.03-.16.02-.2.17-.21.74-.05,1.46-.21,2.2-.28.14-.01.27-.07.41-.11.09-.03.15-.09.15-.2,0-.47-.06-.93-.25-1.37-.16-.38-.41-.69-.77-.85Zm-.21,1.97c-.48.08-.95.16-1.43.23-.38.05-.37.04-.33-.34.03-.25.07-.49.17-.71.16-.36.43-.57.78-.59.45,0,.8.28.91.7.04.16.06.33.09.49.03.15-.06.2-.18.22Z"/>
    <path class="cls-1" d="m17.72,33.53c0-.12-.05-.18-.19-.18-.34,0-.68,0-1.03,0-.11,0-.14-.04-.14-.14,0-.39,0-.78,0-1.16,0-.14.05-.22.21-.21.18,0,.36,0,.54,0,.55,0,.44.09.46-.47,0-.12-.05-.15-.16-.15-.28,0-.56,0-.83,0-.14,0-.21-.07-.21-.2,0-.31,0-.62,0-.93,0-.14.07-.2.2-.21.23,0,.46-.01.7-.01.48,0,.47,0,.46-.47,0-.13-.04-.16-.17-.16-.63,0-1.27,0-1.9,0-.16,0-.19.06-.19.2,0,.7,0,1.41,0,2.11,0,.64,0,1.28,0,1.92q0,.55.54.55c.43,0,.85,0,1.28,0q.47,0,.44-.47s0-.01,0-.02Z"/>
    <path class="cls-1" d="m19.94,31.38c-.06-.06-.13-.03-.2-.04-.34,0-.67,0-1.01,0q-.42,0-.42.42c0,.26.02.3.29.27.26-.02.53-.02.79-.03.17,0,.39.07.51-.03.13-.11.03-.34.05-.52.03-.03.03-.06,0-.08Z"/>
  </g>
</svg>