<?xml version="1.0" encoding="UTF-8"?>
<svg id="Calque_1" data-name="Calque 1" xmlns="http://www.w3.org/2000/svg" viewBox="0 0 54 54">
  <defs>
    <style>
      .cls-1 {
        fill: #fff;
      }

      .cls-2 {
        fill: #1f3b71;
      }

      .cls-3 {
        fill: #94c11f;
      }
    </style>
  </defs>
  <path class="cls-2" d="m49.2,27c0,12.26-9.94,22.2-22.2,22.2S4.8,39.26,4.8,27,14.74,4.8,27,4.8s22.2,9.94,22.2,22.2Z"/>
  <g>
    <g>
      <path class="cls-3" d="m40.28,18.58c-.06-.04-.12-.08-.18-.12l-.07-.04c-1.06-.64-2.33-.85-3.54-.61-.84.17-1.63.56-2.28,1.13-.74.65-1.27,1.51-1.53,2.46,0,.01,0,.02,0,.04,0,.04,0,.08.03.12.01.02.03.04.05.05.02.01.05.02.07.02.02,0,.04,0,.07,0,.02,0,.04-.02.06-.03,0,0,.01-.01.02-.02.48-.48,1.09-.81,1.75-.94.56-.11,1.13-.09,1.68.08.45.13.87.36,1.23.67.09.11.19.21.31.3.24.19.53.31.83.37.28.05.56.04.83-.03.45-.12.85-.4,1.11-.79.26-.39.38-.86.32-1.32-.03-.26-.12-.51-.25-.74-.13-.23-.31-.42-.51-.58h0Z"/>
      <path class="cls-3" d="m19.37,35.56c-.06.04-.12.08-.18.12l-.07.04c-1.06.64-2.33.85-3.54.61-.84-.17-1.63-.56-2.28-1.13-.74-.65-1.28-1.51-1.53-2.46,0-.01,0-.02,0-.04,0-.02,0-.04,0-.06,0-.02.01-.04.02-.06.01-.02.03-.04.06-.05.02-.01.05-.02.07-.02.02,0,.04,0,.07,0,.02,0,.04.02.06.03l.02.02c.48.48,1.08.8,1.74.93.56.11,1.13.09,1.68-.08.45-.14.87-.36,1.23-.67.09-.11.19-.21.31-.3.24-.19.53-.31.83-.37.28-.05.56-.04.83.03.45.12.85.4,1.11.79.26.39.38.86.32,1.33-.03.26-.12.51-.25.74-.13.23-.31.42-.51.58h0Z"/>
      <path class="cls-1" d="m16.34,29.68s-.77.77-1.77.77c-.25,0-.5-.04-.73-.13-.23-.1-.44-.24-.62-.42-.33-.36-.51-.82-.5-1.31,0-1.06.76-1.84,1.8-1.84.58.01,1.14.24,1.57.64l.08.08.78-1.21-.04-.05s-.81-.96-2.46-.96c-.47-.01-.93.07-1.36.24-.43.17-.83.43-1.16.75-.61.63-.95,1.48-.94,2.35,0,.44.07.87.23,1.28.16.41.4.78.71,1.09.64.64,1.51.98,2.52.98,1.69,0,2.59-1,2.63-1.04l.04-.05-.69-1.26-.09.09Z"/>
      <path class="cls-1" d="m20.88,25.25c-.43,0-.86.07-1.26.23-.4.16-.77.4-1.07.71-.61.65-.93,1.52-.91,2.41,0,1.94,1.44,3.34,3.43,3.34.94,0,1.84-.31,2.56-.91l.05-.05-.68-1.27-.08.07s-.78.66-1.74.66c-.43,0-.85-.13-1.19-.4-.32-.27-.53-.66-.58-1.08h4.28v-.08s.04-.42.04-.61c0-.86-.25-1.61-.73-2.16-.51-.58-1.24-.89-2.12-.89h0Zm-.04,1.36c.65,0,1.08.42,1.14,1.12h-2.52c.17-.7.68-1.12,1.39-1.12h0Z"/>
      <path class="cls-1" d="m34.57,22.95h-1.72v1.59h1.72v-1.59Z"/>
      <path class="cls-1" d="m34.58,25.24h-1.73v6.7h1.73v-6.7Z"/>
      <path class="cls-1" d="m37.83,22.95h-1.72v1.59h1.72v-1.59Z"/>
      <path class="cls-1" d="m37.84,25.24h-1.73v6.7h1.73v-6.7Z"/>
      <path class="cls-1" d="m41.79,27.91c-.54-.22-1-.4-1-.69,0-.35.38-.47.7-.47.53,0,1.05.18,1.46.51l.09.08.66-1.31-.04-.04s-.73-.74-2.16-.74-2.46.77-2.46,1.92c0,1.25,1.11,1.7,1.99,2.07.55.23,1.03.42,1.03.74s-.37.47-.73.47c-.61-.02-1.18-.25-1.63-.66l-.08-.08-.81,1.23.05.05c.67.62,1.56.96,2.48.94,1.45,0,2.46-.8,2.46-1.95,0-1.26-1.12-1.72-2.02-2.08h0Z"/>
      <path class="cls-1" d="m26.48,22.95h-1.73v8.98h1.73v-8.98Z"/>
      <path class="cls-1" d="m31.77,30.36l-.11.02c-.09.02-.17.02-.26.02-.99,0-1.14-.68-1.14-1.08v-2.67h1.41v-1.41h-1.41v-1.79h-1.69v1.79h-.84v1.41h.81v2.87c0,.94.34,1.62,1.01,2.03.51.28,1.08.42,1.66.4.17,0,.33-.01.49-.04h.07v-1.55h0Z"/>
    </g>
    <g>
      <path class="cls-1" d="m30.96,37.9c-.34,0-.66-.06-.95-.17-.29-.11-.55-.27-.76-.48s-.38-.45-.5-.73-.18-.58-.18-.92.06-.64.18-.92.29-.52.51-.73c.22-.21.47-.37.76-.48.29-.11.61-.17.95-.17.38,0,.73.07,1.04.2.31.13.57.33.78.58l-.66.61c-.15-.17-.32-.3-.51-.39s-.39-.13-.61-.13c-.21,0-.4.03-.57.1-.17.07-.32.16-.45.29-.13.13-.22.28-.29.45-.07.17-.1.36-.1.58s.03.4.1.58c.07.17.17.32.29.45.13.13.28.22.45.29.17.07.36.1.57.1.22,0,.42-.04.61-.13s.35-.22.51-.4l.66.61c-.21.26-.47.45-.78.59-.31.13-.66.2-1.05.2Z"/>
      <path class="cls-1" d="m35.83,34.74c-.29-.24-.68-.37-1.2-.37-.27,0-.54.04-.8.11-.26.07-.49.17-.67.31l.35.69c.13-.1.27-.18.45-.23.18-.06.36-.09.54-.09.27,0,.46.06.59.18.13.11.19.28.19.49h-.78c-.35,0-.62.04-.84.13-.21.09-.37.21-.47.36-.1.15-.15.33-.15.53,0,.19.05.37.15.53.1.15.25.28.44.37.19.09.41.14.68.14.3,0,.55-.06.74-.17.13-.08.23-.18.3-.31v.43h.92v-1.94c0-.52-.14-.9-.43-1.14Zm-.84,2.36c-.13.07-.28.11-.45.11s-.31-.03-.41-.11c-.1-.07-.15-.17-.15-.3,0-.11.04-.21.13-.29.09-.07.25-.11.48-.11h.68v.35c-.06.15-.15.27-.29.35Z"/>
      <path class="cls-1" d="m38.17,37.88c-.29,0-.57-.03-.84-.1s-.48-.16-.64-.26l.33-.71c.16.1.34.18.55.24.21.06.42.09.63.09.23,0,.39-.03.48-.08s.14-.13.14-.23c0-.08-.04-.14-.11-.18-.07-.04-.17-.07-.29-.09s-.26-.04-.4-.06-.29-.05-.44-.09c-.15-.04-.28-.09-.4-.16-.12-.07-.22-.17-.29-.29s-.11-.28-.11-.47c0-.21.06-.4.19-.57.12-.16.3-.29.54-.39s.52-.14.85-.14c.23,0,.47.03.71.08.24.05.44.12.6.22l-.33.7c-.16-.1-.33-.16-.5-.2s-.33-.05-.48-.05c-.22,0-.38.03-.48.09-.1.06-.15.13-.15.23,0,.08.04.15.11.19.07.04.17.08.29.1.12.03.26.05.4.07.15.02.29.05.44.09s.28.09.4.16.22.16.29.28.11.28.11.47c0,.21-.06.4-.19.56-.13.16-.31.29-.55.38-.24.09-.53.14-.87.14Z"/>
      <path class="cls-1" d="m43.74,35.88v1.95h-.98v-1.8c0-.27-.06-.47-.18-.61-.13-.13-.29-.19-.51-.19-.15,0-.3.03-.42.09-.13.07-.22.17-.29.3-.07.14-.11.31-.11.52v1.68h-.98v-4.69h.98v1.65c.09-.09.19-.17.31-.23.23-.13.49-.19.78-.19.27,0,.51.05.72.16.21.11.38.27.5.5.13.22.19.5.19.84Z"/>
    </g>
    <g>
      <polygon class="cls-1" points="11.65 21.4 13.36 21.4 13.56 17.38 14.62 20.33 16.02 20.33 17.09 17.38 17.31 21.4 18.92 21.4 18.41 14.79 16.66 14.79 15.33 18.62 14.04 14.79 12.24 14.79 11.65 21.4"/>
      <path class="cls-1" d="m19.33,16.6h1.81l.9,2.76.78-2.76h1.73l-1.89,5.21s-.82,2.45-3.16,1.23l.52-1.19s1.12.59,1.33-.59l-2.03-4.66Z"/>
    </g>
  </g>
</svg>