<?xml version="1.0" encoding="UTF-8"?>
<svg id="Calque_1" data-name="Calque 1" xmlns="http://www.w3.org/2000/svg" viewBox="0 0 54 54">
  <defs>
    <style>
      .cls-1 {
        fill: #fbfcfc;
      }

      .cls-2 {
        fill: #1d5fa6;
      }

      .cls-3 {
        fill: #fff;
        fill-rule: evenodd;
      }
    </style>
  </defs>
  <path class="cls-3" d="m27,49.05c12.18,0,22.05-9.87,22.05-22.05S39.18,4.95,27,4.95,4.95,14.82,4.95,27s9.87,22.05,22.05,22.05Z"/>
  <path class="cls-2" d="m49.05,27c0,12.18-9.87,22.05-22.05,22.05S4.95,39.18,4.95,27,14.82,4.95,27,4.95s22.05,9.87,22.05,22.05Z"/>
  <g>
    <path class="cls-1" d="m42.31,26.74c-.03-.05-.09-.03-.14,0,0,0,0,0,0,0-.18,0-.36.02-.54.07-.01,0-.02,0-.04,0-.34,0-.68.03-1.01.13-.26,0-.51.07-.76.11-.43.06-.87.1-1.3.17-.17.01-.35-.04-.51.07-.06,0-.11.01-.17.02-.05-.02-.1-.03-.13.02-.04.07.04.08.07.1.07.06.12.14.22.15,0,0,0,0,0,0,.01.01.02.02.03.03,0,0,0,0,0,0,.01.01.02.02.03.03,0,0,0,0,0,0,.01.01.02.02.03.03,0,0,0,0,0,0,.01.01.02.02.03.03,0,0,0,0,0,0,.01.01.02.02.03.03,0,0,0,0,0,0,.01.01.02.02.03.03,0,0,0,0,0,0,.02.06.05.09.11.1,0,0,0,0,0,0,.01.01.02.02.03.04,0,0,0,0,0,0,.01.01.02.02.04.03,0,0,0,0,0,0,.01.01.02.02.04.04.06.06.12.12.18.18.01.02.03.04.04.05-.01-.02-.02-.04-.04-.05.06.21.11.43-.03.63-.05.07-.13.11-.15.19,0,0,0,0,0,0-.01.01-.02.02-.03.03,0,0,0,0,0,0-.08.01-.13.06-.17.12-.21.17-.41.36-.63.52-.64.45-1.29.9-1.99,1.27-.77.41-1.56.75-2.4.99-.43.12-.88.21-1.33.23-.32,0-.63,0-.95,0-.11,0-.21,0-.32-.01-.05-.07-.13-.03-.2-.06-.06-.02-.16-.1-.19-.02-.03.09.09.12.16.16.02.01.05,0,.07,0,0,0,0,0,0,0,0,.02.02.03.04.03.17.07.32.19.5.23.2.17.45.17.69.22.16.04.31.07.48.07.3.08.6.04.9.04.11,0,.23.03.33-.04.42-.03.83-.08,1.24-.18.19,0,.38,0,.54-.14.11-.02.22-.05.33-.07.34-.06.65-.21.97-.34.11-.05.24-.07.33-.17,0,0,0,0,0,0,.05,0,.1,0,.11-.06.51-.22.98-.51,1.45-.8.04,0,.06-.03.07-.06.03-.01.05-.03.08-.04.01-.01.02-.02.04-.03,0,0,0,0,0,0,.16-.06.3-.13.4-.28,0,0,.02-.01.02-.02.01-.01.03-.02.04-.03.04-.03.07-.05.11-.08l.02.02s0-.03.01-.04c0,0,0,0,0,0,.15-.04.26-.13.34-.26,0,0,.01,0,.02-.02.04-.01.07-.04.08-.08.08,0,.11-.09.18-.12.02,0,.04,0,.04-.03,0,0,0,0,0,0,.22-.09.43-.1.65,0,.09.07.17.14.26.21,0,.01.02.03.03.04,0,0,0,0,0,0,0,.02,0,.03.03.04,0,0,0,0,0,0,.01.01.02.02.04.03h0s.03.02.04.03h0s.01.04.04.04c0,0,0,0,0,0,0,.02.01.04.03.04,0,0,0,0,0,0,0,.04,0,.09.05.09.05,0,.05-.04.03-.07,0,0,0,0,0,0,.01,0,.04-.01.04-.03.17-.53.4-1.04.52-1.58h0s.02,0,.03-.01c0,0-.01-.02-.02-.03.05-.13.09-.26.14-.39.03-.01.06-.03.08-.07.11-.33.22-.65.3-.99,0,0,.01-.01.02-.02.05-.01.05-.05.04-.09-.03-.09.08-.13.08-.21.06-.07.11-.15.06-.24Z"/>
    <path class="cls-1" d="m35.72,17.31c.03.08.06.21.15.19.13-.04-.05-.13,0-.2,0,0,0-.01,0-.02-.05-.2-.09-.41-.28-.53,0,0,0,0,0,0-.01-.01-.02-.02-.03-.04,0,0,0,0,0,0-.01-.01-.02-.02-.03-.03,0,0,0,0,0,0-.01-.01-.02-.02-.03-.03,0,0,0,0,0,0-.01-.01-.02-.02-.03-.03,0,0,0,0,0,0-.01-.01-.02-.02-.03-.03,0,0,0,0,0,0,0-.02-.02-.03-.04-.03-.4-.37-.87-.6-1.42-.64-.02-.03-.04-.04-.07-.04-.41-.02-.81.01-1.19.14-.6.16-1.18.39-1.71.72-.37.23-.71.5-1.05.77-.07.03-.12.07-.14.14,0,0,0,0,0,0-.01.01-.02.02-.04.03,0,0,0,0,0,0-.01.01-.02.02-.03.03,0,0,0,0,0,0-.01,0-.02.02-.03.03,0,0,.01,0,.02,0,0,0,0,0-.02,0,0,0,0,0,0,0-.01,0-.02.02-.03.03,0,0,0,0,0,0-.09.02-.15.08-.18.17,0,0,0,0,0,0,0,0-.02.02-.03.03,0,0-.01.01-.01.01,0,0-.02.02-.02.02,0,0-.01.01-.01.01,0,0-.02.02-.03.03,0,0-.01.01-.01.01,0,0-.02.02-.02.02,0,0-.01.01-.01.01,0,0-.02.02-.02.03,0,0-.01.01-.01.01,0,0-.02.02-.03.03,0,0-.01.01-.01.01,0,0-.02.02-.03.03,0,0,0,0,0,0-.06.04-.13.07-.13.15-.01.01-.02.03-.04.04-.04,0-.07.03-.07.08,0,0,0,0,0,0-.02,0-.03.02-.03.04,0,0,0,0,0,0h0s-.03.01-.03.03c0,0,0,0,0,0-.09.04-.14.11-.16.2,0,0,0,0,0,0-.07,0-.1.04-.1.11,0,0,.02,0,.02,0,0,0-.02,0-.02,0-.08.1-.15.2-.23.3-.05.06-.1.12-.18.04-.11-.12-.28-.18-.41-.27-.09-.06-.16-.18-.3-.16,0,0-.02-.02-.02-.02,0,0-.01,0-.02,0-.03.16-.09.32-.06.48,0,.16-.07.31-.05.47-.06.03-.07.09-.07.15,0,.14,0,.28,0,.43-.04.19-.08.39-.07.59-.04.21-.14.4-.1.62,0,.06,0,.11,0,.17-.02.04-.05.09-.05.13-.05.27-.04.54-.11.8-.03.11.06.08.12.05,0,0,.02,0,.02,0h.01s.03-.03.04-.04c.25-.1.51-.18.75-.3.4-.19.83-.29,1.22-.5.29-.04.54-.16.79-.29.39-.15.77-.31,1.16-.46-.03-.06-.07-.09-.11-.12-.33-.21-.66-.43-1-.64-.09-.06-.13-.1-.05-.19.03-.01.04-.04.04-.07,0,0,0,0,0,0,.12-.08.2-.19.25-.32.07-.12.16-.23.26-.34,0-.01.02-.02.03-.03.01-.01.02-.03.03-.04.04-.01.08-.02.07-.07,0,0,0,0,0,0,.02,0,.03-.01.03-.04,0,0,0,0,0,0,.11-.08.22-.17.27-.3,0,0,0,0,0,0,0,0,.02-.02.02-.03,0,0,.01-.01.01-.01,0,0,.02-.02.03-.03,0,0,.01-.01.01-.01,0,0,.02-.02.03-.03,0,0,0,0,0,0,0,0,.02-.02.03-.03,0,0,0,0,0,0,0,0,.02-.02.03-.03,0,0,0,0,0,0,0,0,.02-.02.03-.03,0,0,0,0,0,0,0,0,.02-.02.03-.03,0,0,0,0,0,0,0,0,.02-.02.03-.03,0,0-.01,0-.02,0,0,0,0,0,.02,0,0,0,0,0,0,0,0,0,.02-.02.03-.03,0,0,0,0,0,0,0,0,.02-.02.03-.03,0,0,0,0,0,0,0,0,.02-.02.03-.03,0,0,0,0,0,0,0,0,.02-.02.03-.03,0,0,.01,0,.01,0,0,0,.02-.01.03-.02,0,0,0,0,.01-.02,0,0,.02-.02.02-.03,0,0,.01,0,.01,0,.12-.04.2-.13.27-.23,0,0,0,0,0,0,.05,0,.07-.02.07-.07,0,0,0,0,0,0,.01-.01.03-.02.04-.03h0s.03-.02.04-.03c.33-.27.68-.52,1.05-.72.39-.21.79-.36,1.22-.45.1.09.19,0,.29,0,.23,0,.46.06.69.08.24.1.48.21.66.41Z"/>
    <path class="cls-1" d="m28.64,27.62c.13,0,.11-.09.1-.16,0-.37-.01-.73-.02-1.1,0-.04,0-.09-.04-.11,0-.21-.09-.36-.3-.43-.18-.04-.36-.1-.51.08,0,0,0,0,0,0-.02,0-.03.01-.03.04,0,0,0,0,0,0-.02,0-.03.02-.03.04,0,0,0,0,0,0-.13,0-.16-.17-.29-.16,0,0,0,0,0,0-.14-.06-.27-.05-.4,0-.06.05-.17.05-.17.15,0,.15-.07.29-.04.44-.01.01-.03.02-.04.03-.12.37-.08.76-.06,1.14,0,0,.02.02.03.02.17.05.33.06.5,0,.05-.03.04-.07.04-.11,0-.33,0-.65-.04-.97,0-.18.01-.19.12-.18,0,.02.01.03.04.03,0,0,0,.01,0,.01-.02.28-.02.56,0,.84-.01.52-.04.42.4.43.02,0,.04,0,.05,0,.11.02.11-.06.11-.14,0-.33-.01-.66-.03-.98,0-.11.03-.16.14-.14,0,.14,0,.29,0,.43,0,.27-.05.54.03.8.14.06.29.02.43.03Z"/>
    <path class="cls-1" d="m29.63,28.32c-.31.07-.65.5-.63.88.02.46.27.71.62.88.4.2.99-.14,1.1-.6.14-.24.09-.58-.11-.8-.24-.34-.57-.44-.98-.36Zm.61.98c-.04.15-.2.28-.36.29-.16.01-.26-.08-.33-.2-.07-.12-.05-.24,0-.36.01-.03.03-.06.05-.09.05,0,.09-.03.1-.08h0s.02-.03.04-.02h0s0,0,0,0c.1,0,.19-.02.29.02.19.12.26.26.21.45Z"/>
    <path class="cls-1" d="m34.19,27.56s.04.07.05.02c.04-.15.03-.31,0-.46,0-.03-.04-.02-.06,0-.05-.04-.15,0-.17-.1.06-.27.02-.55.02-.83,0-.45.08-.39-.4-.4-.14,0-.18.04-.18.18,0,.31.02.63-.02.94-.01.09-.05.2.07.26.11.37.33.5.69.4Z"/>
    <path class="cls-1" d="m38.03,32.47c-.06-.02-.11.04-.14.09-.17.14-.36.24-.56.34-.2.09-.4.19-.56.36-.07.06-.04.14-.04.2,0,1.72,0,3.43,0,5.15,0,.17-.04.23-.22.23-3.88,0-7.75,0-11.63,0-.17,0-.22-.04-.22-.22,0-2.49,0-4.98,0-7.46,0-.05.03-.12-.04-.14-.06-.01-.1.04-.09.1-.18.22-.35.45-.55.64-.07.02-.12.07-.15.14-.01.01-.02.03-.03.04-.07,0-.11.04-.1.12h0s-.03.01-.03.04h0c-.14.13-.34.21-.34.47,0,1.96,0,3.91,0,5.87,0,.1,0,.21,0,.31.04.25.03.52.19.74,0,0,0,0,0,0-.01.09.02.17.09.22.07.16.14.33.26.47,0,.03,0,.06.03.07,0,0,.02.01.03.02.02.03.05.07.07.1.01.01.02.03.03.04,0,.07.02.11.1.11,0,0,0,0,0,0,0,0,.02.02.02.02,0,0,0,0,.01.01,0,0,.02.02.02.02,0,0,0,0,.01.01,0,.01,0,.02.02.02,0,0,0,.01.01.01,0,.03.02.04.05.05,0,0,.01.01.02.02.05.1.12.17.23.2h0c.13.14.28.24.47.29.45.2.91.37,1.42.32.1,0,.19,0,.29,0,2.75,0,5.5,0,8.24,0,.12,0,.24.04.35-.04.25,0,.48-.06.7-.15.29-.11.57-.25.81-.44.22-.11.38-.29.52-.49,0,0,0,0,0,0,.02,0,.03-.02.03-.04.06-.1.12-.21.19-.31.2-.3.34-.63.39-.99.02,0,.03-.02.02-.04,0-.03.01-.07.02-.1.05-.12.06-.24.06-.36,0-1.98,0-3.95,0-5.93,0-.05.03-.12-.04-.14Zm-8.14,7.61s0,.04,0,.06c0-.02,0-.04,0-.06Zm.81.79c-.05,0-.11,0-.16,0-.19-.1-.37-.21-.5-.37h0c0-.06-.03-.11-.07-.15,0-.02,0-.04-.01-.07,0-.1,0-.2,0-.3,0-.02,0-.04.01-.06.04-.02.05-.05.05-.09,0,0,0-.01,0-.02,0,0,0,0,0,0,.03-.03.06-.06.06-.11.19-.23.42-.39.72-.32.33.07.57.26.62.63.07.44-.26.85-.71.85Z"/>
    <path class="cls-1" d="m23.35,19.22c0,.11,0,.22,0,.33,0,.07.05.11.1.13.36.18.69.39,1.02.62.04.05.07.14.13.12.09-.02.03-.12.05-.19,0-.02,0-.04,0-.05,0-1.67,0-3.34,0-5.01,0-.08,0-.16,0-.23-.03.01-.05.03-.07.05.01-.02.03-.04.07-.05,0,0,0-.01.01-.02,0,0,0,.01-.01.02,4.02,0,8.04,0,12.05,0,0,0,0,0,0,0h0c0,.08,0,.14,0,.21,0,3.83,0,7.66,0,11.5,0,.06-.03.13.03.19.1.06.2.04.29,0,.28.03.54-.05.8-.1.03,0,.07,0,.1,0,.15.02.11-.1.11-.17,0-.66,0-1.33,0-1.99,0-3,0-5.99,0-8.99,0-.42-.08-.83-.28-1.21-.08-.24-.24-.43-.38-.64-.08-.15-.16-.29-.32-.36,0,0,0,0,0,0-.06-.1-.14-.17-.25-.22-.47-.3-.94-.57-1.52-.59-.1-.11-.24-.06-.36-.06-2.69,0-5.37,0-8.06,0-.23,0-.46-.01-.68.03-.31,0-.59.07-.88.18-.53.21-.99.51-1.33.97-.05,0-.07.04-.09.08-.37.52-.59,1.09-.59,1.74,0,1.19,0,2.38,0,3.56,0,.06-.02.12.04.17Zm4.9-5.87h0c.06,0,.09-.04.11-.1h0c.04-.08.12-.05.18-.05,1.44,0,2.88,0,4.32,0,.09,0,.19-.03.2.11.07.1.07.19,0,.29-.04.09-.13.1-.21.1-1.45,0-2.9,0-4.35,0-.06,0-.12.02-.15-.06-.13-.07-.11-.18-.1-.3Z"/>
    <path class="cls-1" d="m31.12,27.62c.16-.02.33.07.47-.05h0s.03-.03,0-.05c0-.03,0-.06,0-.1.07-.36.02-.73.02-1.09.08-.08.14-.03.2.03.03.04.04.08,0,.11-.18.09-.1.25-.12.38,0,.08.02.14.12.14.06,0,.1.03.11.09,0,.06-.06.08-.1.08-.12,0-.14.07-.13.16,0,.06,0,.12,0,.18,0,.08.03.12.11.13.17.01.51-.16.57-.3.07-.16,0-.5-.15-.61-.08-.06-.06-.09-.02-.17.14-.28.12-.63-.25-.69-.01-.04-.05-.05-.08-.05-.23,0-.47,0-.7,0-.11,0-.12.08-.12.16,0,.51,0,1.02,0,1.53,0,.05-.03.13.07.13Z"/>
    <path class="cls-1" d="m20.24,26.73c0-.62.03-1.24-.04-1.86-.01-.12.02-.25-.07-.36.03-.11-.03-.22-.03-.32-.04-.34-.1-.67-.22-.99,0,0,0-.02,0-.03-.08-.12-.5-.13-.59-.02,0,0,0,.01,0,.02.02.07.06.14.06.22.03.43.15.86.12,1.3-.04.2.03.39.03.59.02,1,.03,1.99-.14,2.98-.01.06,0,.12.04.17-.05.24-.07.48-.14.72-.15.47-.36.88-.83,1.11-.14.07-.27.07-.38-.01-.18-.14-.26-.34-.33-.55-.15-.55-.28-1.09-.33-1.66-.01-.15.02-.31-.06-.45,0-.06,0-.12,0-.18,0-.38.01-.77.02-1.15,0-.1-.05-.12-.13-.12-.15,0-.3,0-.45,0-.15,0-.18.06-.13.18,0,.02,0,.04,0,.06-.03.04-.02.08-.02.12.05.4.09.79.1,1.19,0,.21-.05.42.04.62-.02.26.07.51.11.76,0,.25.08.48.22.68.07.24.22.44.32.66.01.11.1.16.18.21h0s.01.04.03.04c0,0,0,0,0,0,0,.02.01.03.03.03,0,0,0,0,0,0,0,.02.01.03.04.03,0,0,0,0,0,0,.03.06.05.12.14.11.31.18.61.13.91-.03.19-.17.38-.34.58-.51.16-.19.26-.41.33-.65.16-.09.13-.26.18-.4h0s.05-.02.05-.04c.1-.36.21-.71.19-1.09.02-.04.04-.07.04-.12.03-.38.06-.76.08-1.14,0,0,0,0,0,0,0,0,0,0,0,0,.06-.03.06-.09.06-.14Z"/>
    <path class="cls-1" d="m33.1,25.82c-.16,0-.32-.04-.47.02-.04.02-.03.06-.03.1,0,.52,0,1.03,0,1.55,0,.04,0,.07.04.09.14.07.29.02.43.03.1.02.11-.04.11-.12,0-.52,0-1.04,0-1.57,0-.05.02-.12-.07-.11Z"/>
    <path class="cls-1" d="m35.21,26.36c.07,0,.16.01.19-.06.07-.15.05-.31.01-.46-.03-.12-.17-.06-.25-.05-.13,0-.27-.06-.39.06-.21.03-.32.18-.39.36-.01.33-.02.66-.03.99,0,.02.04.04.06.06,0,0,0,0,0,0,0,.04,0,.08.04.11.08.15.23.17.37.14.18-.05.36,0,.54-.07.12,0,.07-.08.06-.14,0-.02,0-.04,0-.06.04-.11,0-.16-.11-.16-.12,0-.25,0-.37,0h0s-.1-.05-.04-.11c.03-.03.05-.08.11-.06.08.04.18,0,.27.02.06,0,.1-.02.12-.08.07-.24,0-.34-.26-.34-.02,0-.05,0-.07,0-.14,0-.13-.07-.06-.15.07,0,.14,0,.22,0Z"/>
    <path class="cls-1" d="m26.14,26.7c.03-.13.1-.25.07-.38.05-.18.07-.36.07-.54.03-.02.04-.04.04-.08,0-.38.04-.75-.06-1.12,0-.02,0-.04,0-.06.02-.16-.03-.3-.08-.44-.02-.03-.05-.06-.04-.11,0-.32-.12-.61-.28-.88-.09-.18-.18-.36-.27-.53-.04-.15-.12-.27-.24-.37h0c0-.06-.03-.09-.08-.1-.13-.16-.27-.32-.4-.47-.08-.17-.22-.28-.38-.38,0,0,0,0,0,0,0,0-.02-.02-.03-.03,0,0,0,0,0,0-.02-.06-.05-.09-.12-.09-.05-.04-.11-.08-.16-.12-.46-.36-.97-.65-1.51-.88-.53-.22-1.07-.39-1.63-.5-.03-.04-.07-.03-.12-.02-.02,0-.05,0-.07-.01-.14-.05-.28-.09-.44-.07-.27-.07-.55-.08-.83-.08-.02-.05-.05-.06-.1-.06-.17,0-.33,0-.5-.01-.04,0-.09,0-.11.04,0,.02,0,.05,0,.07.04.05.08,0,.13,0,.53.15,1.04.35,1.53.61.36.19.7.41,1.03.64.05.08.11.16.21.17,0,0,0,0,0,0,.03.07.08.12.15.13,0,0,0,0,0,0,.17.19.35.38.54.55.49.58.87,1.21,1.12,1.93,0,.04,0,.08.04.1,0,0,0,0,0,0,.05.29.11.57.16.86.14.82.07,1.63-.07,2.43,0,.31-.12.6-.2.9-.22.75-.59,1.43-.97,2.11-.22.38-.5.73-.75,1.09-.11.01-.13.09-.14.18,0,0,0,0,0,0-.02,0-.03.01-.03.03,0,0,0,0,0,0-.08.03-.12.1-.15.17-.1.11-.19.23-.29.34,0,0-.02.02-.02.03,0,0,0,.01,0,.01-.05,0-.05.04-.06.07,0,0,0,0,0,0,0,0-.02.02-.03.03,0,0,0,0,0,0,0,.01-.02.02-.03.03,0,0,0,0,0,0-.01.01-.02.02-.03.03,0,0,0,0,0,0,0,.01-.02.02-.03.03,0,0,0,0,0,0-.01.01-.02.02-.03.03,0,0,0,0,0,0-.01.01-.02.02-.03.03,0,0,0,0,0,0-.01.01-.02.02-.03.03,0,0,0,0,0,0-.04,0-.06.03-.07.07,0,0,0,0,0,0-.01.01-.02.02-.03.03,0,0,0,0,0,0-.13.07-.22.17-.29.29,0,0,0,0,0,0-.01.01-.02.02-.04.04,0,0,0,0,0,0-.01.01-.02.02-.04.04,0,0,0,0,0,0-.01.01-.02.02-.04.03,0,0,0,0,0,0-.01.01-.02.02-.04.03,0,0,0,0,0,0-.01.01-.02.02-.04.03,0,0,0,0,0,0-.01.01-.02.02-.03.03,0,0,0,0,0,0-.01.01-.02.02-.03.03,0,0,0,0,0,0-.01.01-.02.02-.03.03,0,0,0,0,0,0-.07,0-.12.03-.14.1-.29.3-.62.55-.95.81-.88.7-1.83,1.28-2.83,1.79-.22.11-.47.19-.68.35.04.01.06.02.07.02,1.17-.26,2.3-.63,3.36-1.19.59-.31,1.16-.63,1.7-1.02.47-.34.95-.67,1.38-1.08.13,0,.18-.11.24-.19,0,0,0,0,0,0,.04,0,.07-.03.07-.07h0s.04-.01.04-.04h0c.08-.02.13-.06.15-.14,0,0,0,0,0,0,.01-.01.02-.02.04-.03,0,0,0,0,0,0,.06-.01.1-.05.11-.11,0,0,0,0,0,0,.01-.01.02-.02.03-.03,0,0,0,0,0,0,.01-.01.02-.02.03-.03,0,0,0,0,0,0,.01,0,.02-.02.03-.03,0,0,0,0,0,0,.01-.01.02-.02.03-.03,0,0-.01,0-.02,0,0,0,0,0,.02,0,0,0,0,0,0,0,.01-.01.02-.02.03-.03,0,0,0,0,0,0,0,0,.02-.02.03-.03,0,0,0,0,0,0,0-.01.02-.02.03-.03,0,0,0,0,0,0,0-.01.02-.02.03-.03,0,0,0,0,0,0,.01-.01.02-.02.03-.03,0,0,0,0,0,0,.01,0,.02-.02.03-.03-.01,0-.02,0-.03,0,0,0,.01,0,.03,0,0,0,0,0,0,0,0-.01.02-.02.03-.03,0,0,0,0,0,0,.01-.01.02-.02.03-.03,0,0,0,0,0,0,.05,0,.06-.03.06-.08,1.04-1.11,1.93-2.33,2.54-3.73.17-.34.31-.7.39-1.07Z"/>
    <path class="cls-1" d="m19.29,30.31c-.19.17-.38.34-.58.51.26-.09.43-.29.58-.51Z"/>
    <path class="cls-1" d="m14.64,27.08c.09,0,.21,0,.27-.1.02,0,.05,0,.07,0,.15-.05.31-.08.46-.14.12-.05.26-.1.35-.21.01-.01.03-.02.04-.04.05,0,.08-.03.06-.08-.02-.05-.07-.03-.11-.03-.14-.06-.29-.11-.41-.19-.09-.06-.15-.07-.26-.04-.38.12-.77.2-1.17.23-.15,0-.3-.01-.45,0-.11,0-.24-.04-.34.04,0,0,0,0,0,0-.08.03-.05.09-.05.14,0,1.35,0,2.7,0,4.05,0,.05-.02.11.05.14,0,0,0,0,0,0,0,.02,0,.03.03.03.04.07.12.06.18.09.37.21.77.34,1.19.39.28.12.56.07.84.03.09,0,.14-.06.15-.15,0-.21.04-.42-.05-.63,0,0,0-.01-.02-.02-.24-.07-.49-.03-.74-.04-.19-.03-.38-.03-.56-.1-.12-.05-.3.02-.36-.16,0-.07.02-.13.02-.2,0-.42,0-.83,0-1.25,0,0,0,0,0,0h.02s.01-.01.01-.01c0,0-.01-.01-.01-.01,0,0,0,0,.01.01.02,0,.05,0,.07,0,0,0,.02.02.03.02.44,0,.89.01,1.33.02.04,0,.08,0,.08-.05,0-.15,0-.3,0-.45,0-.05-.06-.06-.1-.06-.45,0-.9-.02-1.35.02-.03-.01-.06-.03-.08-.04.04-.41,0-.82.02-1.23.26,0,.52,0,.78,0Z"/>
    <path class="cls-1" d="m32.44,28.77s-.01-.1-.06-.13c-.05-.08-.1-.17-.18-.22-.12-.17-.47-.2-.69-.06-.03.02-.06.04-.09.06-.01.01-.02.02-.03.04h0s0,0,0,0c-.01.01-.02.02-.03.04,0,0,0,0,0,0-.13.06-.18.16-.17.3,0,.31,0,.62,0,.92,0,.43-.07.37.39.37.12,0,.16-.03.16-.15,0-.36,0-.72,0-1.08.06-.06.12-.04.18,0,0,.35,0,.7,0,1.04,0,.06-.04.13.05.17.12,0,.24,0,.35,0,.11,0,.14-.04.13-.14.04-.39.02-.79,0-1.19Z"/>
    <path class="cls-1" d="m32.97,29.72c.01.19.15.26.32.3.19.11.42.1.6.03.12-.05.03-.25.05-.38,0-.02,0-.04,0-.05,0-.07-.06-.06-.11-.06h-.36s0-.02-.02-.02c0,0-.01,0-.01,0,0-.01,0-.02-.02-.02,0-.02,0-.05,0-.07.1,0,.2,0,.3,0,.07,0,.14-.03.16-.09.02-.11.06-.25-.02-.34-.07-.07-.19-.06-.29,0-.01,0-.02,0-.03,0,0-.02-.02-.03-.04-.03q-.03-.11.07-.12.33-.03.32-.37s0-.08,0-.13c-.19-.08-.37-.07-.56,0,0,0,0,0,0,0-.01,0-.03,0-.04,0-.16.04-.28.12-.32.29-.03.02-.05.04-.05.08,0,.26,0,.53,0,.79,0,.07-.03.15.04.2Z"/>
    <path class="cls-1" d="m12.77,30.21c-.11-.04-.21-.1-.27-.21-.17-.36-.32-.73-.39-1.13-.03-.27-.05-.54-.16-.8,0-.02,0-.05,0-.07-.01-.38-.02-.75-.03-1.13,0-.13.05-.16.17-.11.2.09.38.21.59.27.13.04.12-.03.11-.1,0-.07-.06-.1-.11-.13-.22-.11-.43-.22-.64-.34-.1-.14-.02-.28,0-.41.05-.3.13-.59.2-.89.03-.2.13-.38.19-.57.13-.1.18-.25.21-.4.18-.31.38-.61.58-.9.16-.23.3-.3.55-.22.02,0,.05,0,.07,0,.13.09.29.06.44.1.06.01.12-.01.18.03-.11.16-.22.32-.33.48-.06.03-.07.08-.08.14,0,0,0,0,0,0-.14.07-.16.21-.2.34,0,.01,0,.02,0,.03-.05.02-.06.07-.07.11-.03.06-.05.12-.08.18-.08.02-.07.08-.08.14,0,0,0,0,0,0-.1.13-.18.28-.21.44.02.1-.07.16-.08.25-.12.15-.15.33-.17.51-.01.09-.03.19-.04.28,0,.05-.02.14.06.13.05,0,.13,0,.15-.11.04-.15.05-.3.1-.44.12-.39.26-.77.44-1.13,0,0,.01,0,.01-.02,0,0,0-.02,0-.02,0-.01.01-.03.02-.04,0,0,0,0,0,0,.04-.02.04-.06.05-.09,0,0,0-.01,0-.01,0-.01,0-.03.01-.04,0,0,0,0,0,0,.04-.01.04-.05.05-.08,0,0,.01-.01.01-.01.03,0,.05-.02.04-.05,0-.15.15-.22.19-.36,0-.01.02-.03.03-.04h0s.03-.02.03-.04c0,0,0,0,0,0,.07-.02.08-.07.09-.13,0,0,0,0,0,0,.04,0,.06-.04.06-.08,0,0,0,0,0,0,.02,0,.03-.01.03-.04.1-.18.22-.32.46-.22.03.01.07,0,.11,0,.15.01.29,0,.45.03.27.06.55.09.83.11.19.01.2.02.13.21-.08.2-.15.4-.22.6-.1.17-.18.35-.18.55-.06.25-.13.5-.19.75-.12.15-.09.34-.13.52-.03.1.02.15.11.17.09.02.1-.06.11-.13,0-.05.02-.1.04-.15.15-.32.19-.68.29-1.01,0,0-.02-.03-.03-.04.13-.44.28-.88.45-1.31.03-.07.05-.14.14-.13.57.04,1.14.02,1.7.01.03,0,.06,0,.08-.04.08,0,.17,0,.25,0,.05,0,.14.02.12-.05-.02-.05-.01-.15-.11-.16-.08,0-.17,0-.25,0-.56,0-1.12,0-1.67,0-.05-.01-.14,0-.08-.1.02-.04.03-.09.05-.13.19-.24.29-.52.39-.8,0,0,0,0,0,0,.05-.02.05-.06.05-.1,0,0,0,0,0,0,.07-.02.07-.09.07-.14.17-.3.34-.61.5-.91.07-.02.1-.08.1-.15,0,0,0,0,0,0,.05-.01.04-.05.05-.09,0,0,0,0,0,0,.02-.03.04-.05.05-.08h0s.04-.01.03-.04c0,0,0,0,0,0,.16,0,.32,0,.48,0,.29.42.53.87.73,1.34,0,.06,0,.11.07.14,0,0,0,0,0,0-.01.1.03.18.1.25.09.1.06.23.14.34.06.08.13.08.19.06.07-.02.03-.09,0-.14-.02-.05-.03-.1-.05-.15-.23-.57-.5-1.12-.8-1.66.02-.08-.12-.13-.03-.22.02,0,.04,0,.06,0,.1.12.22.04.34.06.2,0,.39.06.59.1.35.08.56.35.82.56.01,0,.03.02.04.03,0,0,0,0,0,0,0,.02.01.03.04.03h0s.01.03.04.03c0,0,0,0,0,0,0,.02.01.03.03.03,0,0,0,0,0,0,0,.02.01.03.03.03,0,0,0,0,0,0,0,.02.01.03.03.03,0,0,0,0,0,0,0,.02.01.03.03.04,0,0,0,0,0,0,0,.02.01.03.04.03,0,0,0,0,0,0,0,.02.01.03.03.03,0,0,0,0,0,0,0,.02.01.03.03.03,0,0,0,0,0,0,0,.02.01.03.03.03,0,0,0,0,0,0,0,.02.01.03.03.03,0,0,0,0,0,0,0,.02,0,.03.03.04,0,0,0,0,0,0,0,.02.01.03.03.04,0,0,0,0,0,0,0,.01.02.03.03.04,0,0,0,0,0,0,.01.01.02.03.03.04.13.13.24.28.36.42.06.07.07.11-.03.16-.27.14-.54.25-.83.33-.28.02-.53.13-.81.18-.09.02-.08.09-.01.15,0,0,0,0,0,0,0,.08.04.11.11.09.1-.03.21-.03.3-.1.07-.02.14-.03.21-.05.27-.02.52-.12.76-.24.09-.02.17-.07.25-.12.13-.09.26-.1.36.06.1.16.2.33.3.49.14.28.25.58.43.84,0,0,0,0,0,0,.01.01.02.03.03.04,0,.06.06.11.04.17h0c.03.21.08.41.17.59.02.03.04.07.08.04.03-.02.02-.05.01-.08-.05-.31-.1-.61-.19-.91-.02-.06-.01-.12-.09-.15,0-.05,0-.1-.02-.14-.2-.29-.32-.63-.53-.91,0-.05.02-.12-.07-.09,0,.01,0,.02,0,.03,0,0,0-.02,0-.03,0-.01,0-.03-.01-.04,0-.06-.03-.1,0-.17.03-.07-.02-.09-.08-.09-.01-.01-.02-.03-.03-.04-.02-.06-.07-.03-.11-.04,0,0,0,0,0,0-.01-.01-.02-.02-.03-.03,0,0,0,0,0,0,0-.05-.02-.07-.06-.08,0,0,0,0,0,0,0-.01-.02-.02-.03-.04,0,0,0,0,0,0,0-.01-.02-.02-.03-.03,0,0,0,0,0,0,0-.06-.03-.08-.08-.09-.04-.05-.08-.09-.12-.14,0-.05-.02-.07-.06-.08h0s0-.04-.03-.04c0,0,0,0,0,0-.01-.01-.02-.02-.03-.03,0,0,0,0,0,0-.01-.01-.02-.02-.03-.03,0,0,0,0,0,0-.01-.01-.02-.02-.03-.03,0,0,0,0,0,0-.01-.01-.02-.02-.03-.04,0,0,0,0,0,0-.01-.01-.02-.02-.03-.03,0,0,0,0,0,0-.01-.01-.02-.02-.03-.04-.01-.01-.03-.03-.04-.04,0-.01-.02-.02-.03-.03,0,0,0,0,0,0,0-.06-.05-.1-.11-.1,0,0,0,0,0,0-.01-.01-.02-.02-.03-.03,0,0,0,0,0,0-.01-.01-.02-.02-.03-.03,0,0,0,0,0,0-.01-.01-.02-.02-.03-.03,0,0,0,0,0,0-.01-.01-.02-.02-.04-.03,0,0,0,0,0,0-.01-.01-.02-.02-.04-.03,0,0,0,0,0,0,0-.02-.02-.03-.04-.03-.22-.16-.45-.29-.69-.43-.16-.09-.31-.21-.51-.23-.03-.06-.09-.05-.14-.06-.54-.09-1.09-.1-1.64-.08-.05,0-.08.01-.1.06-.49.04-.97.11-1.44.27-.18,0-.33.08-.47.17,0,0,0,0,0,0-.06-.01-.11,0-.15.06h0c-.08,0-.15.02-.21.08-.32.19-.67.34-.98.57-.25.18-.48.38-.73.56-.02,0-.03.01-.02.03,0,0,0,0-.01.01-.02,0-.03,0-.02.02,0,0-.01.01-.01.01-.02,0-.03,0-.02.02,0,0,0,0-.01.01-.02,0-.03,0-.02.02,0,0-.01.01-.01.01-.02,0-.03,0-.03.02,0,0-.01.01-.01.01-.02,0-.03,0-.03.03,0,0-.01.01-.01.01-.02,0-.03,0-.02.03,0,0-.01.01-.01.01-.02,0-.03,0-.02.02,0,0,0,.01,0,.01-.04,0-.07.02-.07.07,0,0,0,0,0,0-.02,0-.03,0-.02.03,0,0,0,0-.01.01-.02,0-.03,0-.02.02,0,0-.01,0-.02.02-.06,0-.08.03-.08.09-.06.07-.12.14-.19.21-.04.01-.07.03-.06.08,0,0,0,0,0,0-.08.03-.11.09-.12.17,0,0,0,0,0,0-.01.01-.02.03-.03.04h0s-.07.03-.07.08c-.12.18-.24.36-.35.55-.22.38-.42.76-.53,1.18-.13.08-.1.21-.11.33,0,0,0,0,0,0-.05.04-.04.11-.05.17,0,0,0,.01,0,.01-.03.03-.03.06-.03.1-.09.39-.16.77-.2,1.17-.03.58-.04,1.16.09,1.74.01.07,0,.15.09.19.03.28.13.54.21.8-.01.16.08.27.15.4.17.36.34.72.58,1.04.03-.14.04-.26.02-.39.08-.17.06-.3-.06-.36Zm10.27-5.85s-.01,0-.02.01h0s.01,0,.02-.01Zm-5.1-3.68c.06.07-.03.1-.06.15-.07.13-.16.26-.24.39h0s-.01.04-.02.05h0s0,.01,0,.01c0,.01-.01.03-.02.04h0s-.03.02-.03.04h0c-.01.07-.03.14-.07.19.04-.06.05-.12.07-.19-.09.07-.14.17-.15.28h0s-.03.02-.02.04h0s0,.06-.02.08c.02-.02.02-.05.02-.08-.05.01-.05.05-.05.1h0s-.03.02-.02.04h0s0,.07-.02.09c.02-.02.03-.05.02-.08-.04.02-.07.05-.07.1.01.08-.08.1-.08.18-.02.03-.06.06-.04.11h0s0,0,0,0c-.1.12-.17.26-.21.4-.06.15-.11.3-.18.44-.04.09-.11.12-.24.12-.34-.02-.68-.06-1.02-.09-.16-.01-.32-.05-.47-.07-.05,0-.05-.04-.05-.08,0,0,0-.01,0-.02,0,0,0,.01,0,.02.01-.01.02-.03.04-.04h0s.02-.03.03-.04h0s.02-.02.04-.04h0s.02-.03.03-.04h0s.02-.03.03-.04h0s.02-.03.03-.04h0s.02-.03.03-.04h0s.02-.03.02-.04h0c.01-.07.04-.12.09-.15-.05.03-.08.08-.09.14.09-.02.13-.09.15-.17h0s0,0,0,0c.03,0,.05-.02.05-.05h.01s0-.01,0-.01c.01,0,.02,0,.02-.02,0,0,0,0,.01-.01,0,0,0,0,0,0,.01,0,.02,0,.02-.02,0,0,0,0,.01-.01,0,0,0,0,0,0,.01,0,.02,0,.02-.02,0,0,0,0,.01-.01,0,0,0,0,0,0,.01,0,.02,0,.02-.02,0,0,0,0,.01-.01,0,0,0,0,0,0,.01,0,.02,0,.02-.02,0,0,0,0,.01-.01,0,0,0,0,0,0,.01,0,.02,0,.02-.02,0,0,0,0,.01-.01,0,0,0,0,0,0,.01,0,.02,0,.02-.02h.01s0-.01,0-.01c.03,0,.05-.02.05-.05h0s.05-.03.04-.06c.24-.2.49-.4.73-.59.38-.3.78-.58,1.22-.79.06-.03.14-.06.2,0Zm-4.02,1.78s-.06.06-.08.09c.02-.03.05-.06.08-.09Zm-.2.23s.05-.05.07-.08h0c.12-.03.19-.12.24-.22h0s.02-.03.03-.03h0s.02-.03.03-.04h0s.02-.06.04-.07c-.03,0-.04.03-.04.06.04,0,.07-.02.07-.07h0s.02-.02.03-.04h0s.03-.02.04-.03h0s0-.02.01-.02c0,0-.01.01-.01.02.01,0,.03-.02.04-.03.55-.48,1.18-.83,1.86-1.09.23-.09.47-.15.7-.24.05-.02.08-.02.1.02.02.04-.03.05-.06.07-.44.28-.83.61-1.23.95h0s-.09.05-.1.11h-.01s-.02.03-.02.03h-.01s-.02.03-.03.04h-.01s-.02.03-.03.04h0s-.02.03-.03.04h0s-.02.03-.03.04h0s-.02.03-.03.04h0s-.02.03-.03.04h0s-.02.03-.03.04h0s-.02.03-.03.04h0s-.02.03-.03.04h-.01s-.02.03-.02.04h-.01s-.02.03-.02.04c0,0-.01,0-.01.01,0,.01,0,.02-.01.02,0,0,.01,0,.01-.02-.02,0-.03,0-.02.02,0,0,0,0-.01.01,0,0-.02.02-.02.02,0,0,0,0-.01.01,0,.01,0,.02-.01.02,0,0,.01,0,.01-.02-.02,0-.03,0-.02.02h-.01s-.02.08-.04.1c.02-.02.04-.06.04-.09-.06.02-.1.06-.12.13-.05.1-.15.15-.2.25-.08.12-.21.04-.31.03-.05,0-.11-.02-.17-.03-.12-.09-.27-.07-.41-.1-.08-.02-.12-.04-.11-.12Z"/>
    <path class="cls-1" d="m30.83,26.64c-.02-.14,0-.29-.14-.4-.2-.38-.74-.56-1.13-.42-.35.13-.62.54-.62.92,0,.48.55,1.09,1.21.88.36-.11.55-.39.67-.73,0-.09.02-.18,0-.27Zm-.6.22c-.08.28-.44.34-.64.11,0-.02,0-.05-.04-.05,0,0,0-.01-.01-.02,0-.01,0-.02-.01-.04h0s0,0,0,0c0-.01-.01-.03-.02-.04-.03-.22.03-.39.23-.5.17-.09.31-.01.43.1.13.12.12.29.07.43Z"/>
    <path class="cls-1" d="m16.14,33.65s0,0,0,0c.13.11.28.16.44.17.25.05.51.09.76.15.18.04.3-.07.38-.17.07-.09-.1-.16-.16-.25-.01-.02-.03-.04-.04-.06,0-.03,0-.05,0-.08,0,0,.01-.01.01-.01.09,0,.18.02.27.01.18-.01.36.05.53-.04.06-.04.13-.08.19-.12,0,.02,0,.02,0,0,0,0,.01,0,.01,0,.04,0,.07-.02.07-.06,0-.04-.04-.05-.08-.05-.39.05-.78,0-1.17.02,0,0,0,0,0,0,0-.02-.02-.03-.04-.02,0,0,0,0,0,0,0-.02,0-.03-.03-.03,0,0,0,0,0,0,0-.05-.01-.07-.06-.08,0,0,0,0,0,0,0-.05-.02-.09-.08-.1-.07-.13-.15-.26-.22-.4,0-.03,0-.04-.03-.04h0s0-.07-.05-.08c0,0,0-.01-.01-.02-.02-.04,0-.11-.06-.13,0,0-.01-.01-.01-.01-.01-.03,0-.07-.05-.09h0c0-.06-.02-.11-.07-.15h0s0-.08-.04-.1c0,0,0,0,0,0,0-.04,0-.07,0-.11.28.03.55.05.83.08.03.07.09.07.15.07.52.03,1.04.04,1.57.03.07,0,.14,0,.21-.04.26.03.5-.06.76-.07.06.01.08,0,.08-.06,0,0,0,0,0,0,.01-.01.02-.02.03-.04,0,0,0,0,0,0,.01-.01.02-.02.03-.04h0c.06-.04.12-.07.14-.15.11-.13.17-.27.19-.44.03-.29.11-.57.17-.86.05-.02.05-.07.06-.12.11-.72.18-1.45.16-2.19,0-.12.03-.19.15-.23.39-.11.77-.22,1.16-.33.17-.05.34-.1.5-.19.08-.07.21-.07.23-.21.04-.04.08-.09.04-.13-.04-.04-.1-.02-.12.05-.19.04-.35.12-.53.19-.44.15-.89.29-1.35.41-.09-.03-.07-.11-.08-.18-.01-.14.02-.28-.04-.41,0-.5-.13-.99-.2-1.49-.05-.31-.11-.62-.16-.94-.12-.38-.12-.8-.36-1.18-.04.11-.04.18-.02.24.13.42.18.85.22,1.29.02.2,0,.42.13.6.01.11.03.22.04.32,0,.09-.03.2,0,.28.05.15-.03.32.1.45,0,.11,0,.21,0,.32-.03.15-.05.31-.02.46.06.25.05.26-.17.36-.11.01-.12.09-.11.17.02.09.1.05.15.05.06,0,.12,0,.18,0-.01.36-.03.73-.04,1.09-.02.21.02.41-.04.62-.08.63-.22,1.24-.38,1.85-.02.09-.04.17-.16.18-.61.08-1.22.13-1.83.1-.07,0-.14-.03-.2.03-.47-.01-.93-.09-1.38-.19-.11-.02-.26.01-.3-.11-.04-.11-.11-.21-.09-.34,0-.02,0-.04-.03-.04,0,0,0,0,0,0-.11-.4-.18-.81-.27-1.21-.05-.24-.05-.49-.15-.72,0-.12,0-.24-.01-.36,0-.25,0-.5.01-.75.08,0,.17-.03.24.02.09.04.17.08.27.06.07,0,.13-.01.13-.1,0-.08-.01-.14-.1-.16-.05-.01-.1-.02-.16,0-.05,0-.09,0-.14-.01-.06-.06-.14-.02-.22-.04h0s0-.06-.04-.07c0-.02,0-.05,0-.07.07-.1.03-.22.03-.33,0-.1,0-.21.01-.31,0-.04.04-.08,0-.11-.04-.04-.09,0-.13.03-.05.03-.08.07-.1.12-.06.15-.03.31-.04.46,0,.21-.06.25-.27.2-.36-.1-.72-.19-1.07-.28-.05-.01-.12-.09-.14.01-.02.08-.03.18.09.2.31.06.62.16.93.23.18.04.42,0,.51.24-.04.41-.02.82-.02,1.23,0,.29.05.57.15.84.1.36.2.71.3,1.07.01.05.07.09.03.14-.05.05-.1.03-.16,0-.04-.02-.11-.05-.13.03-.01.06-.02.14.07.16.05.02.1.03.15.04.18.02.26.14.32.29.15.38.37.72.56,1.07.03.05.08.09.05.14-.03.05-.09.02-.13.02-.08-.07-.17-.03-.25-.04-.03,0-.06,0-.09,0,0,0,0,0,0,0,0,0-.01,0-.01,0-.11-.06-.22-.02-.33-.02-.22-.06-.45-.07-.68-.11-.21-.03-.4-.06-.52-.27-.19-.35-.4-.69-.6-1.04,0-.05-.01-.08-.07-.08,0,0,0,0,0,0-.03-.06-.1-.05-.15-.07-.04-.01-.07,0-.09.03-.02.05,0,.08.05.09h0s0,.04.03.04c0,0,0,0,0,0,0,.06.02.11.07.14.07.18.19.35.29.51.02.03.06.05.02.09-.04.03-.07,0-.11-.02-.08-.07-.16-.13-.23-.19,0-.01-.02-.03-.03-.04,0,0,0,0,0,0-.01-.01-.02-.02-.04-.03,0,0,0,0,0,0-.01-.01-.02-.02-.04-.03,0,0,0,0,0,0-.01-.01-.02-.02-.04-.03,0,0,0,0,0,0-.01-.01-.02-.02-.04-.03,0,0,0,0,0,0-.01-.01-.02-.02-.03-.04,0,0,0,0,0,0-.01-.01-.02-.02-.04-.03,0,0,0,0,0,0-.01-.01-.02-.02-.04-.04,0,0,0,0,0,0-.01-.01-.02-.02-.04-.04,0,0,0,0,0,0-.01-.01-.02-.02-.03-.04,0,0,0,0,0,0-.01-.01-.02-.02-.03-.04,0,0,0,0,0,0-.01-.01-.02-.02-.03-.04,0,0,0,0,0,0-.01-.01-.02-.02-.03-.04,0,0,0,0,0,0-.01-.01-.02-.02-.03-.03,0,0,0,0,0,0-.01-.01-.02-.02-.03-.03,0,0,0,0,0,0,0-.01-.02-.02-.03-.04,0,0,0,0,0,0-.01-.09-.09-.12-.15-.17-.1-.12-.19-.25-.34-.32-.04-.02-.09-.06-.12-.02-.04.04,0,.09.03.13,0,.05.02.09.07.1,0,0,0,0,0,0,0,.05.01.07.06.08,0,0,0,0,0,0,.01.09.04.16.14.18.05.1.13.16.19.24,0,.08.05.07.1.08h0s.01.03.04.04c0,0,0,0,0,0,.01.01.02.02.03.04,0,0,0,0,0,0,.01.01.02.02.03.04,0,0,0,0,0,0,.01.01.02.02.04.04h0s.02.02.04.04h0s0,0,0,0c.01.01.02.02.04.04,0,0,0,0,0,0,.01.01.02.02.03.04.1.09.2.17.3.26.02.07.07.1.13.11,0,0,0,0,0,0,.01,0,.02.02.03.03,0,0,0,0,0,0,.01,0,.03.02.04.03,0,0,0,0,0,0,0,.04.04.06.08.06h0c.03.08.1.13.18.15.13.09.27.17.4.26.32.2.67.35,1.01.51.04.04.09.04.14.04Zm-.07-.37c.21,0,.4.11.61.08.13,0,.26,0,.4,0,.06,0,.12,0,.14.08h0s0,0,0,0c.01.01.02.02.03.03h0s0,0,0,0c0,.04,0,.08.06.09.02.03.05.07.07.1.02.02.04.05.02.08-.02.03-.05.03-.09.02-.23-.03-.45-.09-.67-.16-.25-.07-.5-.17-.75-.26.03-.1.12-.03.17-.06Z"/>
    <path class="cls-1" d="m35.58,28.35s0,0,0,0c-.15-.05-.29-.06-.44,0,0,0,0,0,0,0-.02,0-.04,0-.04.03,0,0,0,0,0,0-.02,0-.03.02-.03.04-.02.02-.05.04-.07.07-.08.14-.15.14-.22,0-.03-.06-.06-.13-.14-.15h0c-.12-.05-.24-.02-.37-.02-.08,0-.11.04-.04.11.11.23.26.44.4.65,0,.29,0,.57,0,.86,0,.05-.04.14.08.14.14-.02.3.07.43-.06.05-.05.03-.11.03-.17,0-.26,0-.52,0-.77.13-.22.27-.44.4-.65.04-.02.06-.05,0-.07Z"/>
    <path class="cls-1" d="m17.66,28.14s0,0,0,0c.26.05.51.05.77,0,.22.01.43-.03.65-.05.14.04.12-.08.13-.15.02-.1-.06-.1-.13-.09-.46.03-.92.09-1.39.07-.02,0-.04.02-.06.03-.06.03-.03.09-.03.14,0,.04.02.05.06.05Z"/>
    <path class="cls-1" d="m28.08,30.05c.15.08.3.03.46.03.07-.02.05-.08.05-.12,0-.4,0-.79,0-1.19,0-.05,0-.1-.04-.13,0,0,0,0,0,0,.01-.04.02-.08-.04-.1-.02-.03-.04-.06-.06-.09-.09-.19-.29-.24-.55-.14-.05.04-.12.05-.16.11-.05.07-.09.04-.13,0-.06-.07-.13-.13-.23-.12-.02,0-.04,0-.06-.01-.02-.03-.05-.03-.07,0,0,0,0,0,0,.01,0,0,0,0,0-.01-.02,0-.04,0-.06.01-.06-.02-.12,0-.15.06,0,0,0,0,0,0-.01,0-.03.02-.04.03-.1.06-.15.15-.17.26-.04.02-.04.06-.04.09,0,.41,0,.83,0,1.24,0,.04,0,.09.05.1.15,0,.31.05.45-.03.08-.04.04-.12.04-.17,0-.35,0-.69,0-1.04.03,0,.06,0,.09,0,0,.36,0,.72,0,1.08,0,.06-.04.13.05.17.14,0,.29.04.43-.03.1-.02.06-.1.07-.16,0-.31,0-.61,0-.92,0-.05-.03-.11.05-.13.05.06.02.13.02.19.02.3-.03.61.03.91,0-.03.01-.07.02-.1,0,.03,0,.07-.02.1,0,.02,0,.04,0,.07-.03.02-.02.03,0,.03Z"/>
    <path class="cls-1" d="m21.17,31.77s.02-.02.02-.03c-.02,0-.03,0-.02.03Z"/>
    <path class="cls-1" d="m15.39,22.16s.02-.02.03-.03c-.02,0-.03,0-.03.03Z"/>
    <path class="cls-1" d="m15.05,22.84s-.02.02-.04.03c.02,0,.04,0,.04-.03Z"/>
    <path class="cls-1" d="m15.08,22.8s-.02.02-.03.04c.02,0,.03-.01.03-.04Z"/>
    <path class="cls-1" d="m15.12,22.76s-.02.02-.03.04c.02,0,.03-.01.03-.04Z"/>
    <path class="cls-1" d="m15.15,22.73s-.02.02-.03.03c.02,0,.03,0,.03-.03Z"/>
    <path class="cls-1" d="m15.19,22.69s-.02.02-.03.03c.02,0,.03,0,.03-.03Z"/>
    <path class="cls-1" d="m15.22,22.65s-.02.02-.02.03c.02,0,.03,0,.02-.03Z"/>
    <path class="cls-1" d="m15.15,22.42s.02-.02.02-.02c-.02,0-.03,0-.02.02Z"/>
    <path class="cls-1" d="m14.06,22.36s-.02.02-.03.03c.02,0,.03,0,.03-.03Z"/>
    <path class="cls-1" d="m15.19,22.38s.02-.02.02-.02c-.02,0-.03,0-.02.02Z"/>
    <path class="cls-1" d="m14.1,22.33s-.02.02-.03.03c.02,0,.03,0,.03-.03Z"/>
    <path class="cls-1" d="m15.22,22.34s.02-.02.03-.03c-.02,0-.03,0-.03.03Z"/>
    <path class="cls-1" d="m15.28,22.27s-.03,0-.03.03c0-.01.02-.02.03-.03Z"/>
    <path class="cls-1" d="m15.28,22.27s.02-.02.03-.03c-.02,0-.03.01-.03.03Z"/>
    <path class="cls-1" d="m14.22,22.22s-.02.02-.03.03c.02,0,.03-.01.03-.03Z"/>
    <path class="cls-1" d="m15.32,22.23s.02-.02.03-.03c-.02,0-.03,0-.03.03Z"/>
    <path class="cls-1" d="m14.26,22.19s-.03.02-.04.03c.02,0,.04,0,.04-.03Z"/>
    <path class="cls-1" d="m15.36,22.2s.02-.02.03-.03c-.02,0-.03,0-.03.03Z"/>
    <path class="cls-1" d="m15.08,22.49s.02-.02.02-.02c-.02,0-.03,0-.02.02Z"/>
    <path class="cls-1" d="m15.43,22.12s.02-.02.03-.03c-.02,0-.03,0-.03.03Z"/>
    <path class="cls-1" d="m15.47,22.09s.02-.02.03-.02c-.02,0-.03,0-.03.02Z"/>
    <path class="cls-1" d="m15.51,22.05s.02-.02.03-.03c-.02,0-.03,0-.03.03Z"/>
    <path class="cls-1" d="m15.55,22.02s.02-.02.02-.02c-.02,0-.03,0-.02.02Z"/>
    <path class="cls-1" d="m29.54,26.89s-.01-.02-.02-.02c0,.01,0,.02.01.04,0,0,0-.01,0-.01Z"/>
  </g>
</svg>