<?xml version="1.0" encoding="UTF-8"?>
<svg id="Calque_1" data-name="Calque 1" xmlns="http://www.w3.org/2000/svg" viewBox="0 0 54 54">
  <defs>
    <style>
      .cls-1 {
        fill: #e96607;
      }

      .cls-2 {
        fill: #fdfdfd;
      }

      .cls-2, .cls-3, .cls-4 {
        fill-rule: evenodd;
      }

      .cls-3 {
        fill: #fff;
      }

      .cls-4 {
        fill: #005ca8;
      }
    </style>
  </defs>
  <path class="cls-3" d="m27,49.05c12.18,0,22.05-9.87,22.05-22.05S39.18,4.95,27,4.95,4.95,14.82,4.95,27s9.87,22.05,22.05,22.05Z"/>
  <path class="cls-1" d="m49.05,27c0,12.18-9.87,22.05-22.05,22.05S4.95,39.18,4.95,27,14.82,4.95,27,4.95s22.05,9.87,22.05,22.05Z"/>
  <g>
    <path class="cls-4" d="m23.57,21.97h0c0,.1,0,.19,0,.29h0c0,.09,0,.18,0,.27h0c0,.18,0,.36,0,.54,0,.64.29,1.13.86,1.43.73.38,1.49.39,2.25.06.63-.28.97-.78.98-1.48,0-.55,0-1.1,0-1.64,0-.64-.28-1.12-.85-1.42-.72-.38-1.48-.39-2.22-.08-.61.26-.97.71-.99,1.39,0,.21,0,.42,0,.63h0Zm2.82.53c0-.08,0-.16,0-.24,0-.09,0-.18,0-.27h0c0-.18,0-.36,0-.53,0-.22-.09-.38-.28-.47-.32-.16-.65-.17-.98-.02-.21.1-.32.26-.32.51,0,.52,0,1.04,0,1.56,0,.23.09.38.29.47.34.16.68.16,1.01,0,.18-.09.29-.24.28-.46,0-.19,0-.37,0-.56h0Zm5.7-2.7h-.33c.02.06.04.11.06.16h0s0,0,0,0h0s.03.08.04.12h0c.54,1.51,1.09,3.02,1.63,4.53.03.08.07.1.15.1.3,0,.59,0,.89,0,.11,0,.16-.03.19-.13.38-1.07.76-2.13,1.15-3.19h0s.24-.68.24-.68c.05-.14.1-.29.16-.44h0c.06-.16.11-.31.17-.47h-.33c-.32,0-.64,0-.95,0-.06,0-.07.03-.08.07h0s0,.01,0,.02c-.04.13-.08.25-.12.38h0s0,0,0,0h0c-.11.33-.21.66-.32.98-.04.12-.08.24-.12.35-.1.31-.21.62-.26.95-.03.18-.07.36-.1.54h0c-.02.09-.03.17-.05.26-.03-.04-.04-.07-.04-.11-.02-.11-.04-.22-.06-.33-.04-.24-.08-.48-.15-.7-.17-.56-.35-1.12-.53-1.67-.07-.22-.14-.44-.21-.66-.01-.04-.03-.06-.08-.06-.32,0-.63,0-.95,0Zm-10.73,1.36c-.15.34-.29.67-.45,1.03l-.02-.04h0s-.03-.08-.05-.11c-.31-.71-.61-1.42-.92-2.14-.03-.08-.07-.11-.16-.1-.34,0-.69,0-1.03,0-.08,0-.11.01-.11.1,0,1.57,0,3.14,0,4.7,0,.08.02.11.1.1.35,0,.71,0,1.06,0,.08,0,.09-.02.09-.1,0-.15,0-.3,0-.45,0-.52,0-1.05-.06-1.57,0-.06-.01-.13-.01-.19h0s0-.06,0-.09c.03.02.05.05.06.07l.09.22h0s0,0,0,0c.17.43.34.86.5,1.28.03.07.06.09.13.09.22,0,.44,0,.66,0,.08,0,.11-.03.14-.1.18-.49.37-.98.56-1.47h0s0-.02,0-.03h0s.02-.06.05-.08c.03.02.02.04.02.06,0,0,0,0,0,.01-.07.66-.08,1.32-.08,1.98v.25c0,.08.01.1.1.1.36,0,.72,0,1.07,0,.07,0,.09-.02.09-.09,0-1.57,0-3.15,0-4.73,0-.08-.02-.1-.1-.1-.35,0-.7,0-1.05,0-.08,0-.12.03-.15.1-.18.42-.36.84-.54,1.26h0Zm10.61,1.34h0c0,.18,0,.36,0,.54.01.75-.34,1.27-1.02,1.55-.78.32-1.56.29-2.29-.14-.51-.3-.76-.76-.76-1.36,0-.15,0-.3,0-.44,0-.38,0-.75,0-1.13-.02-.82.43-1.37,1.11-1.61.78-.28,1.55-.24,2.26.22.47.3.69.74.69,1.3,0,.14,0,.28,0,.42,0,.14,0,.28,0,.42,0,.08,0,.16,0,.24Zm-1.24,0h0c0,.18,0,.36,0,.55,0,.21-.09.36-.27.45-.36.18-.72.18-1.07,0-.17-.09-.25-.24-.25-.43,0-.54,0-1.07,0-1.61,0-.21.09-.36.27-.46.36-.19.72-.18,1.07.01.17.09.25.24.25.43v.81c0,.08,0,.16,0,.24Z"/>
    <path class="cls-2" d="m13.98,26.61c-.2.35-.4.7-.61,1.06-.08-.28-.15-.54-.23-.79l-.2-.69c-.24-.82-.47-1.64-.71-2.46-.03-.09-.06-.12-.15-.12-.62,0-1.25,0-1.87,0h0c-.08,0-.12,0-.13.1-.05.4-.11.8-.16,1.2h0c-.02.15-.04.31-.07.46-.05.39-.11.78-.17,1.18h0s0,0,0,0h0s0,0,0,0h0s0,0,0,0c-.06.46-.13.91-.19,1.37-.11.79-.22,1.58-.33,2.37l-.21,1.51h0c0,.07-.02.12.09.12.64,0,1.28,0,1.92,0h0c.06,0,.09-.01.1-.08.03-.21.05-.41.08-.62h0c.02-.14.04-.29.06-.43.01-.11.03-.22.05-.33.05-.33.09-.67.13-1,.03-.31.05-.63.07-.94,0-.16.02-.31.03-.47,0-.01,0-.03,0-.04h0c0-.05,0-.1.03-.15.03.03.04.06.05.1,0,0,0,.02,0,.03.22.88.44,1.75.66,2.63.02.08.05.1.13.1.41,0,.81,0,1.22,0,.1,0,.14-.04.18-.11.45-.88.91-1.75,1.37-2.63,0-.01,0-.02.01-.04h0s.03-.08.07-.07c.04.02.02.06,0,.1,0,.01,0,.03-.01.04-.04.2-.08.39-.12.59h0c-.05.25-.11.51-.16.76-.07.33-.11.66-.16,1h0c-.02.18-.05.36-.07.54-.05.31-.09.62-.13.94,0,0,0,.02,0,.02,0,.04-.02.08.07.08.66,0,1.32,0,1.98,0,.06,0,.08-.03.08-.08.02-.17.05-.34.07-.51.06-.42.12-.84.18-1.26h0s0,0,0,0c.06-.42.12-.84.18-1.26.06-.42.12-.84.18-1.26.06-.42.12-.84.18-1.26l.07-.5h0c.1-.69.19-1.37.29-2.05.01-.09,0-.12-.1-.12-.63,0-1.26,0-1.9,0-.08,0-.11.02-.15.09-.35.62-.71,1.23-1.06,1.85l-.23.4-.38.66Zm21.79,5.41c.18-.02.35-.07.52-.13-.03.4-.26.67-.64.74-.47.09-.9-.02-1.29-.29-.06-.04-.09-.05-.14.01-.28.33-.56.65-.85.97-.06.06-.06.09,0,.15.75.61,1.6.9,2.56.77.56-.07,1.05-.3,1.44-.71.39-.42.61-.93.74-1.48.09-.4.15-.81.2-1.21.02-.15.04-.3.06-.45.11-.74.21-1.49.31-2.23.1-.74.21-1.49.31-2.23,0-.06,0-.08-.07-.08-.6,0-1.2,0-1.8,0-.06,0-.08.02-.09.08-.02.17-.04.34-.07.5-.01.07-.02.15-.03.22l-.33,2.41c-.03.2-.06.41-.08.61-.03.2-.06.41-.08.61,0,.05-.02.09-.07.12-.21.1-.43.12-.66.07-.19-.05-.29-.17-.29-.37,0-.11.01-.22.03-.33h0s.01-.07.02-.1c.11-.79.22-1.58.33-2.37.02-.17.05-.35.07-.52h0s0,0,0,0h0s0,0,0,0h0s0,0,0,0c.04-.27.08-.55.12-.82.01-.07,0-.11-.09-.11-.58,0-1.16,0-1.75,0-.07,0-.09.02-.1.09-.03.21-.06.42-.09.63l-.03.23c-.03.22-.06.44-.09.66h0c-.08.57-.16,1.14-.24,1.7-.01.1-.03.19-.04.29-.05.28-.09.57-.08.86.02.55.21,1.03.67,1.38.48.36,1.03.42,1.61.35Zm-9.12-.1c-.09,0-.17,0-.26,0-.21,0-.43,0-.64,0-.07,0-.09-.01-.08-.09.07-.52.15-1.03.22-1.55h0c.1-.73.21-1.46.31-2.19.08-.53-.2-.66-.62-.63-.28.02-.29.03-.33.3-.09.61-.17,1.23-.26,1.84h0s0,0,0,0h0c-.06.44-.12.87-.18,1.31-.01.1-.03.21-.05.31h0c-.03.19-.06.38-.08.58,0,.07-.03.09-.1.09-.6,0-1.2,0-1.8,0-.08,0-.1-.02-.08-.1.06-.44.13-.88.19-1.32h0s.09-.66.09-.66c.11-.78.22-1.57.33-2.35l.06-.41h0c.04-.26.07-.52.11-.77h0c0-.06.01-.1.08-.13,1.02-.42,2.07-.58,3.16-.36.38.08.72.23,1.01.5.32.31.46.7.49,1.13.02.29-.02.58-.07.87h0c-.01.07-.02.15-.03.22-.08.59-.17,1.18-.25,1.77h0s0,0,0,0l-.08.58c-.01.08-.02.17-.04.25h0s0,0,0,0h0c-.03.23-.07.46-.1.69,0,.07-.04.09-.1.08-.2,0-.4,0-.6,0h0c-.1,0-.2,0-.3,0Zm-9.06-2.59h0s0,0,0,0h0c.02-.13.04-.27.06-.4,0-.06.02-.12.02-.18.04-.31.08-.62.14-.92.22-1.01.87-1.64,1.83-1.95.65-.21,1.31-.21,1.96.04.82.32,1.27,1.03,1.17,1.91-.08.73-.18,1.45-.3,2.17-.13.78-.58,1.34-1.28,1.69-.86.44-1.76.52-2.66.12-.69-.3-1.04-.86-1.04-1.62.01-.28.06-.56.1-.84h0Zm2.33,1.04c-.32,0-.49-.2-.45-.52.06-.42.12-.84.17-1.25h0s0,0,0,0h0c.03-.21.06-.43.09-.64.03-.23.18-.35.39-.42.2-.07.39-.04.55.1.1.08.13.19.11.32-.03.24-.07.48-.1.72h0s0,0,0,0h0c-.05.4-.11.79-.16,1.18-.05.34-.25.51-.6.51Zm10.45-.7c.22.05.44.07.67.06.21,0,.41-.01.6-.05.46-.09.89-.27,1.23-.6.46-.43.62-.97.61-1.59,0-.75-.41-1.34-1.11-1.61-.57-.21-1.15-.22-1.73-.06-1.09.31-1.81,1-2.01,2.14-.12.66-.22,1.33-.28,2-.07.75.22,1.33.87,1.73.4.24.83.34,1.29.35.9.01,1.67-.29,2.33-.91.07-.07.06-.1,0-.17-.26-.26-.52-.52-.78-.79-.07-.07-.11-.08-.2-.02-.37.26-.77.34-1.21.18-.25-.1-.4-.33-.39-.59,0-.07.01-.11.1-.09Zm.15-1.17c.12.04.23.07.37.07.44,0,.73-.24.78-.67.03-.22-.07-.42-.26-.49-.35-.14-.79.11-.86.47-.02.11-.03.22-.05.32h0c-.01.07-.02.14-.03.22,0,.05,0,.07.05.08Zm11.24,1.93c-1.08.31-2.33.61-3.45.77h.2c.34,0,.68,0,1.01,0,1.2-.05,2.38-.24,3.54-.53.65-.16,1.28-.37,1.91-.61.07-.03.1-.05.08-.13-.02-.09-.04-.17-.05-.26h0s-.01-.07-.02-.11c-.1-.58-.21-1.16-.31-1.74-.1-.58-.21-1.16-.31-1.74h0s0,0,0,0h0c-.07-.38-.14-.76-.21-1.14-1.42,1.27-3.14,2.01-4.88,2.76h-.01c.6-.05,1.15-.18,1.69-.35.87-.26,1.71-.59,2.54-.96,0,0,.01,0,.02,0,.04-.02.08-.04.1.05.19,1.04.38,2.07.57,3.1.02.08,0,.11-.08.14-.77.29-1.55.54-2.34.77Zm-3.39,1.08c.38,0,.76-.01,1.14-.03,1.76-.09,3.49-.36,5.18-.87.08-.02.11-.01.12.07.04.24.09.48.14.71.02.07,0,.09-.07.1-.5.07-1.01.13-1.52.17-.86.08-1.73.12-2.6.11-.81-.01-1.61-.07-2.4-.26Zm1.7.51c-.46-.04-.92-.07-1.38-.12l-.18-.02c.13.04.31.09.48.14.09.02.17.05.23.07,1.12.33,2.26.54,3.43.6.71.04,1.42.02,2.13-.07,0,0,0,0,0,0,.04,0,.08-.01.06-.08-.04-.24-.09-.49-.12-.73-.01-.07-.03-.08-.1-.06-.36.11-.72.18-1.09.23-.75.11-1.5.13-2.25.12-.4,0-.81-.03-1.21-.06h0Z"/>
  </g>
</svg>