<?xml version="1.0" encoding="UTF-8"?>
<svg id="Calque_1" data-name="Calque 1" xmlns="http://www.w3.org/2000/svg" viewBox="0 0 54 54">
  <defs>
    <style>
      .cls-1 {
        fill: #f9dc4a;
      }

      .cls-2 {
        fill: #da3b37;
      }

      .cls-3 {
        fill: #d93834;
      }

      .cls-4 {
        fill: #d93935;
      }

      .cls-5 {
        fill: #fff;
        fill-rule: evenodd;
      }
    </style>
  </defs>
  <path class="cls-5" d="m51.5,27c0,13.53-10.97,24.5-24.5,24.5S2.5,40.53,2.5,27,13.47,2.5,27,2.5s24.5,10.97,24.5,24.5Zm-24.5,22.51c12.43,0,22.51-10.08,22.51-22.51S39.43,4.49,27,4.49,4.49,14.57,4.49,27s10.08,22.51,22.51,22.51Z"/>
  <path class="cls-1" d="m49.51,27c0,12.43-10.08,22.51-22.51,22.51S4.49,39.43,4.49,27,14.57,4.49,27,4.49s22.51,10.08,22.51,22.51Z"/>
  <path class="cls-3" d="m14.15,30.6l4.55-6.01c.26-.39.59-.73.98-.98.2-.12.43-.19.67-.17.23.01.46.09.65.24.34.31.36.83.36,1.3v2.72c-.01.07,0,.15.07.16.07,0,.08-.04.1-.07l2.45-3.26c.2-.3.45-.56.74-.76-.02.22.02.44.13.63.11.19.27.34.47.44.2.09.42.12.64.09.22-.04.41-.14.57-.3.02.98.03,1.94.03,2.94v2.58c0,.07,0,.14-.05.2-.21.28-.59.28-.9.25-.15,0-.31-.04-.44-.13-.07-.08-.13-.18-.16-.29-.03-.11-.04-.22-.03-.33v-4.06c0-.09-.02-.2-.1-.22-.08-.02-.14.05-.19.11l-3.05,4.05c-.2.34-.49.61-.83.8-.36.16-.86.06-1.01-.3-.05-.14-.07-.29-.06-.44l-.04-3.95c0-.11-.06-.26-.16-.23-.04.01-.07.04-.09.08l-3.2,4.36c-.1.17-.23.31-.4.42-.16.11-.35.17-.54.19-.39,0-.78-.03-1.17-.07Z"/>
  <path class="cls-3" d="m16,21.19h5.33c.2-.03.4,0,.57.1.13.07.23.18.28.31.06.13.07.28.04.42-.03.17-.12.31-.26.42-.13.1-.3.15-.47.14h-4.26c-.09,0-.18.01-.26.05-.08.04-.14.11-.19.19-1.63,2.49-3.26,4.99-4.9,7.48-.05.1-.13.18-.23.24-.1.05-.21.08-.33.06-.4-.02-.81,0-1.21,0-.08,0-.19,0-.23-.03-.08-.09.04-.16.09-.23.79-1.15,1.58-2.29,2.38-3.44l2.78-4c.06-.08.17-.17.12-.28-.05-.11-.19-.05-.28-.05h-4.5c-.16.01-.31-.03-.44-.11-.13-.09-.23-.22-.27-.37-.05-.13-.05-.27-.01-.41.04-.13.12-.25.22-.34.17-.12.38-.17.59-.14h5.44Z"/>
  <path class="cls-3" d="m37.94,28.59h2.37c.08,0,.16-.01.22-.06.05-.06.07-.13.07-.21.03-.37-.02-.74-.15-1.09-.13-.35-.35-.66-.66-.89-.21-.14-.45-.24-.7-.28-.25-.04-.51-.03-.76.03-.5.14-.92.45-1.19.89-.25.43-.38.92-.38,1.41-.03.46.06.93.28,1.34.17.26.39.49.65.66s.56.28.87.32c.42.06.84.02,1.24-.12.1-.03.2-.07.29-.11.07-.03.22-.07.26-.13s0-.2-.03-.26c-.02-.1-.06-.21-.1-.31-.02-.05-.05-.09-.09-.12-.04-.01-.08-.01-.12,0-.04,0-.08.02-.11.05-.21.12-.45.2-.69.23-.24.03-.49,0-.73-.06-.23-.08-.44-.22-.59-.42-.15-.19-.24-.43-.26-.68,0-.05,0-.09.03-.13.03-.02.06-.04.09-.05.03-.01.07-.01.11,0h.08Zm-.21-.97c.06-.22.19-.41.37-.55.18-.14.4-.22.62-.23.22-.02.43.04.6.17.17.13.3.31.35.52.06.22,0,.29-.23.28-.23-.02-.48,0-.73,0h-.8c-.13,0-.22-.02-.19-.19Z"/>
  <path class="cls-3" d="m31.95,28.04c-.02-.35-.12-.69-.3-.99-.18-.3-.44-.55-.74-.72-.31-.17-.65-.27-1-.27-.35,0-.7.08-1.01.25-.94.48-1.42,1.76-1.08,2.87.37,1.18,1.36,1.77,2.5,1.49,1-.24,1.63-1.11,1.62-2.28,0-.12.01-.23,0-.34Zm-1.01,1.14c-.1.24-.26.44-.48.58-.21.14-.47.21-.72.2-.28-.03-.53-.16-.73-.35-.2-.19-.33-.45-.38-.72-.12-.45-.07-.93.15-1.34.09-.21.24-.38.44-.5.19-.12.42-.18.64-.18.23,0,.45.06.64.18.19.12.34.3.43.5.14.26.21.55.19.85,0,.27-.06.54-.18.78Z"/>
  <path class="cls-3" d="m42.66,29.17c.38-.98.73-1.85,1.04-2.73.11-.3.28-.32.53-.3.1,0,.35,0,.35.09-.08.38-.19.75-.32,1.11-.51,1.19-.94,2.42-1.49,3.6-.28.69-.83,1.24-1.52,1.53-.22.09-.3.04-.38-.17-.17-.44-.17-.44.25-.67.41-.24.74-.6.95-1.03.05-.09.08-.19.09-.29,0-.1-.02-.2-.06-.3-.49-1.17-.95-2.36-1.43-3.55-.11-.26-.09-.35.23-.34.57.02.56,0,.78.54.31.79.64,1.59,1.01,2.5Z"/>
  <path class="cls-3" d="m36.21,28.99v1.31c0,.07,0,.15-.03.21-.01.02-.03.05-.05.06-.02.02-.04.03-.07.04-.04,0-.48.02-.51,0-.05,0-.1-.03-.14-.07-.04-.04-.06-.1-.06-.16,0-.05,0-.11,0-.16.02-.78,0-1.56,0-2.34,0-.67-.33-1.05-.88-1.05-.14,0-.28.03-.4.08-.13.05-.24.13-.34.23-.1.1-.17.22-.22.35-.05.13-.07.27-.07.41-.01.79-.01,1.59,0,2.38,0,.25-.05.35-.32.34-.62-.02-.52.06-.53-.51-.02-1.24.05-2.48-.05-3.73,0-.09,0-.19.1-.23.05-.02.11-.03.17-.03l.17-.03c.08-.02.17-.02.25,0,.05.02.09.06.12.1.03.04.05.09.06.14.03.12.16,0,.23-.04.36-.21.78-.3,1.2-.24.38.05.73.24.99.52.26.29.4.66.4,1.04.02.45,0,.9,0,1.34h0Z"/>
  <path class="cls-4" d="m25.65,20.73c.64,0,1.27.17,1.82.51.55.34.98.83,1.26,1.41.02.05.03.11.02.16,0,.06-.02.11-.05.16-.03.05-.07.09-.12.12-.05.03-.1.05-.16.06-.14,0-.14-.14-.18-.22-.27-.59-.73-1.06-1.31-1.35-.58-.29-1.24-.37-1.87-.23-.23.04-.45.12-.65.24-.23.15-.28,0-.38-.16-.1-.16-.05-.28.14-.37.46-.22.96-.33,1.46-.33Z"/>
  <path class="cls-4" d="m25.65,21.97c.44,0,.86.12,1.23.36.36.24.64.59.8,1,.03.13,0,.27-.08.39s-.19.2-.32.23c-.11,0-.09-.08-.1-.14-.05-.23-.15-.45-.3-.64-.15-.19-.34-.33-.55-.43-.22-.1-.45-.15-.69-.14-.24,0-.47.07-.68.19-.21.11-.24-.04-.28-.16-.04-.12-.26-.26,0-.4.3-.18.63-.26.98-.26Z"/>
  <path class="cls-2" d="m25.25,23.68c.39.04.76.19,1.06.45.13.12.18.24.02.37-.11.11-.24.18-.39.21-.15.03-.3.02-.44-.03-.15-.04-.28-.13-.38-.25-.1-.12-.16-.27-.17-.42-.02-.23.05-.37.31-.32Z"/>
</svg>