<?xml version="1.0" encoding="UTF-8"?>
<svg id="Calque_1" data-name="Calque 1" xmlns="http://www.w3.org/2000/svg" viewBox="0 0 54 54">
  <defs>
    <style>
      .cls-1 {
        fill: #f4f4f4;
      }

      .cls-2 {
        fill: #d92527;
      }

      .cls-3 {
        fill: #da2628;
      }

      .cls-4 {
        fill: #393839;
      }

      .cls-5 {
        fill: #fff;
        fill-rule: evenodd;
      }
    </style>
  </defs>
  <path class="cls-5" d="m50.99,27c0,13.53-10.97,24.5-24.5,24.5S1.99,40.53,1.99,27,12.96,2.5,26.49,2.5s24.5,10.97,24.5,24.5Zm-24.5,22.51c12.43,0,22.51-10.08,22.51-22.51S38.92,4.49,26.49,4.49,3.97,14.57,3.97,27s10.08,22.51,22.51,22.51Z"/>
  <path class="cls-1" d="m49,27c0,12.43-10.08,22.51-22.51,22.51S3.97,39.43,3.97,27,14.05,4.49,26.49,4.49s22.51,10.08,22.51,22.51Z"/>
  <path class="cls-2" d="m11.72,23.24c-.44,0-.88,0-1.32,0-.25,0-.27-.07-.18-.29.11-.26.24-.4.55-.36.32.04.65,0,.98.01.22.01.34-.05.44-.26.75-1.53,2.03-2.41,3.63-2.87.49-.14,1-.22,1.51-.12.25.05.48.12.48.44,0,.26-.3.54-.57.57-.27.03-.53-.06-.8-.13-.92-.22-1.59.09-2,.93-.22.46-.43.93-.67,1.44h1.7c.32,0,.32.03.2.33-.11.25-.26.33-.53.32-.47-.02-.94,0-1.41-.01-.22,0-.32.08-.41.26-.95,1.91-1.91,3.81-2.85,5.71-.1.21-.23.3-.46.32-.25.02-.49.08-.74.11-.33.04-.39-.05-.25-.35.87-1.91,1.73-3.82,2.6-5.73.04-.09.12-.18.09-.31Z"/>
  <path class="cls-2" d="m28.47,22.2c-.18-.09-.38-.15-.58-.17-1.91-.26-3.64.21-5.18,1.35-.5.37-.92.82-1.14,1.41-.33.84-.02,1.55.82,1.89.43.17.89.22,1.35.23,1.53.03,2.93-.45,4.24-1.21.1-.06.28-.09.22-.25-.05-.14-.21-.22-.34-.24-.1-.01-.21.07-.31.12-.92.45-1.88.78-2.92.8-.26.01-.52-.01-.77-.07-.61-.14-.78-.42-.65-1.02.04-.17.12-.24.29-.24.75-.03,1.5-.11,2.23-.24.8-.14,1.58-.31,2.31-.69.3-.16.58-.35.74-.66.23-.42.11-.8-.32-1.01Zm-1.35.86c-.12.28-.36.45-.61.58-.61.33-1.27.47-1.95.57-.32.05-.65.07-1.05.12.15-.24.33-.45.54-.64.63-.6,1.34-1.05,2.22-1.18.2-.03.4-.02.6.03.29.08.38.24.25.51Z"/>
  <path class="cls-2" d="m35.43,22.13c-.44-.16-.9-.18-1.4-.19-1.38,0-2.72.42-3.87,1.18-.55.36-1.03.8-1.35,1.39-.56,1.02-.19,1.92.93,2.23.88.25,1.77.18,2.65.01,1-.19,1.91-.61,2.79-1.12.09-.05.23-.12.11-.23-.14-.13-.28-.28-.52-.14-.39.22-.81.4-1.24.53-.83.27-1.67.43-2.55.25-.62-.13-.81-.45-.65-1.04.04-.14.1-.21.25-.22.47-.03.94-.07,1.41-.12.94-.11,1.88-.27,2.77-.63.38-.15.74-.33,1.01-.65.43-.51.3-1.03-.33-1.27Zm-1.23.98c-.14.26-.37.41-.62.54-.75.39-1.56.52-2.38.62-.18.02-.35.03-.6.05.65-.84,1.39-1.43,2.35-1.72.32-.1.65-.16.99-.07.34.09.42.26.26.57h0Z"/>
  <path class="cls-4" d="m21.25,29.69c-.47.72-.91,1.36-1.35,2.04l-1.31-1.97-.06.02v.27c0,.85,0,1.69,0,2.54,0,.16-.03.23-.2.22-.26.02-.57.03-.78-.05-.09-.18-.05-.49-.05-.75,0-1.24,0-2.48,0-3.72,0-.21.05-.25.26-.28.66-.1,1.08.13,1.35.74.17.38.45.72.66,1.08.12.22.18.17.29-.01.33-.54.67-1.07,1-1.61.08-.13.15-.2.31-.19.3.02.68-.1.87.05.19.15.06.56.06.85,0,1.21,0,2.42,0,3.63,0,.2-.05.28-.26.26-.24,0-.51.02-.72-.05-.08-.17-.05-.47-.05-.72,0-.66,0-1.33,0-1.99,0-.09,0-.18-.02-.35Z"/>
  <path class="cls-4" d="m32.9,30.87c0-.86,0-1.72,0-2.58,0-.23.06-.3.29-.28.24.02.56-.08.7.05.16.14.05.47.05.71,0,1.26,0,2.52,0,3.77,0,.2-.06.24-.26.26-.47.06-.77-.12-1.04-.51-.59-.85-1.25-1.66-1.88-2.48-.1.06-.06.14-.06.21,0,.84,0,1.67,0,2.51,0,.19-.03.29-.25.26-.26-.03-.6.11-.74-.06-.13-.14-.04-.47-.04-.72,0-1.24,0-2.48,0-3.72,0-.21.03-.27.27-.3.52-.05.84.12,1.13.56.55.81,1.18,1.56,1.77,2.34l.06-.02Z"/>
  <path class="cls-4" d="m25.99,27.92c-1.45,0-2.55,1.08-2.55,2.48,0,1.42,1.08,2.47,2.55,2.46,1.46,0,2.55-1.05,2.55-2.47s-1.1-2.49-2.54-2.48Zm0,4c-.82,0-1.46-.67-1.46-1.54,0-.86.62-1.5,1.45-1.5.83,0,1.46.65,1.45,1.53,0,.87-.62,1.51-1.44,1.51Z"/>
  <path class="cls-2" d="m19.1,23.74c.15,0,.2-.11.27-.17.56-.49,1.13-.95,1.81-1.28.35-.17.72-.26,1.12-.21.38.04.54.29.43.65-.05.17-.15.33-.28.44-.14.11-.31.18-.48.2-.07.01-.13.01-.2,0-.98-.19-1.69.29-2.31.96-.67.71-1.22,1.51-1.66,2.38-.1.21-.24.3-.46.32-.29.03-.58,0-.86-.06-.27-.08-.32-.19-.18-.45.47-.89.95-1.77,1.42-2.66.06-.1.11-.2.15-.31.03-.1.14-.21.04-.32-.1-.11-.24-.09-.37-.07-.45.1-.84.33-1.22.56-.09.05-.19.06-.28.03-.09-.02-.18-.08-.23-.17-.01-.01-.02-.03-.02-.05,0-.02,0-.03,0-.05,0-.02.01-.03.02-.05.01-.01.02-.02.04-.03.93-.64,1.83-1.35,3.05-1.34.09,0,.17,0,.26.03.41.1.54.34.38.73-.12.3-.28.59-.43.91Z"/>
  <path class="cls-4" d="m35.27,30.4c0-.72,0-1.44,0-2.16,0-.2.06-.24.24-.23,1.05,0,2.1,0,3.15,0,.17,0,.23.04.23.22,0,.71.01.71-.69.71-.56,0-1.12,0-1.67,0-.16,0-.21.04-.21.21-.02.78-.02.78.76.78.44,0,.88,0,1.33,0,.13,0,.18.03.18.17.04.75.04.75-.7.75-.44,0-.89.01-1.33,0-.21,0-.27.07-.25.26.02.25-.1.57.05.72.15.16.47.05.72.05.54,0,1.08,0,1.62,0,.17,0,.23.03.23.22,0,.7.01.7-.69.7-.88,0-1.77,0-2.65,0-.23,0-.31-.05-.31-.29.01-.71,0-1.41,0-2.11Z"/>
  <path class="cls-4" d="m41.94,29.93c.37-.61.72-1.17,1.06-1.74.08-.13.16-.19.32-.18.31.01.63,0,.99,0-.37.58-.68,1.16-1.08,1.67-.63.8-.9,1.66-.78,2.66.05.45,0,.45-.44.45-.58,0-.63,0-.57-.58.09-.9-.13-1.68-.7-2.4-.37-.47-.66-1.01-.98-1.52-.05-.08-.13-.14-.12-.27.35,0,.71,0,1.06,0,.14,0,.17.1.22.19.34.57.68,1.13,1.04,1.73Z"/>
  <path class="cls-3" d="m14.77,28.2h1.9c.31,0,.46.12.47.35,0,.23-.16.38-.47.38-1.27,0-2.54,0-3.81,0-.32,0-.48-.13-.48-.37,0-.24.16-.36.48-.36.63,0,1.27,0,1.9,0Z"/>
  <path class="cls-4" d="m13.5,30.13c.51,0,1.02,0,1.53,0,.24,0,.39.09.4.34.02.23-.14.37-.4.37-1.03,0-2.06,0-3.08,0-.27,0-.42-.14-.41-.37.02-.25.17-.35.4-.34.52,0,1.04,0,1.56,0Z"/>
  <path class="cls-2" d="m14.55,32.76h-.89c-.23,0-.37-.11-.38-.34,0-.24.13-.37.38-.37.61,0,1.23,0,1.85,0,.23,0,.36.13.36.36,0,.23-.13.35-.36.35-.32,0-.63,0-.95,0Z"/>
</svg>