<?xml version="1.0" encoding="UTF-8"?>
<svg id="Calque_1" data-name="Calque 1" xmlns="http://www.w3.org/2000/svg" viewBox="0 0 54 54">
  <defs>
    <style>
      .cls-1 {
        fill: #f8fcf9;
      }

      .cls-2 {
        fill: #ec1d25;
      }

      .cls-3 {
        fill: #ececec;
      }

      .cls-4 {
        fill: #9e4f46;
      }

      .cls-5 {
        fill: #d7e2d1;
      }

      .cls-6 {
        fill: #3fb650;
      }

      .cls-7 {
        fill: #39b44a;
      }

      .cls-8 {
        fill: #fff;
        fill-rule: evenodd;
      }
    </style>
  </defs>
  <path class="cls-8" d="m27,48.54c11.9,0,21.54-9.64,21.54-21.54S38.9,5.46,27,5.46,5.46,15.1,5.46,27s9.64,21.54,21.54,21.54Z"/>
  <path class="cls-3" d="m49.2,27c0,12.26-9.94,22.2-22.2,22.2S4.8,39.26,4.8,27,14.74,4.8,27,4.8s22.2,9.94,22.2,22.2Z"/>
  <g>
    <path class="cls-7" d="m15.98,28.53s0-.07,0-.1c0-.87,0-1.74,0-2.61,0-.89,0-1.79,0-2.68,0-.13,0-.13-.13-.13-.45,0-.91,0-1.36,0-.07,0-.12.02-.15.09-.08.19-.19.37-.27.55-.4.83-.81,1.65-1.22,2.48-.02.04-.03.1-.07.1-.06,0-.06-.07-.08-.11-.29-.58-.58-1.17-.87-1.75,0-.01-.02-.02-.02-.03-.1-.16-.15-.34-.24-.51,0,0-.02-.02-.02-.03-.09-.24-.23-.46-.33-.69-.04-.08-.08-.11-.17-.11-.25,0-.49,0-.74,0-.2,0-.4,0-.61,0-.13,0-.13,0-.13.14,0,.09,0,.19,0,.28,0,1.66,0,3.32,0,4.97,0,.06,0,.12,0,.18,0,.02.01.03.03.03.41.01.81.01,1.22,0,.02,0,.03,0,.02-.03.02-.07.03-.14.03-.22,0-.95,0-1.9,0-2.85,0-.05,0-.11,0-.16,0-.07,0-.14-.01-.21.06.06.1.13.13.21.05.14.13.27.2.4.1.19.17.4.27.58.1.17.18.36.27.55.01.02.01.05,0,.07,0,.01.01.02.02.03.04,0,.03.04.04.06,0,.02,0,.03.02.03.11.24.22.47.33.71,0,.02,0,.03.02.03.02.05.05.1.07.15.03.07.07.1.15.1.24,0,.49,0,.73,0,.04,0,.09.02.12-.04,0-.01.02-.02.02-.03,0,0,0,0-.01,0,0,0,0,0,0,0s0,0,0,0c0,0,0,0,0,0s0,0,0,0c0,0,0,0,.01,0,.1-.22.2-.43.3-.65l.02-.03c0-.09.07-.13.1-.2.17-.38.36-.75.54-1.13.11-.23.21-.45.32-.68,0-.03.03-.05.05-.06,0,0,0,0,0,0,0-.04.02-.07.05-.1.03.03.02.07,0,.11,0,.03,0,.06,0,.09,0,.74,0,1.48,0,2.22,0,.32,0,.64,0,.96,0,.06,0,.11.08.11.38,0,.76,0,1.14,0,.06,0,.08-.02.08-.08Z"/>
    <path class="cls-6" d="m23,28.58s.02.02.04.02c-.02,0-.03,0-.04-.02Z"/>
    <g>
      <path class="cls-7" d="m44.41,28.48s-.02-.02-.02-.03c-.04-.11-.08-.22-.13-.33,0-.01-.02-.02-.02-.03-.04-.11-.08-.22-.13-.32,0-.01-.02-.02-.02-.03-.02-.06-.04-.12-.07-.18,0-.01-.02-.02-.02-.03-.04-.11-.08-.22-.13-.32,0-.01-.02-.02-.02-.03-.07-.18-.14-.36-.21-.53,0,0-.02-.02-.02-.03-.04-.11-.08-.22-.13-.33l-.02-.03c-.04-.11-.08-.22-.13-.32,0-.01-.02-.02-.02-.03h0c-.02-.06-.04-.12-.07-.18-.01,0-.02,0-.02-.02,0,.01.01.02.02.02,0-.01-.02-.02-.02-.03,0,0,0,0,0,0,0,0,0,0,0,0-.01-.04-.02-.08-.04-.12h0s-.02-.02-.02-.03c-.1-.25-.2-.49-.3-.74,0,0-.02-.02-.02-.03,0,0,0,0,0,0,0,0,0,0,0,0-.04-.11-.08-.22-.13-.33,0-.01-.02-.02-.02-.03-.04-.11-.08-.22-.13-.32,0-.01-.02-.02-.02-.03h0c-.02-.06-.04-.12-.07-.18,0-.01-.02-.02-.02-.03h0s-.02-.08-.04-.12h0s-.02-.02-.02-.03c-.02-.06-.04-.12-.07-.18,0-.01-.02-.02-.02-.03-.06-.15-.12-.3-.18-.45-.02-.05-.05-.05-.09-.05-.45,0-.91,0-1.36,0-.04,0-.08,0-.09.05-.02,0-.03.01-.02.03-.02.06-.04.12-.07.18,0,.01-.02.02-.02.03-.05.13-.1.26-.15.38-.02,0-.03.01-.02.03-.05.13-.1.26-.15.38-.02,0-.03.01-.02.03-.02.05-.04.1-.06.15-.07.16-.14.33-.21.49-.08.18-.14.36-.23.54-.08.17-.16.35-.23.53-.11.27-.25.53-.34.82-.02,0-.03.01-.02.03-.05.13-.1.25-.16.38-.02,0-.03.01-.02.03,0,.06-.04.12-.07.18,0,0-.02.02-.02.03-.05.13-.1.26-.15.38h0s-.03.01-.02.03c-.02.06-.04.12-.07.18-.02,0-.03.01-.02.03-.02.06-.04.12-.07.18,0,.01-.02.02-.02.03-.02.06-.04.12-.07.18,0,.01-.02.02-.02.03-.02.07-.05.15-.07.22-.02.02-.03.04,0,.04.16,0,.31,0,.47,0,.29,0,.59,0,.88,0,.06,0,.12,0,.14-.08.03-.11.1-.2.12-.31,0,0,.02-.02.02-.03,0,0,0,0-.01,0,0,0,0,0,.01,0,.01-.04.02-.08.04-.12,0-.01.02-.02.02-.03l.04-.12s0-.02,0-.02c0,0,0,.01,0,.02,0-.01.02-.02.02-.03.01-.04.02-.08.04-.12,0-.01.02-.02.02-.03.02-.04.02-.1.09-.11.04,0,.08,0,.12,0,.71,0,1.41,0,2.12,0,.05,0,.11-.03.15.03.04.04.05.1.06.15,0,.02,0,.03.02.03.03.12.11.23.13.35,0,.02,0,.03.02.03.02.1.07.18.1.27.01.05.04.12.13.11.48,0,.96,0,1.43,0,0,0,.02-.02.03-.03,0-.03-.02-.06-.03-.09Zm-4.56-.28s0,0,0,0c0,0,0,0,0,0Zm.71-1.72s0,0,0,0c0,0,0,0,0,0Zm.03,0s-.02-.02-.03-.02c0,0,0,0,0,0,0,0,0,0,0,0,.06-.24.17-.46.26-.69.08-.21.16-.42.24-.62.08-.19.15-.39.23-.58,0-.01.02-.02.03-.03.07.06.06.14.09.21.1.24.19.48.28.72.05.16.12.3.18.46.07.18.13.35.2.53,0,0-.02.02-.03.02h0c-.48,0-.97,0-1.45,0Zm1.48,0s0,0,0-.01c0,0,0,0,0,.01Zm.48-2.41s0,0,0,0c0,0,0,0,0,0,0,0,0,0,0,0,0,0,0,0,0,0Zm.77,1.83s0,0,0,.01c0,0,0,0,0-.01Z"/>
      <path class="cls-7" d="m26.56,23.2s-.02-.02-.03-.02c0,0,0,0,0,.01,0,0,0,0,0-.01-.34-.13-.69-.17-1.05-.17-.78,0-1.56,0-2.34,0-.16,0-.16-.02-.16.16,0,1.76,0,3.51,0,5.27,0,.05-.01.1.01.15.01,0,.02.02.04.02.44,0,.89,0,1.33,0,.07,0,.09-.03.09-.1,0-.19,0-.37,0-.56,0-.29,0-.57,0-.86,0,0,.02-.02.03-.02.13,0,.27,0,.4,0,.33,0,.67.02,1-.03.14-.02.27-.04.41-.06h0s.03,0,.03-.02c.33-.09.62-.26.86-.51.11-.12.23-.24.28-.41,0,0,.02-.01.02-.02.04-.05.06-.1.07-.16,0-.01.02-.02.02-.03.2-.66.21-1.3-.14-1.92-.19-.34-.49-.57-.87-.7Zm-.96,2.67c-.36.05-.72.01-1.08.02-.08,0-.07-.05-.07-.1,0-.25,0-.5,0-.75,0-.25,0-.5,0-.75,0-.08.02-.1.1-.1.31,0,.61,0,.92,0,.17,0,.32.05.46.12.15.08.25.2.31.36.05.15.07.3.06.46-.02.39-.25.69-.7.75Z"/>
      <path class="cls-7" d="m40.48,23.29s.02-.02.02-.03c-.02,0-.03.01-.02.03Z"/>
      <path class="cls-7" d="m37.99,26.41c-.05-.18-.14-.34-.28-.47-.03-.05-.07-.09-.12-.12-.12-.12-.25-.22-.41-.27-.01,0-.02-.02-.03-.02-.19-.08-.38-.15-.57-.21-.11-.03-.2-.09-.32-.09-.01,0-.02-.02-.03-.02-.23-.07-.45-.14-.68-.21-.01,0-.02-.02-.03-.02-.09-.04-.17-.09-.24-.16-.08-.08-.15-.17-.14-.29.03-.02.03-.04,0-.06.02-.17.11-.27.29-.32.18-.05.37-.04.56-.01.27.05.53.12.78.22,0,.02.01.03.03.02.04.01.08.02.12.03,0,.02.01.03.03.02.19.06.37.15.53.26.04.06.05.03.06-.02.05-.12.1-.24.15-.36h0s.02-.02.02-.03c.08-.18.17-.35.24-.53,0-.01.02-.02.02-.03,0,0-.01,0-.02,0,0,0,0,0,.02,0,.01-.02.02-.04.03-.07.05-.11.05-.13-.06-.19-.09-.05-.17-.1-.27-.14-.01,0-.02-.02-.03-.02h0c-.06-.02-.11-.06-.18-.07-.01,0-.02-.02-.03-.02-.07-.02-.14-.04-.21-.06-.01,0-.02-.02-.03-.02h0s-.04,0-.06,0c-.01,0-.02-.02-.03-.02-.03,0-.06,0-.1-.02-.16-.06-.32-.09-.49-.11-.01,0-.02-.02-.03-.02,0,0,0,0,0,.01,0,0,0,0,0-.01-.34-.05-.69-.07-1.03-.03-.37.04-.73.12-1.05.31-.59.34-.88.9-.81,1.62.03.34.18.62.43.85.21.19.46.33.72.42.3.1.6.21.91.27,0,.02.01.03.03.02.15.01.27.09.42.12,0,.02.01.03.03.02.1.02.17.09.25.15.2.15.22.56-.11.71-.19.08-.38.1-.58.08-.26-.02-.51-.08-.75-.17-.01,0-.02-.02-.03-.02-.04-.01-.08-.02-.12-.04-.01,0-.02-.02-.03-.02-.15-.06-.3-.14-.44-.22-.09-.05-.2-.07-.27-.16-.04,0-.07-.02-.08-.06-.02,0-.03,0-.03-.03-.04,0-.07-.02-.07-.07-.06-.04-.1-.03-.13.04-.15.33-.31.67-.49.99-.03.06,0,.07.03.09.28.22.59.41.92.54,0,.02.01.03.03.02.11.02.2.09.3.11.21.04.4.11.61.14.29.04.58.06.87.05.38-.02.74-.1,1.08-.26.53-.25.86-.65.95-1.23.04-.26.02-.51-.05-.76,0-.01-.01-.02-.02-.03Z"/>
      <path class="cls-7" d="m38.76,27.3s.02-.02.02-.03c-.02,0-.03.01-.02.03Z"/>
      <path class="cls-7" d="m32.73,27.45s-.06,0-.09,0c-.47,0-.95,0-1.42,0-.45,0-.91,0-1.36,0-.13,0-.13,0-.13-.13,0-.25,0-.5,0-.76,0-.19,0-.17.17-.17.79,0,1.57,0,2.36,0,.14,0,.14,0,.14-.15,0-.3,0-.59,0-.89,0-.04.02-.08-.02-.11,0,0-.02,0-.03,0-.05,0-.11,0-.16,0-.76,0-1.51,0-2.27,0-.03,0-.07,0-.1,0-.07,0-.09-.03-.09-.09,0-.29,0-.57,0-.86-.01-.05-.01-.1.06-.1.02,0,.04,0,.06,0,.92,0,1.83,0,2.75,0,.02,0,.04,0,.06,0,0,0,0-.02,0-.03,0,0,0-.02,0-.03,0,0,0,0,0,0,0,0,0,0,0,0,0-.33,0-.66,0-.99,0-.13,0-.13-.13-.13-.02,0-.04,0-.06,0-1.35,0-2.7,0-4.05,0-.2,0-.19-.02-.19.18,0,1.75,0,3.5,0,5.25,0,.02,0,.05,0,.07,0,.07.02.11.1.1.02,0,.05,0,.07,0,1.39,0,2.78,0,4.16,0,.03,0,.06,0,.09,0,.06,0,.08-.02.08-.08,0-.35,0-.7,0-1.05,0-.02,0-.03-.02-.03Z"/>
      <path class="cls-7" d="m44.44,28.57s-.02.02-.03.03c.02,0,.03,0,.03-.03Z"/>
      <path class="cls-7" d="m38.42,28.1s-.03.01-.02.03c0-.01.02-.02.02-.03Z"/>
      <path class="cls-7" d="m38.31,28.34s.02-.02.02-.03c-.02,0-.03.01-.02.03Z"/>
    </g>
    <g>
      <g>
        <path class="cls-5" d="m21.52,26.31c.04.37.03.75.03,1.12,0,.29-.1.55-.32.76-.19.19-.43.28-.69.29-.69,0-1.38,0-2.07,0-.57,0-1.01-.47-1.01-1.02,0-.27,0-.54,0-.81,0-.01.01-.02.03-.03.01,0,.02,0,.03,0-.12-.03-.24-.05-.36-.08-.06-.01-.12-.03-.18-.04-.04,0-.08,0-.11-.01,0,2.01,0,4.01,0,6.02,0,.13.04.25.1.36.22.36.53.54.95.54,1.07,0,2.13,0,3.2,0,.12,0,.23-.02.35-.06.18-.06.33-.18.45-.32.14-.17.23-.36.23-.58,0-2.17,0-4.34,0-6.51-.21.13-.42.25-.62.38Z"/>
        <path class="cls-5" d="m17.5,26s-.04-.08-.04-.12c0-.66-.01-1.31,0-1.97,0-.36.21-.62.52-.81.18-.11.38-.13.58-.13.62,0,1.24,0,1.87,0,.31,0,.59.07.82.31.19.2.28.44.29.71,0,.18,0,.37,0,.55.19.07.36.18.56.25.01,0,.02,0,.04,0,0-1.25,0-2.5,0-3.75,0-.06.01-.12-.02-.17-.08-.14-.19-.24-.35-.26-.17-.02-.32.04-.43.18-.08.1-.07.23-.08.35-.02.14.02.28.02.43,0,.13-.02.16-.14.13-.09-.02-.18-.02-.26-.02-.39,0-.78,0-1.17,0-.65.01-1.29-.03-1.94.02-.34.03-.57.2-.75.46-.08.11-.15.24-.15.39,0,1.25,0,2.5,0,3.75.24-.04.44-.15.63-.29Z"/>
      </g>
      <path class="cls-2" d="m22.15,24.8s-.03,0-.04-.02c.01,0,.02,0,.04,0,0,0,0,.01,0,.02Z"/>
      <path class="cls-2" d="m22.41,24.95s-.03,0-.03-.02c0,0,.02.02.03.02Z"/>
      <g>
        <path class="cls-2" d="m21.55,24.53c.19.07.37.18.56.25,0,.01.02.02.04.02.07.06.16.08.24.13,0,.02,0,.03.03.02.15.05.3.13.45.21-.1.16-.22.3-.34.43-.11.12-.25.22-.37.34-.21.13-.42.25-.62.38-.12.01-.22.07-.33.11-.29.1-.59.18-.89.23-.2.03-.41.04-.61.08-.02,0-.04,0-.06,0-.02,0-.05,0-.07,0-.48.01-.95,0-1.43-.05-.2-.02-.4-.07-.6-.07-.12-.03-.24-.05-.36-.08-.06-.01-.12-.03-.18-.04.04-.04.09-.02.14-.03.1,0,.21,0,.31,0,.44-.06.85-.2,1.23-.44.09-.06.2-.1.27-.2.06,0,.1-.05.15-.09.55-.45.98-1,1.33-1.61.02-.04.03-.08.08-.11.35.19.72.33,1.07.53Z"/>
        <path class="cls-4" d="m18.37,25.3c-.08-.11-.08-.11-.17,0-.19.25-.4.47-.65.66-.02.01-.03.02-.05.03-.19.14-.39.26-.63.29-.11.04-.22.05-.33.04-.05-.03-.12,0-.17-.02-.01-.02-.03-.03-.04,0-.01.03.02.03.04.04.05.05.12.03.18.03,0,0,0,0,0,0l.03.02c.1.02.2.05.29.07.04,0,.08,0,.11.01.04-.04.09-.02.14-.03.1,0,.21,0,.31,0,.44-.06.85-.2,1.23-.44.09-.06.2-.1.27-.2-.23-.13-.4-.31-.55-.52Z"/>
      </g>
      <path class="cls-1" d="m17.49,26.62s-.02.02-.03.03c0-.01.01-.02.03-.03Z"/>
      <path class="cls-2" d="m19.62,26.73s.04-.01.06,0"/>
    </g>
  </g>
</svg>