<?xml version="1.0" encoding="UTF-8"?>
<svg id="Calque_1" data-name="Calque 1" xmlns="http://www.w3.org/2000/svg" viewBox="0 0 54 54">
  <defs>
    <style>
      .cls-1 {
        fill: #020202;
      }

      .cls-2 {
        fill: #f27e21;
      }

      .cls-3 {
        fill: #fbfdfc;
      }

      .cls-4 {
        fill: #fdfdfd;
      }

      .cls-5 {
        fill: #53cef1;
      }

      .cls-6 {
        fill: #4ad0f8;
      }

      .cls-7 {
        fill: #fff;
        fill-rule: evenodd;
      }
    </style>
  </defs>
  <path class="cls-7" d="m26.49,49.05c12.18,0,22.05-9.87,22.05-22.05S38.67,4.95,26.49,4.95,4.43,14.82,4.43,27s9.87,22.05,22.05,22.05Z"/>
  <path class="cls-6" d="m48.54,27c0,12.18-9.87,22.05-22.05,22.05S4.43,39.18,4.43,27,14.31,4.95,26.49,4.95s22.05,9.87,22.05,22.05Z"/>
  <g>
    <path class="cls-1" d="m17.88,18.91c.22-.34.5-.63.86-.81.22-.11.48-.12.7.03.04.03.1.05.15.07.14.18.33.3.5.44.24.2.43.45.71.6.13.16.29.28.46.4.19.26.5.4.7.65.01.02.05.04.06.01.02-.04.01-.09.02-.13.07-.15.07-.3.09-.46.06-.43.12-.85.18-1.28.05-.34.09-.68.14-1.02.06-.43.14-.85.17-1.28,0,0,0,0,0,0,.05-.03.03-.07.03-.12.02-.17.03-.34.05-.5.05-.21.19-.39.16-.62.04-.01.03-.04.04-.07.14-.29.28-.57.42-.86.04-.12.14-.19.2-.3.2-.13.31-.35.49-.49.05-.04.13-.08.13-.18.03,0,.05,0,.08,0,.12-.09.26-.15.35-.26.14-.1.32-.15.43-.3.11,0,.22-.03.32-.1.06-.04.13-.09.2-.11.69-.17,1.39-.31,2.11-.19.12.04.25.06.38.07.17.02.32.1.47.16.13.07.25.15.39.18.09,0,.16.04.23.09.19.21.47.31.7.47.1.1.19.22.31.3.09.2.27.34.39.52.04.05.08.1.11.14-.03.15.1.23.16.34.13.25.22.52.32.78,0,.02,0,.04.02.04.08.35.09.7.2,1.04,0,.19,0,.39.05.58,0,.03-.04.04-.02.08.1.24.1.49.13.74.05.36.1.72.14,1.07.05.41.13.82.18,1.24.03.32.1.65.16.97-.04.09.04.15.04.23,0,.05-.01.1,0,.15.09.62.18,1.24.28,1.86.03.23.07.47.1.7.05.35.05.71.16,1.04.08.19-.01.4.07.58.02.16.02.33.05.49.05.26.04.53.15.78,0,.09,0,.18,0,.27-.02.2.06.39.08.58,0,.01,0,.03,0,.04-.01.12.03.24.08.35,0,.03,0,.05,0,.08,0,.04,0,.08,0,.12.01.03.03.05.04.08,0,.4.03.8,0,1.2-.07.23-.03.47-.08.7-.04.05-.08.07-.09.15,0,.14,0,.29-.06.4-.08.17-.16.34-.2.53.02.08-.11.1-.08.19-.05.07-.12.14-.13.23-.04.11-.14.19-.15.31-.13.08-.19.21-.23.35-.02.04-.07.05-.06.11-.19.1-.25.32-.41.44-.02,0-.04,0-.06,0-.56-.4-1.2-.43-1.84-.29-.57.12-1.06.42-1.41.91-.16.24-.32.47-.38.76-.04.2-.08.4-.13.61-.05.12-.16.11-.26.11-.41,0-.83,0-1.24,0,0-.56-.17-1.06-.52-1.51-.46-.58-1.06-.87-1.79-.92-.53-.04-1.02.11-1.48.36-.33-.3-.48-.72-.73-1.07-.13-.18-.19-.41-.35-.58-.07-.13-.03-.29-.12-.41-.06-.34-.14-.67-.23-1.01h0c-.05-.62-.04-1.23,0-1.85,0,0,0,0,0,0,.13-.39.12-.8.15-1.21,0,0,0-.02,0-.03.14-.41.09-.81-.04-1.22-.09-.3-.23-.57-.45-.81-.36-.39-.75-.77-1.13-1.14-.4-.4-.79-.8-1.21-1.18-.06-.15-.2-.24-.31-.35-.1-.18-.17-.38-.31-.54,0-.19-.15-.35-.16-.54-.05-.29-.02-.58-.03-.87.06-.24.12-.48.19-.72l.04-.08c.08-.1.15-.21.17-.34Zm6.15,10.14s0,.04.03.05c.02.06-.03.13.04.18,0,.03,0,.05.01.08-.01.03,0,.04.03.04,0,.02,0,.05,0,.07.14.44.3.87.57,1.24,0,.01,0,.02,0,.03.12.17.23.35.38.5.01.01.03.03.04.04,0,.04,0,.08.05.1h.01c.06.11.16.16.25.22.07.07.11.18.23.19.1.12.24.19.38.24,0,.02.02.03.04.02.18.1.37.17.58.19.09,0,.18,0,.27,0,.12,0,.24.05.35-.03.25-.07.49-.14.7-.31.12-.03.21-.1.28-.2.01,0,.02,0,.02-.02.07-.02.12-.06.16-.13.08,0,.12-.04.12-.12.02-.02.03-.03.05-.05.01,0,.02,0,.02-.02.05-.06.11-.11.16-.17.27-.35.51-.73.69-1.14.33-.77.51-1.57.58-2.4.04-.47.08-.94,0-1.42,0-.22-.05-.44-.08-.66,0-.05.03-.11-.03-.15-.02-.05.04-.12-.04-.16,0-.05,0-.1,0-.15.02-.06-.05-.1-.04-.15-.04-.17-.07-.34-.15-.5.04-.09-.03-.14-.07-.2,0-.01,0-.02,0-.03,0-.04.02-.09-.03-.12,0-.03,0-.07-.04-.07,0-.07-.03-.13-.06-.19-.02-.03,0-.08-.05-.08-.02-.13-.08-.24-.16-.35-.04-.08-.09-.16-.13-.25-.07-.1-.13-.2-.2-.3-.04-.06-.09-.12-.13-.18-.07-.08-.14-.17-.21-.25-.07-.09-.14-.19-.26-.23-.06-.11-.18-.16-.28-.23-.16-.1-.32-.19-.5-.24-.01-.05-.05-.04-.08-.03-.44-.12-.88-.18-1.32.02-.13.02-.23.12-.35.17-.08.02-.14.07-.19.12-.12.07-.21.16-.3.26-.02.02-.03.03-.05.05-.09.02-.12.11-.16.18-.04.04-.08.08-.12.12-.05.06-.15.1-.15.2-.07.09-.16.16-.19.27-.09.08-.13.2-.19.31-.06.08-.1.16-.09.26-.12.2-.24.39-.26.63-.03.03-.06.07-.05.12-.04.07-.06.15-.06.23,0,.05-.08.09-.04.15-.05.14-.08.28-.1.42-.05.02-.03.05-.02.09,0,.02,0,.04,0,.06-.07.17-.1.34-.08.52,0,.02-.01.05-.02.07-.04.07-.05.15-.06.24,0,.13-.04.26.03.39-.03.13-.03.26,0,.39-.02.04-.02.08,0,.12v.23c-.05.09-.06.17.04.24,0,.08-.07.15-.03.23,0,.05-.04.12.03.16,0,.06,0,.13,0,.19-.02.05.02.08.04.12,0,.01,0,.03,0,.04,0,.08-.05.17.04.23-.03.07.04.13.04.2,0,.03-.03.06.02.08.02.06-.03.14.04.19,0,.01,0,.03,0,.04Zm.24-11.26c.08.12.12.23.21.29.26.17.48.37.78.49.4.16.8.31,1.22.33.53.03,1.07.04,1.6-.14.41-.14.81-.29,1.17-.55.09-.07.18-.14.25-.24.09-.12.06-.19-.09-.2-.64-.04-1.22-.28-1.77-.6-.57-.33-.81-.32-1.44.07-.22.13-.44.25-.68.33-.38.14-.78.2-1.23.21Zm1.84-1.88c.03-.39-.28-.64-.6-.66-.31-.02-.61.36-.6.68,0,.29.3.7.52.68.43-.04.7-.3.68-.7Zm2.87.01c.05-.35-.28-.66-.56-.68-.38-.03-.64.35-.64.66,0,.35.26.67.55.67.4,0,.65-.25.65-.65Z"/>
    <path class="cls-3" d="m19.02,40.24c-.09-.22-.1-.46-.23-.66-.01-.12,0-.25-.12-.4-.03.43-.24.76-.31,1.14,0,0,0,0,0,0-.03.02-.03.05-.03.08,0,.05,0,.09-.01.14-.14.22-.18.46-.23.71,0,0,0,0,0,0-.1.14-.13.32-.18.48-.04.11-.09.15-.21.15-.36,0-.72,0-1.08,0,0,0-.02,0-.03,0-.04-.1-.05-.22-.12-.3,0,0,0,0,0,0-.18-.59-.38-1.17-.62-1.74,0-.02,0-.05-.01-.07,0-.01-.02-.02-.03-.04h0c-.09-.25-.16-.5-.27-.74-.08-.18-.09-.38-.21-.54-.03-.09-.05-.18-.08-.27-.06-.18-.12-.36-.19-.53-.05-.12-.03-.16.1-.16.39,0,.78,0,1.18,0,.09,0,.11.03.14.11.05.13.07.28.18.39,0,.04,0,.08,0,.12,0,.03-.01.05,0,.08.1.33.21.65.32.98,0,.02.04.03.06.04,0,.08-.03.16.03.23.01.16.07.31.13.46.02.04-.02.12.07.11.08,0,.1-.07.09-.14-.03-.23.08-.41.18-.59.02-.03.05-.07.05-.1.03-.36.2-.69.26-1.04.03-.15.15-.27.13-.43-.02-.15.06-.21.22-.21.4,0,.81,0,1.22,0,.04.2.09.4.19.59-.06.07-.03.14,0,.22.04.13.09.25.13.38.05.22.13.43.19.64,0,.01,0,.03,0,.04.05.25.13.49.23.74.05-.09.04-.14.04-.2.03-.05.05-.11.08-.16.1-.19.17-.39.16-.61,0,0,0,0,0,0,.09-.02.07-.1.08-.15.01-.06,0-.12.04-.18.09-.12.09-.27.14-.41,0-.06,0-.13.01-.19.11-.22.19-.45.24-.69.03,0,.07,0,.1-.01.37,0,.75.01,1.12,0,.15,0,.23.03.21.2,0,.01,0,.03,0,.04-.02.01-.05.02-.06.04-.09.24-.17.49-.25.73-.07.05-.02.14-.08.19-.09.13-.08.28-.12.43-.05.13-.08.26-.16.38-.04.02-.06.06-.08.1-.07.23-.15.45-.23.68,0,.01,0,.03,0,.04-.07.22-.21.41-.21.65,0,0,0,0,0,0-.08.09-.12.19-.11.31-.02.1-.1.19-.09.3-.08,0-.08.08-.1.13-.06.15-.15.21-.32.19-.19-.02-.39,0-.58,0q-.39,0-.53-.37s-.03-.1-.05-.14c-.13-.37-.26-.74-.38-1.11Z"/>
    <path class="cls-3" d="m37.49,38.42c.01.07.11.08.11.15-.01.07.02.14.04.2.12.42.11.84.04,1.26,0,0,0,0,0,0-1.01,0-2.02,0-3.02,0-.07,0-.15-.04-.21.04-.01.05-.03.11.01.16.03.13.09.24.17.34.06.11.16.15.26.2.31.2.64.18.97.1.11-.02.25-.02.29-.18,0,0,0,0,0,0,.06,0,.07-.04.07-.08.02-.03.05-.05.07-.08.34,0,.67,0,1.01,0q.4,0,.26.39s-.05.08-.07.12c-.07.09-.12.18-.2.25-.31.32-.7.49-1.13.59-.49.12-.96.1-1.44.01-.3-.06-.56-.2-.82-.35-.02-.02-.05-.03-.07-.05-.02-.03-.03-.06-.05-.08-.36-.3-.56-.69-.66-1.15-.08-.35-.04-.7-.06-1.05,0-.05,0-.1.01-.15.05-.03.03-.08.03-.12,0-.01,0-.02,0-.03.07-.06.1-.14.11-.24,0-.02,0-.04,0-.06.08-.07.08-.16.11-.25,0-.06.03-.09.07-.12.15-.12.29-.25.39-.42.13-.03.19-.14.27-.22.06,0,.12,0,.18-.04.33-.15.67-.23,1.04-.25.35-.02.68.05,1.02.13.13.05.26.1.39.15.03.06.09.08.15.08,0,0,0,0,0,0,.23.18.41.42.62.61,0,.02.01.03.02.05,0,.02.02.05.02.07Zm-2.14.74c.26,0,.53,0,.79,0,.06,0,.14.03.15-.07.02-.19-.04-.5-.28-.64-.32-.18-.66-.17-.99-.13-.28.04-.6.46-.59.71,0,.1.03.14.13.14.26,0,.53,0,.79,0Z"/>
    <path class="cls-3" d="m23.21,37.84s.02,0,.03,0c.02,0,.03,0,.03-.03,0,0,0,0,0,0,.32-.26.69-.42,1.1-.45.54-.05,1.04.07,1.44.48.03.03.07.07.12.05.06-.02.06-.07.07-.13,0-.1,0-.19,0-.29,0,0,0,0,0,0,.46,0,.93,0,1.39,0,0,0,0,0,0,0,0,1.42,0,2.84,0,4.25,0,.13-.04.17-.17.16-.3,0-.59,0-.89,0-.34,0-.34,0-.34-.35,0-.06.03-.15-.04-.17-.08-.02-.1.08-.13.14-.01.02-.02.05-.03.07-.17.1-.31.25-.5.33-.08.04-.15.06-.24.06,0,0-.01-.01-.01-.01v.02s-.07,0-.1.01c-.53.08-1.03-.01-1.5-.3-.04-.03-.07-.08-.13-.06-.21-.15-.38-.33-.5-.56-.07-.14-.09-.3-.19-.42,0-.24-.07-.47-.12-.7,0-.18,0-.35,0-.53.05-.22.09-.44.14-.66.04-.12.08-.23.13-.35.07-.02.11-.07.12-.15.01-.02.02-.03.03-.05.08-.12.22-.21.28-.35Zm.92,2.48h0c0,.05.02.1.05.14.23.29.64.43,1.01.33.33-.01.52-.23.71-.45,0,.07.03.15-.04.22-.11.1-.03.17.06.2.18.06.19.22.13.33-.09.17.04.27.03.46.08-.11.05-.18.07-.24.02-.06.07-.13.13-.12.1.01.01.09.02.14,0,.06,0,.13,0,.19,0,.08.03.12.11.12.21,0,.42,0,.59,0,0-1.28,0-2.54,0-3.79.09-.03.21.09.31-.06-.17,0-.26-.06-.24-.24-.13.18-.54.21-.76.05.02.1-.07.2.08.25-.02.1.05.22-.08.29-.13.07-.13.16,0,.25.03.02.05.06.07.09.02.05.04.1-.03.13-.05.02-.09,0-.12-.04-.02-.04-.04-.09-.09-.1-.06,0-.17,0-.12.07.07.11.02.25.12.34.17.14.19.32.17.52,0,.05.01.1.05.14.03.04.04.09.02.13-.12.14-.02.34-.13.49-.03.03-.01.11.03.16.1.15-.04.24-.09.35-.02.04-.08.03-.12,0-.05-.03-.06-.06-.04-.11.04-.1.02-.19-.09-.24,0-.11.09-.2.07-.31.07-.04.12-.11.1-.19-.04-.25-.03-.52-.18-.75-.05-.19-.2-.28-.35-.38-.34-.23-.69-.2-1.04-.07-.25.06-.35.26-.46.46-.04.02-.03.05-.02.08-.17.4-.14.79.09,1.16Z"/>
    <path class="cls-3" d="m28.86,39.68c.01-.07-.06-.09-.09-.15.03-.18-.03-.33-.15-.46-.06-.04,0-.13-.07-.16-.04-.24-.16-.45-.28-.65-.01-.04-.03-.08-.04-.12-.02-.2-.11-.37-.27-.5,0-.01,0-.03,0-.04.02-.06-.06-.15.04-.19.02,0,.05,0,.07,0,.13.03.26.04.4.04.28,0,.56,0,.84,0,.11,0,.19.02.24.12.01.02.02.03.03.05,0,.13.01.25.11.34.1.1.09.24.11.37,0,.05-.01.1.04.14.04.22.09.44.24.62,0,0,0,0,0,0,.05.39.23.74.38,1.14.06-.14.14-.23.11-.36.14-.24.16-.51.25-.77.03,0,.05-.02.07-.05.13-.23.17-.48.23-.73,0,0,0,0,0,0,.13-.13.16-.29.19-.46,0-.01,0-.03,0-.04.08-.1.1-.22.13-.34.03,0,.07,0,.1-.01.48,0,.96,0,1.43,0,0,0,0,0,0,0-.02.06-.05.12-.06.18-.03.15-.15.28-.17.44-.02.04-.03.08-.05.11-.15.29-.29.58-.39.89-.05.03-.03.08-.03.12-.15.14-.18.34-.25.52-.03.08-.13.15-.06.26-.01.01-.02.03-.03.04-.18.29-.31.59-.4.92,0,0,0,0,0,0-.18.2-.23.46-.31.7,0,0,0,.02,0,.02-.1.05-.07.24-.27.22-.38-.02-.77-.01-1.15-.01,0,0,0,0,0,0-.06-.21-.14-.41-.27-.58-.03-.1-.06-.2-.09-.3,0-.02,0-.03-.03-.04h0c-.08-.2-.14-.4-.24-.59-.07-.15-.1-.33-.23-.45,0-.01-.02-.03-.03-.04-.01-.06.02-.15-.08-.16Z"/>
    <path class="cls-2" d="m22.4,32.85c.46-.25.95-.4,1.48-.36.73.05,1.33.34,1.79.92.35.44.52.94.52,1.51,0,.01-.01.03-.02.04h-.01s-.01,0-.01,0c-.01,0-.03,0-.04,0-1.54,0-3.07,0-4.61,0-.06,0-.12,0-.16.05-.1-.08-.1-.16-.09-.29.03-.26.13-.5.2-.75.07-.21.26-.36.31-.58.03-.03.05-.05.08-.08.15-.19.37-.29.54-.46Z"/>
    <path class="cls-2" d="m27.69,34.83c.04-.2.08-.4.13-.61.06-.28.22-.52.38-.76.35-.5.84-.79,1.41-.91.63-.13,1.27-.1,1.84.29.01,0,.04,0,.06,0,.32.26.59.54.8.89.06.09.03.23.16.28-.02.15.08.27.12.4-.02.12.03.22.05.33.02.12,0,.21-.16.2-.07,0-.14,0-.21,0-1.5,0-3,0-4.5,0-.02,0-.04,0-.05,0-.01-.05-.02-.09-.03-.14Z"/>
    <path class="cls-5" d="m32.34,39.07c.11-.31.24-.6.39-.89-.02.1.08.14.1.22.07,0,.05-.06.09-.08.04-.03.09-.03.12.02.02.04.02.09-.02.1-.19.07-.15.27-.18.4-.04.2-.01.41-.01.62,0,.05-.01.11.07.11.06,0,.07-.06.09-.11.02-.08-.06-.19.08-.23.02.35-.01.7.06,1.05.1.46.3.85.66,1.15.02.02.03.05.05.08-.14.09-.29.02-.47.05.05-.11.21-.04.19-.18-.02-.1-.11-.12-.16-.18-.12-.13-.27-.25-.26-.45,0-.11-.12-.19-.07-.31-.09.01-.06.11-.13.14-.05-.06-.05-.14-.02-.18.13-.18.01-.38.06-.56.01-.05.02-.13-.07-.13-.09,0-.08.07-.08.12.03.3-.07.61.06.91.01.04,0,.06-.11.19-.12-.36-.18-.72-.04-1.08.05-.12-.09-.19-.07-.31.02-.14,0-.29,0-.42-.06-.03-.07,0-.08.02-.06.1-.12.17-.16-.01,0-.04-.05-.04-.08-.05Zm.22-.12s-.02,0-.03-.01c0,.01-.02.02-.01.03,0,0,.02,0,.03.01,0-.01,0-.02.01-.03Z"/>
    <path class="cls-5" d="m27.77,34.97c1.5,0,3,0,4.5,0,.07,0,.14,0,.21,0,.15.01.18-.08.16-.2-.02-.11-.08-.22-.05-.33.21.08.17.29.22.45.04.12-.03.26.07.37.02.03.01.09-.03.1-.05.01-.11.02-.15,0-.05-.02-.05-.07-.02-.12.03-.04.08-.09.04-.14-.05-.07-.08.04-.13.03-.04,0-.09,0-.13,0-1.33,0-2.67,0-4,0-.08,0-.16,0-.24-.05-.03-.02-.21-.14-.15.08,0,.04-.04.04-.07.04-.11,0-.23,0-.35-.02.07-.06.17-.1.14-.22Z"/>
    <path class="cls-5" d="m28.01,37.42c-.1.04-.02.13-.04.19-.06,0-.12,0-.17-.02-.06-.04-.09-.05-.1.03,0,.03-.02.06-.05.04-.26-.14-.18.09-.18.18,0,1.18,0,2.37,0,3.55,0,.17-.03.34.07.51.04.07.03.13-.08.13-.05,0-.11.04-.15.03-.26-.12-.52,0-.78-.03-.04,0-.09,0-.11-.02-.07-.06-.12-.03-.15.03-.04.09.09.04.09.1-.23.09-.31.05-.3-.17-.07.03-.13.04-.19.08-.06.04-.12.08-.18.01-.02-.03-.07-.05-.04-.09.04-.05.08-.1.16-.09.06,0,.15-.04.11-.08-.07-.07.08-.23-.11-.23.01-.02.02-.05.03-.07.03-.06.06-.16.13-.14.07.02.04.11.04.17,0,.35,0,.35.34.35.3,0,.59,0,.89,0,.13,0,.17-.03.17-.16,0-1.42,0-2.84,0-4.25.06-.02.09.1.16.03.06-.06.09-.12.02-.2,0,0,0-.04,0-.05.02,0,.07-.01.07,0,.05.2.26.1.36.19Z"/>
    <path class="cls-5" d="m21.35,35.01c.04-.05.1-.05.16-.05,1.54,0,3.07,0,4.61,0,.01,0,.03,0,.04,0-.03.05-.08.06-.13.08-.02,0-.06,0-.07.02-.05.05-.17.08-.25.07-.06-.01-.12,0-.17,0-1.32,0-2.65,0-3.97,0-.08,0-.21.05-.2-.12Z"/>
    <path class="cls-5" d="m21.78,33.39c-.06.22-.24.37-.31.58-.01-.21-.09-.42.01-.63.05-.1.02-.2.03-.3.07,0,.15.02.24-.05-.11-.02-.19-.08-.24.05-.06,0-.08-.04-.07-.09,0-.05.04-.07.08-.06.15.03.27-.1.43-.09.15.01.13-.15.08-.19-.21-.17-.25-.43-.36-.65-.11-.2-.22-.41-.32-.61-.03-.05-.03-.1-.02-.15.15.17.22.4.35.58.25.35.4.77.73,1.07-.17.17-.39.27-.54.46-.06-.01-.13-.11-.18-.05-.05.07.06.09.1.12Zm-.01-.26s-.02.02-.01.03c0,0,.02.01.03.01,0-.01.02-.02.01-.03,0,0-.02-.01-.03-.01Z"/>
    <path class="cls-5" d="m32.46,34.02c-.13-.05-.11-.19-.16-.28-.21-.35-.49-.64-.8-.89.16-.12.22-.34.41-.44.09.08.07.15-.03.19-.07.03-.1.08-.05.13.06.06.04-.08.12-.05-.02.11.06.2.05.32,0,.14.11.23.27.19,0,.04,0,.09-.02.13-.01.04-.08.08.01.09.05.01.08-.02.09-.08,0-.06.02-.14-.07-.15.01-.11-.21-.05-.14-.18.08-.15.16.03.24.03.11,0,.13-.08.19-.19.01.15.09.26-.05.34,0-.03,0-.06-.05-.06,0,0-.01,0-.01.01,0,.04.03.04.06.05-.04.16.12.3.08.46-.01.05.02.13-.04.14-.18.04-.08.15-.08.23Z"/>
    <path class="cls-5" d="m31.93,20.88c-.05-.32-.13-.64-.16-.97-.04-.41-.12-.82-.18-1.24-.04-.36-.09-.72-.14-1.07-.03-.25-.03-.51-.13-.74-.02-.04.02-.06.02-.08.07,0,.16,0,.15.1-.05.32.12.61.15.93,0,.07.02.14.01.21-.02.23.03.44.13.64.04.08-.01.12-.04.17-.03.08-.04.17,0,.24.04.07.09-.05.15-.02-.11.24.03.46.03.69,0,.11.07.21-.02.33-.05.06-.02.15,0,.22.08.2.07.4.02.6Z"/>
    <path class="cls-5" d="m16.66,37.95c-.11-.1-.13-.26-.18-.39-.03-.08-.05-.11-.14-.11-.39,0-.78,0-1.18,0-.13,0-.15.04-.1.16.08.17.13.36.19.53-.16-.05-.27-.14-.27-.32,0-.16-.11-.29-.08-.45.01-.06,0-.11.09-.12.42-.06.83-.03,1.25-.04.17,0,.36.17.36.35,0,.13,0,.26.04.38Z"/>
    <path class="cls-5" d="m19.41,37.44c-.41,0-.81,0-1.22,0-.16,0-.24.06-.22.21.02.17-.11.28-.13.43-.06.35-.23.68-.26,1.04,0,.03-.03.07-.05.1-.09.19-.21.37-.18.59,0,.07,0,.14-.09.14-.08,0-.05-.07-.07-.11-.05-.15-.11-.3-.13-.46.14,0,.06.16.16.19.12-.09.08-.28.18-.38-.18-.15-.07-.36-.1-.53,0-.02,0-.04,0-.06,0-.06-.02-.15.08-.14.11,0,.09.12.06.17-.05.11-.08.23-.07.35,0,.04,0,.08.06.08.04,0,.05-.03.06-.07.04-.33.22-.62.23-.96,0-.05-.01-.09-.03-.13-.04-.09-.05-.15.07-.15.04,0,.07-.02.08-.07.07-.31.16-.36.48-.3.2.04.41.02.61,0,.15-.02.32-.09.46.05Z"/>
    <path class="cls-5" d="m22.63,16.16c-.03.43-.11.85-.17,1.28-.05.34-.09.68-.14,1.02-.06.43-.12.85-.18,1.28-.02.15-.02.31-.09.46-.06-.34.11-.66.08-1-.01-.14-.02-.28.04-.41.06-.13-.12-.25-.01-.38.08-.02.02.11.1.1,0-.01.02-.03.02-.04,0-.02,0-.05,0-.08-.05-.38.1-.74.09-1.12,0-.13.12-.29.05-.42-.07-.14-.06-.27-.06-.41,0-.27,0-.27.27-.27Z"/>
    <path class="cls-5" d="m26,37.45c0,.1,0,.19,0,.29,0,.05,0,.11-.07.13-.05.02-.09-.02-.12-.05-.4-.41-.9-.53-1.44-.48-.41.03-.78.19-1.1.45-.02-.08.08-.12.08-.19,0,0,0-.01,0-.02,0,0,0,.01,0,.02-.15-.1-.07-.24-.05-.36,0-.04.08-.04.12,0,.07.08.2.01.26.1,0,0,.02,0,.02,0,.22-.25.47.02.72-.04.18-.05.38,0,.58-.01.23,0,.44.05.63.2.11.09.26.1.38-.04Z"/>
    <path class="cls-5" d="m29.56,37.57c-.05-.1-.13-.12-.24-.12-.28,0-.56,0-.84,0-.13,0-.27,0-.4-.04-.03-.16.09-.18.19-.19.36,0,.72-.03,1.08,0,.18.02.28.21.34.37.04.09,0,.21.07.31.02.03-.04.04-.07.05-.1-.1-.12-.21-.11-.34-.01-.02-.02-.03-.03-.05Z"/>
    <path class="cls-5" d="m33.89,41.56c.26.15.52.29.82.35.48.09.96.1,1.44-.01.44-.1.82-.28,1.13-.59.08-.08.13-.17.2-.25.1.13-.03.2-.08.27-.1.14-.25.24-.32.4-.03.07-.1.06-.17.06h0s-.02-.05-.03-.06c-.04,0-.04.03-.05.06h0c-.21,0-.37.15-.57.18-.54.08-1.09.09-1.63,0-.18-.03-.35-.14-.55-.14-.06,0-.15-.11-.24-.15-.05-.02.06-.07.04-.13Z"/>
    <path class="cls-5" d="m19.02,40.24c.13.37.26.74.38,1.11.02.05.03.1.05.14q.14.37.53.37c.19,0,.39-.01.58,0,.17.02.26-.05.32-.19.02-.05.02-.12.1-.13.06.23-.06.39-.27.39-.33,0-.66,0-.99,0-.21,0-.3-.08-.35-.28-.11-.39-.23-.77-.34-1.15-.02-.08-.01-.18-.01-.27Z"/>
    <path class="cls-5" d="m32.24,23.12c-.09-.62-.19-1.24-.28-1.86,0-.05,0-.1,0-.15.22-.03.11.17.18.25.1-.05,0-.18.1-.24.03.11.04.22,0,.32-.14.27-.04.55-.05.83,0,.01,0,.03,0,.04.29.26.13.54.04.82Z"/>
    <path class="cls-5" d="m27.62,12.06c-.72-.12-1.41.01-2.11.19-.07.02-.14.06-.2.11-.1.07-.21.09-.32.1.04-.14.2-.24.16-.42-.01-.05.07-.07.09-.02.08.17.23.13.35.12.24-.02.49-.03.66-.24.03-.04.1-.09.11-.02.03.15.13.11.22.11.29,0,.58,0,.87,0,.07,0,.15-.03.16.09Z"/>
    <path class="cls-5" d="m22.36,37.64c.03-.17-.05-.2-.21-.2-.37,0-.75,0-1.12,0,0-.02-.09-.05,0-.07.1-.01.22.03.26-.13,0-.04.08-.04.1-.01.09.09.21.07.31.06.19-.02.37.05.56.05.26,0,.43.27.35.5-.02-.18-.05-.32-.25-.2Z"/>
    <path class="cls-5" d="m15.34,38.42c.11.16.13.36.21.54.1.24.18.49.27.74-.13.02-.21,0-.2-.17.02-.16-.14-.22-.23-.28-.17-.11-.19-.09-.13-.3.07.02.03.15.14.13.04,0,.05-.03.06-.07.01-.07,0-.15-.07-.19-.21-.11-.18-.25-.05-.4Z"/>
    <path class="cls-5" d="m23.32,41.6c.06-.02.09.03.13.06.46.29.96.37,1.5.3-.01.05-.03.09-.04.14-.14,0-.28,0-.43,0-.41-.03-.79-.14-1.12-.39-.04-.03-.04-.06-.04-.1Z"/>
    <path class="cls-5" d="m29.83,41.86c.38,0,.77-.01,1.15.01.19.01.16-.17.27-.22.01.24-.03.3-.26.29-.25,0-.48.14-.73.08-.15-.04-.32-.03-.43-.16Z"/>
    <path class="cls-5" d="m32.54,31.22c.05-.18.12-.35.2-.53.06-.12.06-.27.06-.4,0-.08.05-.11.09-.15.14.06.04.18.07.27h0c-.15.04-.11.21-.09.25.11.33-.12.43-.33.56Z"/>
    <path class="cls-5" d="m15.85,39.81c.24.57.44,1.15.62,1.74-.19-.07-.19-.25-.23-.4-.07-.28-.18-.54-.28-.81-.07-.16-.14-.34-.11-.53Z"/>
    <path class="cls-5" d="m16.62,41.86c.36,0,.72,0,1.08,0,.12,0,.17-.04.21-.15.06-.16.08-.33.18-.48.04.22-.09.42-.12.63,0,.07-.07.07-.12.07-.37,0-.75,0-1.12,0-.06,0-.1,0-.11-.08Z"/>
    <path class="cls-5" d="m37.56,40.93q.14-.39-.26-.39c-.34,0-.67,0-1.01,0,.01-.1.09-.08.15-.08.38,0,.77,0,1.15,0,.16,0,.2.08.17.2-.03.11-.02.26-.2.27Z"/>
    <path class="cls-5" d="m18.36,40.31c.08-.37.29-.7.31-1.14.13.15.11.28.12.4-.15.18-.34.34-.18.61.04.07,0,.12-.08.12-.06,0-.12,0-.17,0Z"/>
    <path class="cls-5" d="m20.68,38.34c-.05.13-.05.29-.14.41-.05.06-.03.12-.04.18-.01.06.02.14-.08.15,0-.37,0-.73,0-1.1,0-.05-.02-.11.05-.13.02,0,.06,0,.07,0,.05.04.05.12.02.16-.12.18-.04.37-.08.59.14-.13.07-.24.06-.35.08,0,.08.09.15.08Z"/>
    <path class="cls-5" d="m36.29,37.45c-.34-.07-.67-.14-1.02-.13-.36.02-.71.1-1.04.25-.06.03-.12.04-.18.04.02-.12.14-.12.21-.15.57-.25,1.18-.15,1.77-.16.09,0,.21.04.26.15Z"/>
    <path class="cls-5" d="m28.97,39.89c.13.12.16.3.23.45.09.19.16.4.24.59-.06,0-.12.01-.17-.02.07-.18-.05-.4-.24-.44-.04,0-.1-.03-.08-.06.13-.18-.06-.34,0-.51,0,0,.02,0,.03-.01Z"/>
    <path class="cls-5" d="m31.07,15.11c-.1-.26-.19-.53-.32-.78-.06-.11-.19-.18-.16-.34.06,0,.12,0,.12.08,0,.06.02.09.07.13.16.11.19.3.24.47,0,.02,0,.06.02.07.19.11.15.24.02.37Z"/>
    <path class="cls-5" d="m31.99,39.97c-.08-.1.03-.18.06-.26.07-.18.1-.38.25-.52.12.17,0,.34,0,.51,0,.05-.01.12-.04.2-.13-.13-.18.02-.26.07Z"/>
    <path class="cls-5" d="m20.96,29.78c.08.33.17.67.23,1.01-.18,0-.11-.16-.14-.24-.03-.09-.04-.15-.15-.15-.13,0-.09-.09-.07-.16.05-.15.13-.29.13-.45Z"/>
    <path class="cls-5" d="m30.59,39.85c.03.13-.05.21-.11.36-.15-.4-.34-.74-.38-1.14.15.08.18.25.22.38.03.12.07.24.09.36.03.18.1.13.18.04Z"/>
    <path class="cls-5" d="m19.92,39.27c-.07-.21-.14-.43-.19-.64-.03-.13-.08-.25-.13-.38-.03-.07-.05-.14,0-.22.18.21.13.5.27.72.07.11.06.25.14.36.05.08-.03.12-.09.15Z"/>
    <path class="cls-5" d="m20.97,27.93c-.04.62-.05,1.23,0,1.85-.01,0-.04,0-.04,0,0-.21-.18-.4-.07-.64.08-.17,0-.38,0-.57,0-.2.02-.4.04-.6,0-.01.04-.02.07-.03Z"/>
    <path class="cls-5" d="m34.45,40.08c.06-.08.14-.04.21-.04,1.01,0,2.02,0,3.02,0-.06.07-.14.04-.22.04-1.01,0-2.02,0-3.02,0Z"/>
    <path class="cls-5" d="m33,37.45c-.48,0-.96,0-1.43,0-.09-.05.07-.1,0-.15.1.06.21.08.32.08.3,0,.6,0,.91,0,.08,0,.16-.01.2.08Z"/>
    <path class="cls-5" d="m23.32,13.99c-.14.29-.28.57-.42.86,0-.23.08-.44.1-.67.02-.16.17-.18.31-.19Z"/>
    <path class="cls-5" d="m31.29,16.2c-.11-.34-.12-.7-.2-1.04.17.09.23.23.18.41-.03.09-.02.18.03.27.06.11.07.24,0,.36Z"/>
    <path class="cls-5" d="m37.45,38.3c-.21-.2-.39-.44-.62-.61.16-.12.26-.09.33.1.05.13.12.23.22.33.06.05.08.11.07.19Z"/>
    <path class="cls-5" d="m32.76,26.73c-.1-.25-.1-.52-.15-.78-.03-.16-.03-.33-.05-.49.03,0,.08.01.08.04-.02.19.11.34.09.53-.02.16,0,.33.06.49.03.07.04.15-.03.21Z"/>
    <path class="cls-5" d="m27.39,37.45c-.46,0-.93,0-1.39,0,0-.08.06-.08.12-.08.38,0,.76,0,1.14,0,.06,0,.12,0,.13.08Z"/>
    <path class="cls-5" d="m17.04,39.16s-.06-.02-.06-.04c-.11-.33-.22-.65-.32-.98,0-.02,0-.05,0-.08.1-.04.14.03.14.1.03.35.18.66.23,1Z"/>
    <path class="cls-5" d="m21.11,26.73c-.03.4-.02.81-.15,1.21,0-.12,0-.23,0-.35,0-.07.04-.17-.1-.14-.04,0-.05-.04-.04-.07,0-.05.04-.07.08-.07.16.02.14-.09.15-.2.02-.13-.08-.28.07-.38Z"/>
    <path class="cls-5" d="m21.39,40.24c.08-.23.16-.45.23-.68.01-.05.04-.08.08-.1.1.2-.05.36-.09.54-.02.11-.04.25-.22.24Z"/>
    <path class="cls-5" d="m32.97,29.44c.03-.4,0-.8,0-1.2.07.01.07.06.07.11,0,.32,0,.65,0,.97,0,.05,0,.1-.07.11Z"/>
    <path class="cls-5" d="m24.13,13.02c0,.09-.07.13-.13.18-.18.15-.29.36-.49.49-.06-.18.09-.24.19-.32.14-.11.21-.32.43-.35Z"/>
    <path class="cls-5" d="m36.15,40.71c-.03.16-.18.15-.29.18-.33.07-.67.1-.97-.1.13,0,.25,0,.39.06.18.07.39.11.58-.04.08-.06.2-.07.3-.1Z"/>
    <path class="cls-5" d="m29.78,13.03c-.23-.16-.51-.26-.7-.47.11.02.21.05.32.07h0c0,.11.08.11.16.12.17.02.26.09.22.28Z"/>
    <path class="cls-5" d="m32.5,24.87c-.12-.34-.11-.7-.16-1.04.03,0,.08.01.08.04-.02.18.08.34.09.52,0,.12-.02.24.06.35.03.05.02.12-.07.13Z"/>
    <path class="cls-5" d="m37.68,40.04c.07-.42.08-.85-.04-1.26-.02-.07-.05-.13-.04-.2.13.06.16.17.16.3.01.33-.03.67.02,1,0,.03.06.19-.1.16Z"/>
    <path class="cls-5" d="m28.86,12.47c-.14-.03-.26-.11-.39-.18,0-.1.02-.18.15-.16.02,0,.05,0,.06.03.01.04-.09.09.02.11.1.02.07-.09.13-.13.07.11.02.22.04.33Z"/>
    <path class="cls-5" d="m31.14,38.3c-.06.25-.1.51-.23.73-.02.03-.04.05-.07.05,0-.25.15-.46.17-.7,0-.07.07-.09.13-.08Z"/>
    <path class="cls-5" d="m22.86,14.92c.03.23-.1.41-.16.62-.05-.1-.1-.18.02-.29.05-.05.03-.2,0-.3-.02-.06-.1-.12-.03-.16.1-.06.09.07.14.11,0,0,.02.02.03.02Z"/>
    <path class="cls-5" d="m21.08,25.48c.13.4.18.81.04,1.22,0-.23,0-.46,0-.69,0-.11.02-.22-.06-.33-.05-.06,0-.13.03-.2Z"/>
    <path class="cls-5" d="m30.48,13.85c-.12-.18-.3-.31-.39-.52.1,0,.25.02.27.09.04.14.15.26.11.42Z"/>
    <path class="cls-5" d="m31.56,40.92c.09-.33.22-.63.4-.92,0,.08,0,.15,0,.23-.08.14-.16.28-.23.42-.05.1-.04.22-.17.26Z"/>
    <path class="cls-5" d="m31.25,41.63c.08-.24.13-.5.31-.7.04.3-.1.52-.31.7Z"/>
    <path class="cls-5" d="m32.78,38.07c.01-.16.13-.28.17-.44.01-.06.04-.12.06-.18.11,0,.16.08.11.14-.13.13-.17.31-.25.46-.01.02-.06.02-.09.03Z"/>
    <path class="cls-5" d="m22.9,38.23c-.01.07-.05.12-.12.15-.03-.1-.16-.23.09-.25.05,0,.09-.08.11-.14.03-.11.12-.16.23-.14-.07.14-.2.22-.28.35-.01.02-.02.03-.03.05Z"/>
    <path class="cls-5" d="m27.69,34.83s.02.09.03.14c-.52,0-1.03,0-1.55,0,0-.01.01-.03.02-.04.41,0,.83,0,1.24,0,.1,0,.21,0,.26-.11Z"/>
    <path class="cls-5" d="m26.1,35.15h.87s0,.02,0,.03h-.87s0-.02,0-.03Z"/>
    <path class="cls-5" d="m29.56,41.27c.13.18.21.38.27.58-.05,0-.11.01-.12-.06-.01-.13-.11-.16-.23-.19.1-.1.06-.22.07-.33Z"/>
    <path class="cls-5" d="m22.04,38.46c.08-.24.16-.49.25-.73,0-.02.04-.03.06-.04.03.25-.14.44-.18.68,0,.04-.06.1-.13.1Z"/>
    <path class="cls-5" d="m28.27,38.26c.12.21.24.41.28.65-.08,0-.1-.05-.12-.1-.06-.13-.1-.27-.18-.39-.03-.05-.03-.11.02-.16Z"/>
    <path class="cls-5" d="m36.91,41.78c0,.19-.09.3-.26.31-.05,0-.11,0-.12-.06,0-.07.03-.09.09-.09.11,0,.18-.05.21-.16h0s.05,0,.08,0h0Z"/>
    <path class="cls-5" d="m30.1,39.08c-.15-.18-.19-.4-.24-.62.2.16.25.38.24.62Z"/>
    <path class="cls-5" d="m21.18,40.93c0-.24.14-.43.21-.65.06.18-.06.55-.21.65Z"/>
    <path class="cls-5" d="m33.78,37.84c-.1.17-.24.3-.39.42-.02-.19.16-.39.39-.42Z"/>
    <path class="cls-5" d="m20.1,18.65c-.18-.14-.36-.26-.5-.44.1-.03.17-.05.22.09.02.07.12.13.19.18.07.04.09.1.09.18Z"/>
    <path class="cls-5" d="m20.19,39.85c0,.06.01.12-.04.2-.11-.25-.18-.5-.23-.74.19.06.13.25.19.38.02.06-.02.15.08.16Z"/>
    <path class="cls-5" d="m18.09,41.24c.05-.25.09-.49.23-.71-.01.24-.05.47-.17.68,0,.02-.04.02-.07.03Z"/>
    <path class="cls-5" d="m27.96,37.64c.15.13.25.3.27.5-.2-.11-.23-.31-.27-.5Z"/>
    <path class="cls-5" d="m21.26,19.65c-.17-.12-.33-.24-.46-.4.09.01.22-.05.24.11,0,.01.02.03.02.03.22-.02.15.16.19.26Z"/>
    <path class="cls-5" d="m21.85,39.08c.03-.14.02-.3.12-.43.03.21,0,.42.12.66-.17-.06-.06-.27-.24-.24Z"/>
    <path class="cls-5" d="m20.42,39.08c.01.22-.06.42-.16.61,0-.13-.01-.27.06-.39.05-.09,0-.17-.05-.26.07-.04.1.06.15.04Z"/>
    <path class="cls-5" d="m20.93,37.45c-.05.24-.13.47-.24.69-.07-.05-.04-.1,0-.16.07-.12.14-.25.12-.4-.01-.09.03-.15.13-.13Z"/>
    <path class="cls-5" d="m22.65,38.73c-.05.22-.09.44-.14.66,0-.15,0-.3,0-.45,0-.11.03-.19.14-.21Z"/>
    <path class="cls-5" d="m28.62,39.08c.12.13.18.28.15.46-.16-.12-.18-.28-.15-.46Z"/>
    <path class="cls-5" d="m32.86,27.58c-.02-.19-.1-.38-.08-.58.05,0,.11,0,.11.08,0,.17.04.34-.03.5Z"/>
    <path class="cls-5" d="m29.17,40.84c-.01.11-.07.09-.13.1-.09,0-.1-.06-.1-.13,0-.06.01-.11.08-.1.08.01.12.08.15.13Z"/>
    <path class="cls-5" d="m31.33,37.84c-.02.17-.06.33-.19.46,0-.18,0-.36.19-.46Z"/>
    <path class="cls-5" d="m24.56,12.75c-.1.11-.24.17-.35.26.05-.24.14-.31.35-.26Z"/>
    <path class="cls-5" d="m17.66,19.33c-.06.24-.12.48-.19.72,0-.22-.01-.43.07-.64.03-.06.06-.07.11-.07Z"/>
    <path class="cls-5" d="m25.61,11.98c0-.06.04-.08.08-.08.04,0,.08,0,.12,0,.06,0,.16-.09.17.02.01.09-.1.06-.15.05-.07-.01-.06.06-.1.07-.03,0-.06,0-.09,0-.02,0-.02-.04-.03-.05Z"/>
    <path class="cls-5" d="m17.98,22c.11.11.25.2.31.35-.18-.05-.33-.21-.31-.35Z"/>
    <path class="cls-5" d="m32.34,31.64c0-.09.08-.16.13-.23.13.1.14.22.08.4-.06-.1-.02-.3-.2-.17Z"/>
    <path class="cls-5" d="m22.51,39.92c.05.23.11.46.12.7-.17-.21-.11-.46-.12-.7Z"/>
    <path class="cls-5" d="m38.07,40.72c-.12.03,0,.2-.15.21-.05,0-.08-.03-.07-.07.03-.08.05-.17.13-.21.02-.01.07.02.09.08Z"/>
    <path class="cls-5" d="m35.94,42.12c.16-.02.32-.04.48.01-.16.05-.32.06-.48-.01Z"/>
    <path class="cls-5" d="m17.51,20.92c.02.19.16.34.16.54-.02.02-.04.02-.05,0-.07-.17-.18-.33-.12-.54Z"/>
    <path class="cls-5" d="m31.96,32.3c.04-.14.1-.27.23-.35,0,.16-.07.29-.23.35Z"/>
    <path class="cls-5" d="m29.4,12.63c.01-.08-.07-.09-.11-.13.1-.08.2-.08.34-.05-.09.07-.16.12-.23.17,0,0,0,0,0,0Z"/>
    <path class="cls-5" d="m32.93,27.96c-.05-.11-.09-.22-.08-.35.21.07.1.22.08.35Z"/>
    <path class="cls-5" d="m15.51,39.46c.02.1.06.17-.02.23-.03.02-.07.01-.09-.02-.05-.1.03-.13.11-.21Z"/>
    <path class="cls-5" d="m31.47,37.45c-.03.12-.05.24-.13.34,0-.08,0-.15,0-.23,0-.1.04-.12.13-.11Z"/>
    <path class="cls-5" d="m34.62,40.59c-.08-.1-.14-.22-.17-.34.03,0,.07,0,.07,0,.05.11.14.21.09.34Z"/>
    <path class="cls-5" d="m17.88,18.91c-.03.13-.09.24-.17.34,0-.14,0-.29.17-.34Z"/>
    <path class="cls-5" d="m16.47,41.55c.07.09.09.2.12.3-.06.05-.13.13-.13-.04,0-.09,0-.18,0-.27Z"/>
    <path class="cls-5" d="m21.45,32.21c.06.1.06.19.02.34-.07-.13-.03-.24-.02-.34Z"/>
    <path class="cls-5" d="m21.08,41.24c0-.12.03-.22.11-.31-.04.1.12.28-.11.31Z"/>
    <path class="cls-5" d="m31.3,15.05c-.06-.09-.04-.17,0-.26.06.09.04.17,0,.26Z"/>
    <path class="cls-5" d="m28.72,12.01c-.13.06-.21.05-.34.01.12-.07.21-.06.34-.01Z"/>
    <path class="cls-5" d="m33.19,38.69c0,.09-.04.17-.11.24-.11-.15.01-.18.11-.24Z"/>
    <path class="cls-5" d="m22.7,41.15c.05.1.04.16.01.25-.06-.1-.06-.16-.01-.25Z"/>
    <path class="cls-5" d="m31.95,40.23c.08.01.15-.02.21.04-.07.03-.15.08-.21-.04Z"/>
    <path class="cls-5" d="m32.96,30.4c.13.05.07.13.05.24-.07-.09-.04-.17-.05-.24h0Z"/>
    <path class="cls-5" d="m31.58,37.3c-.08-.01-.15.02-.21-.04.07-.03.15-.08.21.04Z"/>
    <path class="cls-5" d="m36.83,37.69c-.06,0-.12-.01-.15-.08,0-.03.01-.08.05-.06.05.03.14.04.11.14Z"/>
    <path class="cls-5" d="m27.01,42.12c.08-.03.14-.04.25.03-.11.02-.18.05-.25-.03Z"/>
    <path class="cls-5" d="m21.06,37.24c-.11.07-.17.06-.25.03.06-.08.13-.05.25-.03Z"/>
    <path class="cls-5" d="m33.31,38.38c-.03.09-.04.18-.11.25.02-.09-.09-.24.11-.25Z"/>
    <path class="cls-5" d="m33.08,38.96s.02.09-.03.12c-.03,0-.07,0-.07-.05,0-.06.05-.07.1-.07Z"/>
    <path class="cls-5" d="m28.86,39.68c.1.02.07.1.08.16-.12,0-.08-.1-.08-.16Z"/>
    <path class="cls-5" d="m30.77,38.94s.02.04.02.06c0,.02,0,.06-.04.05-.01,0-.03-.04-.03-.06,0-.02,0-.05.05-.05Z"/>
    <path class="cls-5" d="m32.93,28.16s0-.08,0-.12c.04,0,.07.02.07.07,0,.04-.04.04-.07.05Z"/>
    <path class="cls-5" d="m33.02,40.88s0,.02-.01.03c-.01,0-.03,0-.03-.01,0,0,0-.02.01-.03.01,0,.02,0,.03.01Z"/>
    <path class="cls-5" d="m36.22,40.62s-.02.08-.07.08c-.01-.06.02-.08.07-.08Z"/>
    <path class="cls-5" d="m33.22,41.49s.02,0,.03.01c0,.01,0,.03-.01.03,0,0-.02,0-.03-.01,0-.01,0-.02.01-.03Z"/>
    <path class="cls-5" d="m22.66,16.04s.02.09-.03.12c0-.04,0-.08.03-.12Z"/>
    <path class="cls-5" d="m25,42.11s-.02.02-.03.02c-.02,0-.04,0-.05-.02-.01-.03.02-.01.02-.01.02,0,.03,0,.05.01Z"/>
    <path class="cls-5" d="m37.49,38.42s-.02-.05-.02-.07c0,.02.02.05.02.07Z"/>
    <path class="cls-5" d="m18.33,40.39s0-.06.03-.08c0,.03,0,.06-.03.08Z"/>
    <path class="cls-5" d="m29.44,40.93s.03.01.03.04c0-.01-.02-.02-.03-.04Z"/>
    <path class="cls-5" d="m23.28,37.8s-.01.03-.03.03c.01-.01.02-.02.03-.03Z"/>
    <path class="cls-5" d="m15.81,39.69s.02.03.03.04c0-.01-.02-.02-.03-.04Z"/>
    <polygon class="cls-5" points="25.04 41.94 25.04 41.93 25.05 41.94 25.04 41.94"/>
    <path class="cls-4" d="m26.11,32.06s-.04,0-.04-.02c-.03-.24-.15-.32-.38-.24-.12,0-.16-.12-.23-.19,0-.03,0-.06.02-.09.01-.04.12-.03.07-.1-.04-.06-.11-.06-.15-.02-.07.07-.13-.05-.19,0h-.01c.03-.07.01-.1-.05-.11-.01-.01-.03-.03-.04-.04.09-.21.16.08.26,0-.01-.08-.07-.14-.14-.15-.12-.02-.16-.08-.12-.19.03-.09-.03-.13-.08-.17-.1-.07-.2-.01-.3,0,0-.01-.01-.02,0-.03.06-.07.16-.14-.02-.21-.08-.03-.13-.11-.03-.19.07-.06.03-.09-.02-.11-.13-.05-.16-.14-.17-.27-.02-.22-.07-.43-.33-.47,0-.02,0-.05,0-.07,0-.01-.02-.03-.03-.04,0-.03,0-.05-.01-.08.15-.07.02-.18.03-.27,0-.06-.07-.01-.1,0-.07-.05-.02-.13-.04-.19.06-.04.04-.06-.02-.08,0-.07-.07-.12-.04-.2.06.03.03-.23.13-.03.04-.17-.03-.22-.18-.2,0-.01,0-.03,0-.04.05-.06.04-.1-.04-.12,0-.06,0-.13,0-.19.05-.06.07-.12-.03-.16-.04-.08.03-.15.03-.23-.01-.08.03-.17-.04-.24v-.23s.07-.01.07-.06c0-.05-.04-.05-.08-.06-.02-.13-.02-.26,0-.39.07-.08.05-.29-.03-.39,0-.08.02-.16.06-.24.03,0,.07,0,.07-.04,0-.01-.03-.02-.05-.04-.03-.18.01-.35.08-.52.19.08.29.04.26-.1-.03-.13-.06-.25,0-.38.03-.1-.07-.07-.13-.08-.03-.06.04-.1.04-.15.19-.03.06-.15.06-.23,0-.05.02-.08.05-.12.1,0,.18-.03.14-.16,0-.03-.02-.04.02-.06.21-.09.16-.25.11-.41,0-.1.04-.18.09-.26.07,0,.14.08.21,0,.06-.07.03-.14,0-.22-.01-.03-.02-.06-.03-.09.03-.11.12-.19.19-.27.05-.04.08.1.16.01.07-.09.04-.14-.01-.21.04-.04.08-.08.12-.12,0,.09.06.07.1.03.06-.05.06-.13.06-.21l.05-.05q.35.03.3-.26c.06-.05.12-.1.19-.12,0,.03.02.05.06.06.16.03.29-.07.44-.07,0-.11-.12-.09-.15-.16.44-.2.88-.15,1.32-.02,0,.03-.01.08.03.09.04,0,.04-.03.04-.06.18.04.35.13.5.24,0,.06-.03.12-.07.15-.05.04-.07.07-.02.14.05.06.11.03.13,0,.07-.07.15-.06.23-.06.12.04.19.13.26.23-.02,0-.08,0-.06.04.04.1.11.18.19.25.04.03.07,0,.08-.04.04.06.09.12.13.18-.14.17-.11.22.2.3.04.08.09.16.13.25-.12,0-.14.07-.1.16.02.05.07.09.06.15,0,0,0,.01,0,.02,0,0,0-.01,0-.02.07.01.13.03.2.04.05,0,.03.06.05.08,0,.07-.06.16.06.19.04,0,.04.04.04.07-.02.03-.06.06-.06.08,0,.05.06.03.09.04,0,.01,0,.02,0,.03-.02.03-.03.07-.06.09-.03.03-.13,0-.09.1.04.08.09.02.14.01.02,0,.05,0,.07,0,.08.16.11.33.15.5-.04,0-.1-.01-.09.06,0,.07.06.11.13.1,0,.05,0,.1,0,.15-.01.05-.12.03-.09.1.02.05.08.06.13.06.06.04.03.1.03.15-.07,0-.09.04-.12.1-.07.15.02.29,0,.43-.02.17.06.18.19.13.08.47.05.95,0,1.42-.07.83-.26,1.63-.58,2.4-.18.41-.42.79-.69,1.14-.08,0-.17-.02-.26-.03,0,.09.07.13.1.19,0,.01,0,.02-.02.02-.06-.03-.1-.1-.19-.03.03.06.08.07.14.08,0,.08-.04.12-.12.12,0-.09-.13-.1-.11-.2,0-.03-.03-.03-.06-.03-.05,0-.07.04-.06.08.03.09,0,.2.07.28,0,.01,0,.02-.02.02-.05-.05-.11.02-.16-.02-.06-.04-.14-.08-.16,0-.02.06-.08.17.03.22-.2.17-.45.24-.7.31-.12-.03-.26-.27-.35.03-.09,0-.18,0-.27,0-.04-.13-.43-.33-.54-.27-.02.01-.03.05-.04.08Zm1.75-10.03c-.05-.08-.1-.14-.19-.13-.04,0-.04.04-.02.07.05.1.13.07.22.06Zm-2.24,9.49c0,.11.04.17.16.14-.04-.05-.06-.11-.16-.14Zm-1.15-2s0-.03-.01-.03c0,0-.02,0-.03.01,0,.01,0,.03.01.03,0,0,.02,0,.03-.01Zm.35.64s-.02,0-.03-.01c0,.01-.02.02-.01.03,0,0,.02,0,.03.01,0-.01,0-.02.01-.03Zm3.87.93s-.02-.02-.03-.01c0,0-.01.02-.01.03.01,0,.02.02.03.01,0,0,.01-.02.01-.03Zm-4.56-2.37s-.01-.02-.02-.03c0,0-.01.02-.01.03,0,0,0,.02.01.03,0,0,.01-.02.02-.03Zm2.84,3.28s-.01,0-.02,0c0,0,0,0,0,.01,0,0,.01,0,.02,0,0,0,0,0,0-.01Z"/>
    <path class="cls-2" d="m24.27,17.79c.45-.01.85-.07,1.23-.21.24-.09.46-.2.68-.33.63-.39.87-.4,1.44-.07.55.32,1.13.56,1.77.6.15.01.18.08.09.2-.07.09-.15.17-.25.24-.35.26-.75.41-1.17.55-.52.18-1.06.16-1.6.14-.42-.02-.82-.17-1.22-.33-.29-.12-.52-.32-.78-.49-.08-.05-.12-.17-.21-.29Z"/>
    <path class="cls-3" d="m26.11,15.92c.02.4-.25.66-.68.7-.22.02-.51-.39-.52-.68-.01-.32.29-.7.6-.68.33.02.63.27.6.66Z"/>
    <path class="cls-3" d="m28.97,15.93c0,.4-.26.65-.65.65-.29,0-.55-.32-.55-.67,0-.31.26-.68.64-.66.28.02.61.32.56.68Z"/>
    <path class="cls-3" d="m24.14,29.47c.27.05.32.26.33.47,0,.13.04.22.17.27.05.02.09.05.02.11-.1.08-.04.16.03.19.18.07.07.13.02.21-.27-.38-.43-.81-.57-1.24Z"/>
    <path class="cls-3" d="m24.72,30.75c.1,0,.2-.06.3,0,.06.04.12.08.08.17-.04.11,0,.16.12.19.07.01.13.07.14.15-.1.07-.16-.21-.26,0-.15-.15-.26-.33-.38-.5Z"/>
    <path class="cls-3" d="m30.09,26.26c-.13.05-.21.04-.19-.13.02-.14-.08-.28,0-.43.03-.06.05-.1.12-.1.03.22.08.44.08.66Z"/>
    <path class="cls-3" d="m24.03,24.83c.06.01.16-.02.13.08-.05.14-.02.25,0,.38.04.15-.07.18-.26.1,0-.02,0-.04,0-.06.03,0,.07,0,.08-.03.01-.05-.03-.04-.06-.05.01-.15.04-.29.1-.42Z"/>
    <path class="cls-3" d="m24.44,23.7c.05.16.11.32-.11.41-.03.01-.02.03-.02.06.04.13-.03.16-.14.16.02-.24.14-.43.26-.63Z"/>
    <path class="cls-3" d="m26.11,32.06s.02-.07.04-.08c.11-.06.5.15.54.27-.21-.03-.4-.09-.58-.19Z"/>
    <path class="cls-3" d="m28.4,22.23c-.08,0-.16,0-.23.06-.03.03-.08.06-.13,0-.05-.06-.03-.09.02-.14.04-.04.06-.1.07-.15.09.07.21.12.28.23Z"/>
    <path class="cls-3" d="m26.22,21.76c.03.07.15.06.15.16-.15,0-.29.09-.44.07-.04,0-.05-.03-.06-.06.12-.05.21-.15.35-.17Z"/>
    <path class="cls-3" d="m29.48,23.78c-.07-.01-.13-.03-.2-.04h0c.01-.06-.04-.1-.06-.15-.04-.09-.02-.17.1-.16.08.1.14.22.16.35Z"/>
    <path class="cls-3" d="m28.01,31.91c-.12-.06-.05-.16-.03-.22.02-.07.1-.03.16,0,.05.03.11-.04.16.02-.08.09-.17.16-.28.2Z"/>
    <path class="cls-3" d="m25.68,22.05q.05.29-.3.26c.09-.1.18-.2.3-.26Z"/>
    <path class="cls-3" d="m28.31,31.7c-.08-.08-.04-.19-.07-.28-.01-.04.02-.07.06-.08.02,0,.06,0,.06.03-.02.1.11.12.11.2-.03.07-.09.11-.16.13Z"/>
    <path class="cls-3" d="m25.68,31.8c.23-.08.36,0,.38.24-.15-.05-.28-.12-.38-.24Z"/>
    <path class="cls-3" d="m24.73,23.13s.02.06.03.09c.03.07.05.15,0,.22-.07.08-.14,0-.21,0,.06-.11.1-.22.19-.31Z"/>
    <path class="cls-3" d="m25.2,31.4c.06-.06.12.06.19,0,.04-.04.11-.03.15.02.05.08-.06.06-.07.1-.01.03-.01.06-.02.09-.09-.06-.19-.11-.25-.21Z"/>
    <path class="cls-3" d="m26.96,32.25c.09-.3.23-.07.35-.03-.11.08-.23.03-.35.03Z"/>
    <path class="cls-3" d="m29.2,23.19c-.31-.08-.34-.13-.2-.3.07.1.13.2.2.3Z"/>
    <path class="cls-3" d="m23.87,28.31c.15-.02.22.03.18.2-.1-.2-.08.06-.13.03-.09-.06-.04-.15-.04-.23Z"/>
    <path class="cls-3" d="m28.87,22.71s-.04.07-.08.04c-.08-.07-.15-.15-.19-.25-.02-.05.03-.03.06-.04.07.08.14.17.21.25Z"/>
    <path class="cls-3" d="m25.06,22.65c.05.07.08.12.01.21-.07.09-.1-.05-.16-.01,0-.1.09-.14.15-.2Z"/>
    <path class="cls-3" d="m23.76,26.22c.08.09.1.3.03.39-.08-.12-.03-.26-.03-.39Z"/>
    <path class="cls-3" d="m29.74,24.48s-.05,0-.07,0c-.05,0-.11.07-.14-.01-.04-.09.06-.07.09-.1.03-.02.04-.06.06-.09.04.06.11.11.07.2Z"/>
    <path class="cls-3" d="m28.66,31.39c-.03-.06-.09-.1-.1-.19.09,0,.18.02.26.03-.05.06-.11.11-.16.17Z"/>
    <path class="cls-3" d="m24.02,29.01s.11-.05.1,0c0,.09.12.2-.03.27-.07-.05-.02-.12-.04-.18,0-.02-.02-.03-.03-.05,0-.01,0-.03,0-.04Z"/>
    <path class="cls-3" d="m25.33,22.36c0,.08,0,.15-.06.21-.04.04-.09.06-.1-.03.04-.07.07-.15.16-.18Z"/>
    <path class="cls-3" d="m24.13,24.44c0,.08.13.2-.06.23,0-.08.02-.16.06-.23Z"/>
    <path class="cls-3" d="m29.94,25.14c-.08,0-.13-.03-.13-.1,0-.07.05-.05.09-.06-.01.06.06.09.04.15Z"/>
    <path class="cls-3" d="m23.78,27.34c.08.07.03.16.04.24-.1-.06-.09-.15-.04-.24Z"/>
    <path class="cls-3" d="m29.98,25.45c-.05,0-.12-.02-.13-.06-.02-.07.08-.04.09-.1.08.04.02.11.04.16Z"/>
    <path class="cls-3" d="m28.59,31.45c-.05,0-.11-.02-.14-.08.08-.07.13,0,.19.03-.02.02-.03.03-.05.05Z"/>
    <path class="cls-3" d="m23.79,27.81c.1.03.09.09.03.16-.07-.04-.03-.1-.03-.16Z"/>
    <path class="cls-3" d="m29.67,24.25s-.09.01-.09-.04c0-.03.04-.06.06-.08.05.03.04.08.03.12Z"/>
    <path class="cls-3" d="m29.6,24.05c-.12-.03-.07-.11-.06-.19.04.06.07.12.06.19Z"/>
    <path class="cls-3" d="m23.78,27s.07.01.08.06c0,.05-.04.05-.07.06-.02-.04-.02-.08,0-.12Z"/>
    <path class="cls-4" d="m23.93,25.25s.07,0,.06.05c-.01.04-.05.03-.08.03,0-.03-.02-.07.02-.09Z"/>
    <path class="cls-3" d="m27.62,21.77s0,.07-.04.06c-.04,0-.03-.06-.03-.09.03,0,.07-.02.08.03Z"/>
    <path class="cls-3" d="m23.83,28.16c.08.02.09.06.04.12-.02-.04-.06-.06-.04-.12Z"/>
    <path class="cls-3" d="m23.96,28.74c.05.02.08.04.02.08-.05-.02-.03-.05-.02-.08Z"/>
    <path class="cls-3" d="m25.14,31.29c.06.01.08.04.05.1-.04-.02-.05-.05-.05-.1Z"/>
    <path class="cls-3" d="m23.83,25.91s.05.02.05.04c0,.04-.04.03-.07.04,0-.02.01-.05.02-.07Z"/>
    <path class="cls-4" d="m24.02,29.05s.02.03.03.05c-.02,0-.04-.02-.03-.05Z"/>
    <path class="cls-3" d="m24.1,29.36s.02.03.03.04c-.02,0-.04-.02-.03-.04Z"/>
    <path class="cls-6" d="m35.36,39.16c-.26,0-.53,0-.79,0-.1,0-.13-.04-.13-.14,0-.25.31-.67.59-.71.33-.05.67-.06.99.13.24.14.3.45.28.64-.01.1-.09.07-.15.07-.26,0-.53,0-.79,0Z"/>
    <path class="cls-6" d="m25.99,40.01c.01.11-.08.2-.07.31,0,0-.01.01-.01.02-.19.22-.39.44-.71.45-.08-.07-.16-.14-.26-.04-.01.01-.05.02-.07.01-.22-.07-.44-.13-.58-.34-.03-.05-.07-.11-.15-.11,0,0,0,0,0,0,0-.03,0-.05,0-.08-.12-.34-.09-.69-.05-1.04,0-.03-.02-.04-.05-.05,0-.03-.02-.06.02-.08.19-.12.33-.28.46-.46.36-.13.7-.17,1.04.07.15.11.3.2.35.38-.05.15.09.27.08.42-.01.17,0,.34,0,.52Z"/>
    <path class="cls-4" d="m25.91,40.34s0-.02.01-.02c.1.05.12.14.09.24-.02.05,0,.09.04.11.04.03.1.04.12,0,.05-.11.19-.21.09-.35-.04-.05-.06-.13-.03-.16.12-.15.01-.35.13-.49.03-.03.01-.09-.02-.13-.03-.04-.05-.09-.05-.14.02-.2,0-.38-.17-.52-.11-.09-.06-.23-.12-.34-.05-.08.06-.08.12-.07.05,0,.06.06.09.1.03.05.07.06.12.04.06-.03.05-.09.03-.13-.02-.03-.04-.07-.07-.09-.13-.09-.13-.17,0-.25.13-.07.06-.19.08-.29h.62v3.79c-.16,0-.37,0-.59,0-.08,0-.11-.04-.11-.12,0-.06,0-.13,0-.19,0-.05.08-.13-.02-.14-.06,0-.11.06-.13.12-.02.06.01.13-.07.24.01-.18-.12-.28-.03-.46.06-.11.04-.27-.13-.33-.09-.03-.16-.1-.06-.2.07-.06.04-.14.04-.22Zm.42.42c-.02.11-.05.18.03.24.03-.08.04-.14-.03-.24Z"/>
    <path class="cls-4" d="m26.38,37.84c-.14-.05-.05-.16-.08-.25.22.15.63.13.76-.05-.02.18.07.25.24.24-.1.15-.22.03-.31.06h0c0-.05-.04-.08-.09-.08-.15,0-.29,0-.44,0-.05,0-.08.02-.09.08h0Z"/>
    <path class="cls-5" d="m24.13,40.32c.08,0,.12.06.15.11.14.21.36.27.58.34.02,0,.06,0,.07-.01.1-.1.18-.04.26.04-.37.1-.79-.04-1.01-.33-.03-.04-.05-.09-.05-.14Z"/>
    <path class="cls-5" d="m24.04,39.15s.05.02.05.05c-.04.35-.07.7.05,1.04,0,.02,0,.05,0,.08-.23-.37-.27-.76-.09-1.16Z"/>
    <path class="cls-5" d="m25.99,40.01c0-.17-.01-.34,0-.52.01-.15-.13-.27-.08-.42.15.23.14.49.18.75.01.08-.03.15-.1.19Z"/>
    <path class="cls-5" d="m24.52,38.62c-.13.18-.28.34-.46.46.11-.2.21-.4.46-.46Z"/>
    <path class="cls-6" d="m22.9,38.23s.02-.03.03-.05c-.01.02-.02.03-.03.05Z"/>
    <path class="cls-6" d="m29.56,37.57s.02.03.03.05c-.01-.02-.02-.03-.03-.05Z"/>
    <path class="cls-6" d="m21.78,33.39s-.15-.05-.1-.12c.05-.07.12.03.18.05-.03.03-.05.05-.08.08Z"/>
    <path class="cls-6" d="m32.56,38.95s0,.02-.01.03c-.01,0-.03,0-.03-.01,0,0,0-.02.01-.03.01,0,.02,0,.03.01Z"/>
    <path class="cls-6" d="m21.5,33.03c.05-.13.13-.07.24-.05-.09.07-.17.04-.24.05,0,0,0,0,0,0Z"/>
    <path class="cls-6" d="m21.76,33.13s.03,0,.03.01c0,0,0,.02-.01.03-.01,0-.03,0-.03-.01,0,0,0-.02.01-.03Z"/>
    <path class="cls-6" d="m32.27,33.19c.1.01.08.09.07.15,0,.05-.03.09-.09.08-.09-.02-.02-.06-.01-.09.02-.04.01-.09.02-.13h0Z"/>
    <path class="cls-6" d="m32.5,33.19s-.06,0-.06-.05c0,0,0-.01.01-.01.04,0,.04.03.05.06,0,0,0,0,0,0Z"/>
    <path class="cls-6" d="m23.36,37.6s0-.01,0-.02c0,0,0,.01,0,.02h0Z"/>
    <path class="cls-6" d="m36.91,41.78s-.05,0-.08,0c0-.03,0-.07.05-.06.01,0,.02.04.03.06Z"/>
    <path class="cls-3" d="m27.86,22.03c-.09.01-.17.04-.22-.06-.01-.03-.02-.07.02-.07.09,0,.14.06.19.13Z"/>
    <path class="cls-3" d="m25.62,31.53c.09.04.11.1.16.14-.12.02-.15-.03-.16-.14Z"/>
    <path class="cls-3" d="m24.47,29.52s-.02.01-.03.01c0,0,0-.02-.01-.03.01,0,.02-.01.03-.01,0,0,0,.02.01.03Z"/>
    <path class="cls-3" d="m24.81,30.16s0,.02-.01.03c-.01,0-.03,0-.03-.01,0,0,0-.02.01-.03.01,0,.02,0,.03.01Z"/>
    <path class="cls-3" d="m28.69,31.09s0,.03-.01.03c0,0-.02,0-.03-.01,0-.01,0-.03.01-.03,0,0,.02,0,.03.01Z"/>
    <path class="cls-3" d="m24.13,28.72s-.01.02-.02.03c0,0-.01-.02-.01-.03,0,0,0-.02.01-.03,0,0,.01.02.02.03Z"/>
    <path class="cls-3" d="m26.97,32s0,.01,0,.01c0,0-.01,0-.02,0,0,0,0-.01,0-.01,0,0,.01,0,.02,0Z"/>
    <path class="cls-3" d="m29.28,23.74s0,.01,0,.02c0,0,0-.01,0-.02h0Z"/>
    <path class="cls-3" d="m26.38,37.84c0-.05.04-.08.09-.08.15,0,.29,0,.44,0,.05,0,.08.02.09.08h-.62Z"/>
    <path class="cls-3" d="m26.33,40.75c.07.11.06.17.03.24-.08-.06-.05-.13-.03-.24Z"/>
  </g>
</svg>