<svg xmlns="http://www.w3.org/2000/svg" viewBox="0 0 256 256" fill="none">
  <rect width="256" height="256" rx="50" fill="#292929"/>
  <path fill="#fff" d="M128 50c-43.08 0-78 34.92-78 78 0 12.86 3.11 25.02 8.62 35.73L48 206l43.63-11.45C102.05 199.55 114.66 203 128 203c43.08 0 78-34.92 78-78s-34.92-78-78-78zm0 138c-11.15 0-21.69-2.98-30.74-8.18l-2.2-1.3-22.8 5.98 6.09-22.22-1.42-2.27C71.27 150.18 68 139.42 68 128c0-33.14 26.86-60 60-60s60 26.86 60 60-26.86 60-60 60z"/>
  <text x="98" y="150" font-family="Arial, sans-serif" font-size="80" font-weight="bold" fill="#fff">C</text>
</svg>
