<svg xmlns="http://www.w3.org/2000/svg" viewBox="0 0 256 256" fill="none">
  <defs>
    <linearGradient id="confluence-gradient" x1="99.14%" x2="24.49%" y1="1.08%" y2="55.12%">
      <stop offset="18%" stop-color="#0052CC"/>
      <stop offset="100%" stop-color="#2684FF"/>
    </linearGradient>
  </defs>
  <path fill="url(#confluence-gradient)" d="M9.26 187.65c-3.7 6.3-7.8 13.58-10.85 18.9a12.25 12.25 0 0 0 4.35 16.7l48.72 29.22a12.25 12.25 0 0 0 16.7-4.5c2.58-4.45 6.1-10.54 10.15-17.46 29.04-49.42 58.42-43.82 111.8-19.68l47.8 21.5a12.25 12.25 0 0 0 15.88-6.83l22.58-52.56a12.25 12.25 0 0 0-6.5-15.88c-16.45-7.35-49.22-22.05-65.72-29.57-73.08-32.9-135.76-34.3-194.91 60.16z"/>
  <path fill="#2684FF" d="M246.74 68.35c3.7-6.3 7.8-13.58 10.85-18.9a12.25 12.25 0 0 0-4.35-16.7L204.52 3.53a12.25 12.25 0 0 0-16.7 4.5c-2.58 4.45-6.1 10.54-10.15 17.46-29.04 49.42-58.42 43.82-111.8 19.68L18.07 23.67A12.25 12.25 0 0 0 2.19 30.5l-22.58 52.56a12.25 12.25 0 0 0 6.5 15.88c16.45 7.35 49.22 22.05 65.72 29.57 73.08 32.9 135.76 34.3 194.91-60.16z"/>
</svg>
