<?xml version="1.0" encoding="UTF-8"?>
<svg id="Calque_1" data-name="Calque 1" xmlns="http://www.w3.org/2000/svg" xmlns:xlink="http://www.w3.org/1999/xlink" viewBox="0 0 54 54">
  <defs>
    <style>
      .cls-1 {
        fill: none;
      }

      .cls-2 {
        clip-path: url(#clippath);
      }

      .cls-3 {
        fill: #f06e00;
      }

      .cls-3, .cls-4 {
        fill-rule: evenodd;
      }

      .cls-4 {
        fill: #fff;
      }
    </style>
    <clipPath id="clippath">
      <rect class="cls-1" x="15" y="12.1" width="25.02" height="28.8"/>
    </clipPath>
  </defs>
  <path class="cls-4" d="m27,49.51c12.43,0,22.51-10.08,22.51-22.51S39.43,4.49,27,4.49,4.49,14.57,4.49,27s10.08,22.51,22.51,22.51Z"/>
  <path d="m49.51,27c0,12.43-10.08,22.51-22.51,22.51S4.49,39.43,4.49,27,14.57,4.49,27,4.49s22.51,10.08,22.51,22.51Z"/>
  <g class="cls-2">
    <g>
      <path class="cls-4" d="m18.17,35.55l-.09.35c-.05.19-.21.87-.35,1.5-.15.63-.28,1.13-.31,1.1-.03-.03-.2-.69-.39-1.48l-.33-1.42-.64-.03-.63-.03v4.14h.84l.05-2.96.32,1.48.32,1.48h.88l.64-2.86.05,1.41.05,1.41.4.03.4.03v-4.14h-1.21Zm.43,1.14c-.03.08-.05.05-.06-.06,0-.1.02-.15.05-.12.03.03.03.11,0,.18Z"/>
      <path class="cls-4" d="m22.36,36.77c-.42-.26-1.32-.26-1.74,0-.93.56-.89,2.34.07,2.84.43.22,1.17.22,1.59,0,.94-.5.99-2.27.08-2.83Zm-.72,2.29c-.54.12-.86-.24-.86-.98,0-.22.08-.45.2-.6.39-.49,1.09-.22,1.18.46.07.55-.15,1.04-.52,1.12Z"/>
      <path class="cls-4" d="m26.32,37.13v2.55h-.85v-1.11c0-1.19-.05-1.33-.47-1.33-.47,0-.6.28-.64,1.42l-.04,1.02h-.73v-3.1h.38c.32,0,.37.03.37.2v.19l.25-.19c.17-.14.39-.2.71-.2.39,0,.51.05.74.28l.28.27Z"/>
      <path class="cls-4" d="m28.81,38.93c-.25.28-.73.25-.98-.06-.37-.46-.3-.5.9-.5h1.09l-.06-.47c-.06-.54-.33-.97-.72-1.17-.4-.21-1.2-.18-1.57.05-.62.37-.85,1.43-.49,2.23.14.31.28.45.58.58.45.21.96.24,1.36.09.35-.13.78-.55.78-.76,0-.25-.66-.24-.89.02Zm-1.07-1.34c.06-.12.16-.24.21-.28.2-.13.62-.07.81.12.31.31.23.37-.47.37-.65,0-.66,0-.55-.21Z"/>
      <path class="cls-4" d="m32.89,36.68c0,.13-1.21,3.56-1.36,3.85-.16.3-.31.37-.8.37-.36,0-.37-.01-.37-.33,0-.29.03-.33.24-.33.49,0,.46-.29-.13-1.97-.3-.85-.53-1.58-.51-1.62.02-.04.21-.07.41-.07.25,0,.39.05.45.16.05.09.2.58.34,1.08.14.49.27.88.29.88.02-.02.17-.5.33-1.08l.29-1.05h.41c.23,0,.41.04.41.09Z"/>
      <path class="cls-4" d="m33.76,31.59l1.06-.03.03-.33c.04-.45-.32-1.1-.73-1.33-.41-.22-1.08-.22-1.5,0-.66.34-.96,1.52-.58,2.27.09.18.31.43.49.55.28.19.42.22.96.19.57-.03.66-.07.96-.36.45-.44.44-.66-.03-.66-.24,0-.42.06-.53.19-.11.12-.29.19-.49.19-.33,0-.69-.27-.69-.52,0-.11.2-.14,1.05-.16Zm-.82-.97c.29-.29.56-.29.85,0,.36.36.29.43-.43.43s-.78-.07-.42-.43Z"/>
      <path class="cls-4" d="m31.01,29.83c-.27,0-.37.04-.37.14,0,.12-.05.11-.31-.05-.36-.22-.86-.23-1.22-.04-.62.33-.86,1.73-.42,2.39.41.61,1.23.8,1.69.39.15-.14.16-.13.16.19,0,.24-.06.38-.21.48-.27.19-.67.19-.82,0-.07-.09-.28-.14-.57-.14-.39,0-.45.02-.4.16.24.69,1.45.96,2.31.52.45-.23.53-.59.53-2.42v-1.65h-.38Zm-1.08,2.35c-.41,0-.61-.28-.61-.85,0-.23.07-.52.15-.64.1-.15.24-.21.46-.21.41,0,.61.28.61.84s-.2.85-.61.85Z"/>
      <path class="cls-4" d="m27.92,31.6v1.23h-.85v-1.08c0-.85-.03-1.1-.15-1.22-.2-.2-.44-.19-.7.03-.19.16-.22.27-.26,1.22l-.04,1.05h-.73v-3h.37c.32,0,.37.03.37.21s.01.19.12.06c.29-.37.9-.46,1.38-.22.15.08.32.22.37.32.05.1.1.73.1,1.41Z"/>
      <path class="cls-4" d="m24.57,32.71c-.04-.06-.1-.66-.12-1.33-.05-1.19-.05-1.21-.31-1.4-.38-.29-1.33-.32-1.73-.07-.31.2-.5.46-.5.71,0,.23.67.2.87-.04.19-.23.65-.25.82-.05.19.22-.03.4-.59.47-.9.12-1.19.39-1.19,1.07,0,.56.31.85.92.85.32,0,.53-.06.7-.19.2-.16.25-.16.29-.05.04.1.19.14.48.14.32,0,.41-.03.36-.12Zm-1.61-.37c-.23-.03-.25-.07-.25-.36,0-.31.02-.33.42-.44.58-.15.56-.16.56.11,0,.34-.41.72-.73.68Z"/>
      <path class="cls-4" d="m21.54,30.15c0,.4-.01.43-.26.43-.53,0-.68.32-.68,1.46v.79h-.84v-3h.42c.36,0,.42.03.42.18,0,.17.02.17.23-.04.13-.13.34-.23.47-.23.22,0,.24.03.24.42Z"/>
      <path class="cls-4" d="m17.9,28.7c-.72-.2-1.51-.04-1.97.38-.44.41-.62.91-.62,1.68,0,.85.25,1.46.76,1.85.29.22.45.26,1.06.29.89.04,1.37-.17,1.76-.76.22-.33.26-.51.29-1.18.05-1.25-.38-2.02-1.27-2.27Zm-.64,3.47c-.7,0-1.08-.5-1.08-1.41,0-.58.19-1.02.54-1.24.78-.49,1.62.18,1.62,1.29,0,.86-.39,1.36-1.08,1.36Z"/>
      <path class="cls-3" d="m39.86,13.97c-.09.13-1.82,1.85-3.83,3.81l-3.67,3.57.42.05c.23.03,1.43.06,2.67.06,2.48,0,2.65.03,2.99.59.4.65.12,1.51-.57,1.79-.34.13-.85.15-4.74.09-4.85-.07-4.73-.05-5.04-.72-.14-.29-.16-.72-.16-3.27,0-1.62.03-3.68.06-4.58l.06-1.63.3-.33c.25-.28.37-.33.82-.37.49-.04.54-.03.88.29l.36.33.04,2.98.05,2.97,3.78-3.68c2.08-2.02,3.87-3.72,3.99-3.76.33-.13.8-.11,1.11.05.58.3.84,1.21.48,1.74Z"/>
      <path class="cls-4" d="m26.81,24c-.47.87-1.77.86-2.24-.02-.15-.26-.17-.65-.21-2.92l-.05-2.62-3.61,3.68c-3.86,3.93-3.96,4.01-4.67,3.85-.42-.09-.85-.5-.96-.93-.19-.7-.17-.73,3.81-4.77l3.72-3.78h-2.75c-2.43,0-2.79-.02-3.07-.16-.48-.25-.71-.61-.71-1.15s.23-.9.71-1.15c.29-.15.7-.16,4.72-.16,3.45,0,4.46.03,4.69.13.16.07.4.24.53.38l.24.25.02,4.52c.03,4.24.01,4.54-.15,4.84Z"/>
    </g>
  </g>
</svg>