<svg xmlns="http://www.w3.org/2000/svg" viewBox="0 0 256 256" fill="none">
  <path fill="#25D366" d="M128 0C57.31 0 0 57.31 0 128c0 22.61 5.89 45.09 17.07 64.77L0 256l65.35-17.14C84.09 249.91 105.89 256 128 256c70.69 0 128-57.31 128-128S198.69 0 128 0z"/>
  <path fill="#fff" d="M190.37 151.35c-2.56-1.28-15.17-7.49-17.52-8.35-2.35-.86-4.06-1.28-5.77 1.28s-6.63 8.35-8.12 10.06c-1.5 1.71-3 1.93-5.55.64-2.56-1.28-10.8-3.98-20.57-12.7-7.6-6.78-12.74-15.16-14.23-17.72-1.5-2.56-.16-3.95 1.12-5.22 1.15-1.15 2.56-2.99 3.84-4.49 1.28-1.5 1.71-2.56 2.56-4.27.86-1.71.43-3.2-.21-4.49-.64-1.28-5.77-13.91-7.91-19.04-2.08-5-4.2-4.32-5.77-4.4-1.5-.07-3.2-.08-4.91-.08s-4.48.64-6.83 3.2c-2.35 2.56-8.99 8.78-8.99 21.42 0 12.63 9.21 24.84 10.49 26.55 1.28 1.71 18.12 27.68 43.9 38.81 6.13 2.65 10.92 4.23 14.65 5.42 6.16 1.96 11.77 1.68 16.21 1.02 4.95-.74 15.17-6.2 17.31-12.19 2.14-5.99 2.14-11.13 1.5-12.19-.64-1.07-2.35-1.71-4.91-2.99z"/>
</svg>
