<?xml version="1.0" encoding="UTF-8"?>
<svg id="Calque_1" data-name="Calque 1" xmlns="http://www.w3.org/2000/svg" viewBox="0 0 54 54">
  <defs>
    <style>
      .cls-1, .cls-2 {
        fill: #fff;
      }

      .cls-3 {
        fill: #e10010;
      }

      .cls-2 {
        fill-rule: evenodd;
      }
    </style>
  </defs>
  <path class="cls-2" d="m27,49.05c12.18,0,22.05-9.87,22.05-22.05S39.18,4.95,27,4.95,4.95,14.82,4.95,27s9.87,22.05,22.05,22.05Z"/>
  <path class="cls-3" d="m49.2,27c0,12.26-9.94,22.2-22.2,22.2S4.8,39.26,4.8,27,14.74,4.8,27,4.8s22.2,9.94,22.2,22.2Z"/>
  <g>
    <path class="cls-1" d="m30.53,12.42c.99.01,1.93.2,2.82.65.78.4,1.41.95,1.84,1.72.28.51.47,1.06.54,1.63.16,1.1,0,2.17-.37,3.21-.21.61-.51,1.18-.83,1.75-.65,1.15-1.49,2.14-2.46,3.02-1.25,1.13-2.62,2.12-4.09,2.95-.57.32-1.16.59-1.79.75-.39.1-.79.16-1.19.15-.53-.01-.94-.25-1.27-.66-.3-.36-.45-.83-.43-1.3,0-.13.02-.26.06-.39.19-.68.45-1.33.84-1.93.3-.45.65-.86,1.12-1.15.52-.32,1.08-.46,1.68-.33.19.04.37.13.52.24.4.29.38.73.19,1.02-.16.25-.35.48-.55.7-.34.37-.7.71-1.06,1.07-.31.31-.61.64-.84,1.02-.12.19-.24.39-.27.63-.04.29.11.49.41.52.15.01.31,0,.46-.05.46-.13.88-.33,1.29-.55.64-.34,1.23-.75,1.81-1.19.7-.53,1.38-1.08,2-1.7.71-.7,1.35-1.46,1.83-2.33.36-.64.62-1.32.73-2.04.1-.64.05-1.26-.25-1.85-.14-.29-.37-.53-.64-.7-.13-.08-.27-.13-.42-.15-.53-.09-1.05-.02-1.56.15-.53.18-1.02.44-1.5.72-1.04.61-2.07,1.23-3.06,1.92-.5.35-.98.72-1.46,1.08-.44.33-.87.66-1.35.92-.39.22-.81.38-1.25.47-.54.11-1.04,0-1.5-.29-.48-.31-.81-.73-.96-1.28-.09-.35-.06-.7.02-1.04.12-.51.34-.97.62-1.41.69-1.08,1.55-1.99,2.56-2.77,1.49-1.16,3.13-2.05,4.9-2.7.91-.33,1.87-.51,2.84-.52h0Z"/>
    <path class="cls-1" d="m18.26,37.07c0-.34-.04-.64-.24-.91-.1-.13-.23-.22-.38-.27-.39-.14-.78-.12-1.17,0-.31.1-.61.23-.91.34-.06.02-.11.05-.19.08-.14-.35-.28-.7-.43-1.06.21-.1.41-.2.62-.29.48-.2.97-.34,1.49-.37s1.03,0,1.5.25c.53.28.92.69,1.08,1.29.02.08.04.16.04.24.02.77.05,1.54.05,2.32,0,.53-.03,1.06-.05,1.58,0,.07-.03.14-.08.19-.37.41-.82.69-1.33.88-.55.2-1.13.28-1.72.25-.54-.03-1-.25-1.4-.62s-.67-.81-.74-1.35c-.1-.74.11-1.38.64-1.91.34-.34.76-.52,1.24-.58.53-.07,1.05-.05,1.58-.05h.38Zm-.07,1.2s-.06-.01-.09-.01c-.18,0-.36,0-.54,0-.22,0-.43,0-.65.02-.22.02-.44.09-.61.23-.29.25-.37.57-.3.93.09.45.34.76.78.9.23.07.47.08.71.03.22-.04.42-.14.59-.28.06-.04.09-.11.1-.18,0-.16.03-.31.03-.47,0-.36,0-.72,0-1.08,0-.02,0-.05,0-.07h0Z"/>
    <path class="cls-1" d="m36.25,38.24c-1.28,0-2.54-.03-3.82,0,0,.09.01.17.02.26.03.34.11.67.25.98.11.25.28.47.5.64.35.26.74.31,1.16.25.34-.04.66-.17.98-.3.15-.06.29-.12.45-.18.15.31.3.62.45.94-.03.02-.05.04-.08.06-.62.37-1.29.61-2.01.67-.66.06-1.29-.05-1.85-.41-.39-.25-.66-.6-.88-.99-.28-.49-.45-1.03-.5-1.59-.09-1.02.12-1.97.65-2.85.37-.61.92-.94,1.61-1.06.63-.11,1.28,0,1.85.31.32.17.53.44.72.74.24.4.37.84.43,1.29.05.37.06.74.09,1.11,0,.04,0,.08,0,.13h0Zm-1.55-1.16c-.07-.34-.13-.69-.35-.98-.11-.14-.27-.25-.45-.29-.47-.12-.94.09-1.15.54-.07.16-.11.33-.17.5-.02.08-.04.15-.06.23.13.03,2.04.03,2.17,0h0Z"/>
    <path class="cls-1" d="m27.83,33.03l1.53-.24v1.88c.34.02.66,0,.99.03v1.16c-.33,0-.65,0-.99.02v.16c0,1.11,0,2.23,0,3.34,0,.18.01.35.03.53.03.27.17.44.44.51.14.04.29.06.44.08l.15.03v.98s-.03.01-.05.02c-.43.02-.87,0-1.29-.12-.41-.12-.75-.35-.98-.72-.13-.21-.2-.44-.23-.69-.02-.15-.03-.31-.03-.46,0-2.12,0-4.23,0-6.35v-.17Z"/>
    <path class="cls-1" d="m37.09,33.03l1.48-.26v.2c0,1.92,0,3.85,0,5.77,0,.35,0,.7,0,1.06,0,.35.13.52.46.63.11.03.23.06.34.07.07.01.14.02.23.03v1s-.02.01-.03.01c-.42.02-.84.01-1.25-.11-.25-.07-.48-.19-.68-.36-.37-.3-.52-.71-.56-1.17-.01-.13,0-.27,0-.41,0-2.1,0-4.21,0-6.31v-.17Z"/>
    <path class="cls-1" d="m24.86,41.45h-1.5c0-.06,0-.12,0-.18,0-.9,0-1.8,0-2.69,0-.72,0-1.44,0-2.15,0-.13.01-.26.03-.39.02-.15.1-.27.21-.37.59-.57,1.29-.91,2.09-1.06.5-.09,1.02-.09,1.52,0,.03,0,.05.01.08.02.01,0,.03,0,.05.02-.17.43-.38.84-.57,1.25-.23,0-.45,0-.67,0-.38.01-.75.11-1.09.27-.1.05-.13.11-.13.22,0,1.63,0,3.27,0,4.9v.16Z"/>
    <path class="cls-1" d="m22.26,34.74c.02,2.24,0,4.47.01,6.71h-1.46c0-.05-.01-.11-.01-.17v-4.23c0-.65,0-1.29,0-1.94v-.16l1.45-.22Z"/>
    <path class="cls-1" d="m21.47,34.08c-.71,0-1.16-.71-.87-1.38.18-.41.49-.57.95-.57.6,0,1.05.61.91,1.19-.12.47-.49.76-.99.76h0Z"/>
  </g>
</svg>