<?xml version="1.0" encoding="UTF-8"?>
<svg id="Calque_1" data-name="Calque 1" xmlns="http://www.w3.org/2000/svg" viewBox="0 0 54 54">
  <defs>
    <style>
      .cls-1, .cls-2 {
        fill: #fff;
      }

      .cls-3 {
        fill: #6b7280;
      }

      .cls-2 {
        fill-rule: evenodd;
      }
    </style>
  </defs>
  <path class="cls-2" d="m51,27c0,13.25-10.75,24-24,24S3,40.25,3,27,13.75,3,27,3s24,10.75,24,24Zm-24,21.54c11.9,0,21.54-9.64,21.54-21.54S38.9,5.46,27,5.46,5.46,15.1,5.46,27s9.64,21.54,21.54,21.54Z"/>
  <path class="cls-3" d="m49.2,27c0,12.26-9.94,22.2-22.2,22.2S4.8,39.26,4.8,27,14.74,4.8,27,4.8s22.2,9.94,22.2,22.2Z"/>
  <g>
    <path class="cls-1" d="m28,21h10c.42,0,.8-.27.94-.67.14-.4.01-.85-.32-1.11l-5-4c-.37-.29-.88-.29-1.25,0l-5,4c-.33.27-.46.71-.32,1.11.14.4.52.67.94.67Zm5-3.72l2.15,1.72h-4.3l2.15-1.72Z"/>
    <path class="cls-1" d="m39,24v-2h-12v2h1v2h-1v2h12v-2h-1v-2h1Zm-9,0h2v2h-2v-2Zm6,2h-2v-2h2v2Z"/>
    <path class="cls-1" d="m16,32h10c.42,0,.8-.27.94-.67.14-.4.01-.85-.32-1.11l-5-4c-.36-.29-.89-.29-1.25,0l-5,4c-.33.27-.46.71-.32,1.11.14.4.52.67.94.67Zm5-3.72l2.15,1.72h-4.3l2.15-1.72Z"/>
    <path class="cls-1" d="m15,35h1v2h-1v2h12v-2h-1v-2h1v-2h-12v2Zm3,0h2v2h-2v-2Zm6,2h-2v-2h2v2Z"/>
    <path class="cls-1" d="m20,25l3-3h-2v-3h3v2l3-3-3-3v2h-4c-.55,0-1,.45-1,1v4h-2l3,3Z"/>
  </g>
</svg>