<svg xmlns="http://www.w3.org/2000/svg" viewBox="0 0 400 400" fill="none">
  <path fill="#7B68EE" d="M200.6 13.3c-100.4 0-181.8 81.4-181.8 181.7s81.4 181.7 181.8 181.7c100.4 0 181.7-81.4 181.7-181.7S301 13.3 200.6 13.3z"/>
  <path fill="#fff" d="M297.4 192.1v-25.3c0-4.5-3.7-8.2-8.2-8.2H247v-41.1c0-4.5-3.7-8.2-8.2-8.2h-25.4c-4.5 0-8.2 3.7-8.2 8.2v41.1h-40.5v-41.1c0-4.5-3.7-8.2-8.2-8.2h-25.4c-4.5 0-8.2 3.7-8.2 8.2v41.1h-42.1c-4.5 0-8.2 3.7-8.2 8.2v25.3c0 4.5 3.7 8.2 8.2 8.2h42.1v41.4h-42.1c-4.5 0-8.2 3.7-8.2 8.2v25.3c0 4.5 3.7 8.2 8.2 8.2h42.1v42.1c0 4.5 3.7 8.2 8.2 8.2h25.4c4.5 0 8.2-3.7 8.2-8.2v-42.1h40.5v42.1c0 4.5 3.7 8.2 8.2 8.2h25.4c4.5 0 8.2-3.7 8.2-8.2v-42.1h42.2c4.5 0 8.2-3.7 8.2-8.2v-25.3c0-4.5-3.7-8.2-8.2-8.2H247v-41.4h42.2c4.5 0 8.2-3.7 8.2-8.2z"/>
  <path fill="#7B68EE" d="M205.2 200.3h-40.5v41.4h40.5z"/>
</svg>
