<?xml version="1.0" encoding="UTF-8"?>
<svg id="Calque_1" data-name="Calque 1" xmlns="http://www.w3.org/2000/svg" viewBox="0 0 54 54">
  <defs>
    <style>
      .cls-1, .cls-2 {
        fill: #fff;
      }

      .cls-3 {
        fill: #328d53;
      }

      .cls-2 {
        fill-rule: evenodd;
      }
    </style>
  </defs>
  <path class="cls-2" d="m27,48.54c11.9,0,21.54-9.64,21.54-21.54S38.9,5.46,27,5.46,5.46,15.1,5.46,27s9.64,21.54,21.54,21.54Z"/>
  <path class="cls-3" d="m49.2,27c0,12.26-9.94,22.2-22.2,22.2S4.8,39.26,4.8,27,14.74,4.8,27,4.8s22.2,9.94,22.2,22.2Z"/>
  <path class="cls-1" d="m39.33,18.4H14.67c-1.17,0-2.12.95-2.12,2.12v12.96c0,1.17.95,2.12,2.12,2.12h24.66c1.17,0,2.12-.95,2.12-2.12v-12.96c0-1.17-.95-2.12-2.12-2.12Zm-18.9,13.89h-4.06v-1.39h4.06v1.39Zm0-2.59h-4.06v-1.39h4.06v1.39Zm0-4.71h-4.06v-3.16h4.06v3.16Zm5.57,7.3h-4.06v-1.39h4.06v1.39Zm0-2.59h-4.06v-1.39h4.06v1.39Zm5.58,0h-4.07v-1.39h4.07v1.39Zm5.57,0h-4.06v-1.39h4.06v1.39Z"/>
</svg>