<?xml version="1.0" encoding="UTF-8"?>
<svg id="Calque_2" data-name="Calque 2" xmlns="http://www.w3.org/2000/svg" viewBox="0 0 44.4 44.4">
  <defs>
    <style>
      .cls-1, .cls-2 {
        stroke-width: 0px;
      }

      .cls-2 {
        fill: #f6f7f9;
      }
    </style>
  </defs>
  <g id="Calque_1-2" data-name="Calque 1">
    <g>
      <path class="cls-2" d="m44.4,22.2c0,12.26-9.94,22.2-22.2,22.2S0,34.46,0,22.2,9.94,0,22.2,0s22.2,9.94,22.2,22.2Z"/>
      <g>
        <path class="cls-1" d="m17.11,16.68c-.13-.07-.42-.15-.77-.18-.35-.02-.79,0-.79,0v1.5s.47,0,.78-.01c.31-.02.63-.1.79-.19.16-.09.35-.23.35-.57s-.23-.49-.36-.55Zm-.98-.88c.26,0,.53-.07.72-.18.2-.11.31-.28.3-.53,0-.26-.18-.47-.47-.56-.29-.09-.48-.1-.7-.1-.22,0-.44.02-.44.02v1.35s.33,0,.58,0Z"/>
        <path class="cls-1" d="m15.99,10.55c-3.14,0-5.69,2.55-5.69,5.69s2.55,5.69,5.69,5.69,5.69-2.55,5.69-5.69-2.55-5.69-5.69-5.69Zm2.31,7.86c-.42.3-.88.35-1.08.37-.1.01-.27.03-.45.04v1.14h-.7v-1.12h-.53v1.12h-.7v-1.12h-1.38l.14-.84h.42c.14,0,.2-.01.26-.07.06-.06.07-.14.07-.21v-2.9c0-.18-.01-.23-.1-.32-.08-.09-.28-.11-.39-.11h-.41v-.73h1.38v-1.12h.7v1.12h.53v-1.12h.7v1.14c.52.03.91.13,1.25.38.44.32.42.89.41,1.02,0,.13-.07.39-.19.56-.12.17-.41.33-.41.33,0,0,.34.07.58.25.24.18.42.5.41.96,0,.47-.1.93-.53,1.22Z"/>
        <path class="cls-1" d="m28.41,10.55c-3.14,0-5.68,2.55-5.68,5.68s2.55,5.68,5.68,5.68,5.68-2.55,5.68-5.68-2.55-5.68-5.68-5.68Zm.02,1.91l2.16,3.4-2.16-.96-2.22.94,2.22-3.37Zm.02,2.9l2.25,1-2.25,1.26-2.32-1.28,2.32-.98Zm.01,4.64l-2.24-3.12,2.22,1.28,2.26-1.28-2.24,3.12Z"/>
        <path class="cls-1" d="m15.99,22.47c-3.14,0-5.69,2.55-5.69,5.69s2.55,5.69,5.69,5.69,5.69-2.55,5.69-5.69c0-3.14-2.55-5.69-5.69-5.69Zm2.21,8.46h-4.44l.37-1.78-.73.5.18-.98.76-.52.75-3.56h1.39l-.51,2.44,1.81-1.24-.21,1.01-1.81,1.24-.36,1.7h3.06l-.25,1.19h0Z"/>
        <path class="cls-1" d="m28.39,22.48c-3.14,0-5.68,2.54-5.68,5.68s2.54,5.68,5.68,5.68,5.68-2.54,5.68-5.68-2.54-5.68-5.68-5.68Zm2.38,8.21c-.37.63-1.2.86-1.85.5-.65-.36-.88-1.16-.51-1.8.15-.26.06-.6-.21-.75-.27-.15-.61-.06-.77.2h0s0,0,0,.01c-.37.63-1.2.86-1.85.5-.65-.36-.88-1.16-.51-1.8.37-.63,1.2-.86,1.85-.5.22.12.39.29.51.49h0s0,0,0,0c.16.25.5.33.77.18.27-.16.36-.49.2-.75-.38-.63-.17-1.44.47-1.81.65-.37,1.48-.17,1.86.46.38.63.17,1.44-.47,1.81-.21.12-.45.18-.69.19h0c-.31.01-.56.26-.55.56,0,.31.26.55.58.55h0c.24,0,.47.06.68.17.65.36.88,1.16.51,1.8h0Z"/>
      </g>
    </g>
  </g>
</svg>