<svg xmlns="http://www.w3.org/2000/svg" viewBox="0 0 512 512" fill="none">
  <path fill="#FF7A59" d="M267.4 211.6c-25.1 23.7-40.8 57.3-40.8 94.6 0 37.3 15.7 70.9 40.8 94.6 25.1-23.7 40.8-57.3 40.8-94.6 0-37.3-15.7-70.9-40.8-94.6z"/>
  <path fill="#FF7A59" d="M404.1 142.8v-.4c0-27.8-22.5-50.3-50.3-50.3s-50.3 22.5-50.3 50.3v.4c-57.5 22-98.3 77.7-98.3 143.4 0 84.6 68.6 153.2 153.2 153.2 84.6 0 153.2-68.6 153.2-153.2-.1-65.7-40.8-121.4-98.4-143.4zm-47.5 219.6c-48.2 0-87.3-39.1-87.3-87.3s39.1-87.3 87.3-87.3 87.3 39.1 87.3 87.3-39.1 87.3-87.3 87.3z"/>
  <path fill="#FF7A59" d="M356.6 55V25.5c0-14.1-11.4-25.5-25.5-25.5s-25.5 11.4-25.5 25.5V55c0 9.9 8 17.9 17.9 17.9h15.2c9.9 0 17.9-8 17.9-17.9zM178.5 275.1c0-22.4 4.5-43.7 12.7-63.1H80.5c-44.5 0-80.5 36-80.5 80.5v25.2c0 44.5 36 80.5 80.5 80.5h110.7c-8.2-19.4-12.7-40.7-12.7-63.1v-60z"/>
</svg>
