<svg xmlns="http://www.w3.org/2000/svg" viewBox="0 0 100 100" fill="none">
  <path d="M1.22541 61.5228c-.2225-.9485.90748-1.5459 1.59638-.8239L39.3342 98.1074c.7357.7711.1305 2.0115-.8708 1.7831L1.22541 61.5228z" fill="#5E6AD2"/>
  <path d="M.00189135 46.8891c-.01764375.2833.00613963.5765.09831565.8748l31.2769323 20.3142L52.5765 89.2772l23.0946 8.4799c.3183.1168.6487.1609.9868.1609L.00189135 46.8891z" fill="#5E6AD2"/>
  <path d="M54.8455 0c.2083 0 .4166.01677.6249.05031L.00354 54.7202 54.8455 0z" fill="#5E6AD2"/>
  <path fill-rule="evenodd" clip-rule="evenodd" d="M7.24316 38.9121c-.04029.2412-.06044.4958-.06044.7639v47.8516L60.0343 34.6758V7.82324c0-4.32065-3.4956-7.82121-7.7931-7.82324H7.2789C3.26187.00224 0 3.28387 0 7.32227 0 7.64829.02545 7.96916.07487 8.28395L7.24316 38.9121z" fill="#5E6AD2"/>
</svg>
