<svg xmlns="http://www.w3.org/2000/svg" viewBox="0 0 256 180" fill="none">
  <path fill="#00A1E0" d="M106.75 7.067c10.558-10.558 25.2-17.067 41.367-17.067 22.792 0 42.725 12.783 52.85 31.567 8.708-3.85 18.358-6 28.516-6 38.55 0 69.817 31.266 69.817 69.816 0 38.55-31.267 69.817-69.817 69.817-6.133 0-12.1-.8-17.783-2.3-8.892 17.066-26.65 28.75-47.183 28.75-9.534 0-18.509-2.517-26.259-6.917-9.283 18.317-28.358 30.867-50.308 30.867-23.492 0-43.717-14.3-52.342-34.667C14.958 168.542 0 151.8 0 131.717c0-18.125 12.1-33.417 28.683-38.25-.733-3.517-1.133-7.15-1.133-10.875 0-31.867 25.833-57.7 57.7-57.7 8.083 0 15.783 1.667 22.775 4.675l-1.275-22.5z"/>
</svg>
