<?xml version="1.0" encoding="UTF-8"?>
<svg id="Calque_1" data-name="Calque 1" xmlns="http://www.w3.org/2000/svg" viewBox="0 0 54 54">
  <defs>
    <style>
      .cls-1, .cls-2, .cls-3 {
        fill: #fff;
      }

      .cls-4 {
        fill: #6b7280;
      }

      .cls-2 {
        stroke: #fff;
      }

      .cls-3 {
        fill-rule: evenodd;
      }
    </style>
  </defs>
  <path class="cls-3" d="m51,27c0,13.25-10.75,24-24,24S3,40.25,3,27,13.75,3,27,3s24,10.75,24,24Zm-24,21.54c11.9,0,21.54-9.64,21.54-21.54S38.9,5.46,27,5.46,5.46,15.1,5.46,27s9.64,21.54,21.54,21.54Z"/>
  <path class="cls-4" d="m49.2,27c0,12.26-9.94,22.2-22.2,22.2S4.8,39.26,4.8,27,14.74,4.8,27,4.8s22.2,9.94,22.2,22.2Z"/>
  <g>
    <path class="cls-2" d="m34.13,27.34l2-12.16h1.19l-2,12.16h-1.19Zm-5.53-3.37l.19-1.19h9.07l-.19,1.19h-9.07Zm1.26,3.37l2-12.16h1.19l-2,12.16h-1.19Zm-.55-7.6l.19-1.19h9.07l-.19,1.19h-9.07Z"/>
    <path class="cls-1" d="m19.61,26.58l.15-4.06-3.44,2.18-.89-1.55,3.62-1.88-3.62-1.88.89-1.55,3.44,2.18-.15-4.06h1.77l-.15,4.06,3.44-2.18.89,1.55-3.62,1.88,3.62,1.88-.89,1.55-3.44-2.18.15,4.06h-1.77Z"/>
    <path class="cls-1" d="m19.93,32.66h1.29v3.95c0,.44-.11.83-.32,1.16-.21.33-.5.59-.88.78-.38.18-.82.28-1.32.28s-.95-.09-1.32-.28c-.38-.19-.67-.45-.88-.78s-.31-.72-.31-1.16v-3.95h1.29v3.84c0,.23.05.44.15.62.1.18.25.32.43.42.19.1.4.15.65.15s.47-.05.65-.15c.19-.1.33-.24.43-.42.1-.18.15-.39.15-.62v-3.84Zm5.64,1.75c-.02-.24-.13-.43-.31-.56-.18-.13-.42-.2-.73-.2-.21,0-.39.03-.53.09-.14.06-.26.14-.33.24-.08.1-.11.22-.11.35,0,.11.02.2.07.29.05.08.12.15.21.21.09.06.19.11.31.15.12.04.24.08.37.11l.55.13c.27.06.51.14.73.24.22.1.41.22.58.37.16.14.29.31.38.51.09.2.14.42.14.67,0,.37-.1.69-.29.97-.19.27-.46.48-.81.63-.35.15-.77.22-1.27.22s-.92-.08-1.28-.23c-.36-.15-.65-.37-.85-.67-.2-.3-.31-.66-.32-1.1h1.24c.01.2.07.37.18.51.1.13.24.24.42.31.18.07.38.1.6.1s.41-.03.57-.1c.16-.06.29-.15.38-.26.09-.11.13-.24.13-.39,0-.14-.04-.25-.12-.34-.08-.09-.2-.17-.35-.24-.15-.07-.34-.12-.56-.18l-.66-.17c-.51-.12-.92-.32-1.21-.58-.3-.27-.44-.62-.44-1.07,0-.37.1-.69.29-.96.2-.28.47-.49.82-.64.35-.15.74-.23,1.19-.23s.85.08,1.18.23c.34.15.6.37.79.64.19.28.29.59.29.96h-1.23Zm5.48,0c-.02-.24-.13-.43-.31-.56-.18-.13-.42-.2-.73-.2-.21,0-.39.03-.53.09-.14.06-.26.14-.33.24-.08.1-.11.22-.11.35,0,.11.02.2.07.29.05.08.12.15.21.21.09.06.19.11.31.15.12.04.24.08.37.11l.55.13c.27.06.51.14.73.24.22.1.41.22.58.37.16.14.29.31.38.51.09.2.14.42.14.67,0,.37-.1.69-.29.97-.19.27-.46.48-.81.63-.35.15-.77.22-1.27.22s-.92-.08-1.28-.23c-.36-.15-.65-.37-.85-.67-.2-.3-.31-.66-.32-1.1h1.24c.01.2.07.37.18.51.1.13.24.24.42.31.18.07.38.1.6.1s.41-.03.57-.1c.16-.06.29-.15.38-.26.09-.11.13-.24.13-.39,0-.14-.04-.25-.12-.34-.08-.09-.2-.17-.35-.24-.15-.07-.34-.12-.56-.18l-.66-.17c-.51-.12-.92-.32-1.21-.58-.3-.27-.44-.62-.44-1.07,0-.37.1-.69.29-.96.2-.28.47-.49.82-.64.35-.15.74-.23,1.19-.23s.85.08,1.18.23c.34.15.6.37.79.64.19.28.29.59.29.96h-1.23Zm4.34,4.33h-2.16v-6.08h2.17c.61,0,1.14.12,1.58.37.44.24.78.59,1.02,1.04.24.45.36,1,.36,1.63s-.12,1.18-.36,1.63c-.24.46-.58.8-1.02,1.05-.44.24-.97.37-1.59.37Zm-.87-1.1h.82c.38,0,.7-.07.96-.2.26-.14.46-.35.59-.63.13-.29.2-.66.2-1.11s-.07-.82-.2-1.1c-.13-.29-.33-.49-.58-.63-.26-.13-.58-.2-.96-.2h-.82v3.88Z"/>
  </g>
</svg>